<svg width="427" height="435" viewBox="0 0 427 435" fill="none" xmlns="http://www.w3.org/2000/svg">
<path d="M147.714 181.8C158.014 189.8 172.914 188 180.914 177.6C188.914 167.3 187.114 152.4 176.714 144.4C167.914 137.5 155.714 137.9 147.414 144.6L142.214 140.6L134.514 143L135.414 135.3L128.914 130.2L121.214 132.6L122.114 124.9L116.514 120.6L111.814 122.1L112.314 117.4L109.014 114.9L101.614 115.6L100.614 126.9L139.314 157C137.014 165.9 139.914 175.8 147.714 181.8ZM175.814 173.7C173.514 176.7 169.214 177.2 166.314 174.9C163.314 172.6 162.814 168.3 165.114 165.4C167.414 162.4 171.714 161.9 174.614 164.2C177.614 166.5 178.114 170.8 175.814 173.7Z" fill="#EBEBEB"/>
<path d="M178.815 91.4002C183.215 86.0002 182.415 78.0002 177.015 73.6002C171.615 69.2002 163.615 70.0002 159.215 75.4002C155.415 80.0002 155.515 86.5002 158.915 91.1002L156.715 93.8002L157.915 98.0002L153.815 97.4002L151.015 100.8L152.215 105L148.115 104.4L145.715 107.3L146.415 109.8L143.915 109.5L142.515 111.2L142.815 115.2L148.915 115.9L165.515 95.6002C170.215 96.9002 175.515 95.5002 178.815 91.4002ZM174.915 76.2002C176.515 77.5002 176.715 79.8002 175.415 81.3002C174.115 82.9002 171.815 83.1002 170.315 81.8002C168.715 80.5002 168.515 78.2002 169.815 76.7002C171.015 75.2002 173.315 75.0002 174.915 76.2002Z" fill="#EBEBEB"/>
<path d="M125.314 5.5V78.9H19.9143L16.1143 6L125.314 5.5Z" fill="#E0E0E0"/>
<path d="M16.1733 6.02266L16.1733 78.7227H121.573V6.02266H16.1733Z" fill="white"/>
<path d="M122.014 79.2H15.6143V5.5H122.014V79.2ZM16.6143 78.2H121.014V6.5H16.6143V78.2Z" fill="#E0E0E0"/>
<path d="M110.214 15.0996H27.6143V69.7996H110.214V15.0996Z" fill="white"/>
<path d="M110.114 15.1C110.114 15.1 110.014 15.1 109.714 15.1C109.414 15.1 109.014 15.1 108.514 15.1C107.514 15.1 105.914 15.1 104.014 15.1C100.014 15.1 94.3144 15.1 87.0144 15.2C72.4144 15.2 51.8144 15.3 27.6144 15.3L27.8144 15.1C27.8144 31.8 27.8144 50.3 27.8144 69.7L27.6144 69.4C58.7144 69.4 87.5144 69.4 110.214 69.5L110.014 69.7C110.014 53.1 110.114 39.4 110.114 29.9C110.114 25.2 110.114 21.4 110.214 18.9C110.214 17.6 110.214 16.7 110.214 16C110.114 15.4 110.114 15.1 110.114 15.1C110.114 15.1 110.114 15.4 110.114 16.1C110.114 16.8 110.114 17.7 110.114 19C110.114 21.5 110.114 25.2 110.214 29.9C110.214 39.4 110.314 53.1 110.314 69.8V70H110.114C87.4144 70 58.7144 70 27.5144 70.1H27.2144V69.8C27.2144 50.4 27.2144 31.9 27.2144 15.2V15H27.4144C51.7144 15 72.4144 15.1 87.0144 15.1C94.3144 15.1 100.014 15.1 104.014 15.2C105.914 15.2 107.514 15.2 108.514 15.2C109.014 15.2 109.414 15.2 109.614 15.2C110.014 15 110.114 15.1 110.114 15.1Z" fill="#E0E0E0"/>
<path d="M16.1141 5.79979C16.1141 5.69979 16.8141 6.19979 17.9141 6.99979C19.0141 7.79979 20.4141 8.89979 22.0141 10.1998C23.6141 11.4998 25.0141 12.6998 26.0141 13.5998C27.0141 14.4998 27.6141 15.0998 27.5141 15.0998C27.4141 15.1998 24.9141 13.0998 21.7141 10.5998C18.6141 7.99979 16.0141 5.89979 16.1141 5.79979Z" fill="#E0E0E0"/>
<path d="M121.514 5.99987C121.614 6.09987 119.114 8.19987 116.014 10.6999C112.814 13.1999 110.214 15.0999 110.114 14.9999C110.014 14.8999 112.514 12.7999 115.614 10.2999C118.814 7.79987 121.514 5.89987 121.514 5.99987Z" fill="#E0E0E0"/>
<path d="M121.514 78.7998C117.614 75.5998 113.714 72.3998 109.714 69.2998Z" fill="white"/>
<path d="M109.714 69.1999C109.814 69.0999 112.514 71.0999 115.714 73.7999C118.914 76.3999 121.514 78.6999 121.414 78.7999C121.314 78.8999 118.614 76.8999 115.414 74.1999C112.214 71.5999 109.614 69.2999 109.714 69.1999Z" fill="#E0E0E0"/>
<path d="M16.1142 78.7001C16.0142 78.6001 18.5142 76.5001 21.6142 74.0001C24.7142 71.5001 27.3142 69.6001 27.4142 69.7001C27.5142 69.8001 25.0142 71.9001 21.9142 74.4001C18.8142 76.9001 16.2142 78.9001 16.1142 78.7001Z" fill="#E0E0E0"/>
<path d="M44.3799 32.1307V50.4307H96.3799V32.1307H44.3799Z" fill="#E0E0E0"/>
<path d="M306.814 386.101L331.614 422.101L340.414 422.301L324.214 385.301L306.814 386.101Z" fill="#263238"/>
<path d="M45.6147 388.001L32.6147 422.001H39.1147L61.9147 388.101L45.6147 388.001Z" fill="#263238"/>
<path d="M40.1146 264.4L41.1146 308.4C41.2146 314.6 46.2146 319.6 52.5146 319.8L298.715 325.3C305.215 325.4 310.615 320.2 310.615 313.7V260.7C310.615 245.1 299.115 231.8 283.615 229.7C238.515 223.5 145.615 214 70.5146 227.5C52.5146 230.7 39.7146 246.4 40.1146 264.4Z" fill="#4D5AF2"/>
<path d="M38.9145 279.801C38.9145 279.801 18.6145 270.401 14.5145 279.801C10.4145 289.201 15.0145 300.701 19.6145 307.201C24.2145 313.701 24.1145 392.901 24.1145 392.901L331.715 389.601L335.315 313.301C335.315 313.301 350.115 295.101 349.115 287.301C348.215 279.501 335.714 268.101 321.414 279.801C307.114 291.501 303.414 315.901 303.414 315.901L58.2145 317.701C58.3145 317.801 59.1145 283.401 38.9145 279.801Z" fill="#4D5AF2"/>
<path d="M300.415 331.2C300.415 331.3 245.915 331.5 178.715 331.5C111.515 331.5 57.0146 331.4 57.0146 331.2C57.0146 331.1 111.515 330.9 178.715 330.9C245.915 330.9 300.415 331 300.415 331.2Z" fill="#263238"/>
<path d="M57.0146 364.701C57.0146 364.701 57.0146 364.601 57.0146 364.501C57.0146 364.301 57.0146 364.101 57.0146 363.801C57.0146 363.201 57.0146 362.301 56.9146 361.101C56.9146 358.701 56.9146 355.301 56.9146 351.101C56.9146 342.601 57.0146 331.001 56.6146 318.101C56.4146 311.701 56.1146 305.501 55.2146 300.001C55.0146 299.301 54.8146 298.701 54.7146 298.001C54.4146 297.401 54.2146 296.701 53.9146 296.101C53.4146 294.901 52.8146 293.701 52.2146 292.601C51.0146 290.401 49.8146 288.501 48.5146 286.801C47.2146 285.201 45.8146 283.801 44.5146 282.801C43.2146 281.801 42.0146 281.001 40.9146 280.501C38.8146 279.501 37.5146 279.201 37.5146 279.101C37.5146 279.101 37.6146 279.101 37.7146 279.101C37.9146 279.101 38.1146 279.201 38.4146 279.301C39.0146 279.401 39.9146 279.801 41.0146 280.301C42.1146 280.801 43.3146 281.501 44.7146 282.601C46.0146 283.601 47.4146 285.001 48.8146 286.601C50.2146 288.201 51.5146 290.201 52.6146 292.401C53.2146 293.501 53.8146 294.701 54.3146 295.901C54.6146 296.501 54.8146 297.101 55.1146 297.801C55.3146 298.501 55.5146 299.101 55.7146 299.801C56.7146 305.401 56.9146 311.501 57.2146 318.001C57.6146 330.901 57.5146 342.601 57.4146 351.101C57.3146 355.301 57.3146 358.701 57.3146 361.101C57.3146 362.201 57.3146 363.201 57.3146 363.801C57.3146 364.101 57.3146 364.301 57.3146 364.501C57.0146 364.701 57.0146 364.701 57.0146 364.701Z" fill="#263238"/>
<path d="M36.5145 297.5C36.5145 297.5 36.8145 297.3 37.3145 297.2C37.8145 297.1 38.7145 297.2 39.6145 297.8C40.0145 298.1 40.4145 298.5 40.7145 299C41.0145 299.5 41.1145 300.2 41.0145 300.9C40.8145 302.2 39.7145 303.6 38.1145 304C36.5145 304.3 35.0145 303.3 34.3145 302.2C33.9145 301.6 33.8145 300.9 33.8145 300.3C33.8145 299.7 34.0145 299.1 34.2145 298.7C34.7145 297.8 35.4145 297.3 35.9145 297.1C36.4145 296.9 36.7145 296.9 36.7145 296.9C36.7145 296.9 36.4145 297 36.0145 297.3C35.6145 297.6 34.9145 298.1 34.5145 298.9C34.1145 299.7 34.0145 300.9 34.6145 301.9C35.2145 302.9 36.5145 303.7 37.9145 303.5C39.2145 303.2 40.2145 302 40.4145 300.9C40.6145 299.7 40.0145 298.7 39.3145 298.1C38.6145 297.5 37.8145 297.4 37.3145 297.4C36.9145 297.5 36.6145 297.6 36.5145 297.5Z" fill="#263238"/>
<path d="M37.9147 317.301C37.9147 317.301 37.2147 316.801 36.5147 315.701C35.8147 314.601 35.1147 312.801 35.1147 310.701C35.1147 308.601 35.7147 306.801 36.4147 305.701C37.1147 304.501 37.7147 304.001 37.8147 304.001C37.9147 304.101 37.3147 304.701 36.8147 305.801C36.2147 306.901 35.7147 308.701 35.7147 310.601C35.7147 312.601 36.3147 314.301 36.9147 315.401C37.5147 316.601 38.0147 317.201 37.9147 317.301Z" fill="#263238"/>
<path d="M34.7146 287.6C34.8146 287.6 34.6146 288.2 34.4146 289.1C34.2146 290 34.2146 291.3 34.5146 292.7C34.8146 294.1 35.4146 295.2 35.9146 296C36.4146 296.8 36.8146 297.2 36.8146 297.2C36.8146 297.2 36.2146 296.9 35.6146 296.2C35.0146 295.5 34.3146 294.3 34.0146 292.8C33.7146 291.3 33.8146 290 34.1146 289C34.3146 288 34.7146 287.5 34.7146 287.6Z" fill="#263238"/>
<path d="M28.7144 298.6C28.8144 298.5 29.7144 299.4 31.2144 300.2C32.6144 300.9 33.9144 301.2 33.9144 301.3C33.9144 301.4 32.5144 301.4 31.0144 300.6C29.4144 299.9 28.6144 298.7 28.7144 298.6Z" fill="#263238"/>
<path d="M332.915 364.7C332.915 364.8 263.515 365 178.015 365C92.4146 365 23.0146 364.9 23.0146 364.7C23.0146 364.6 92.4146 364.4 178.015 364.4C263.515 364.5 332.915 364.6 332.915 364.7Z" fill="#263238"/>
<path d="M299.315 316.2C299.415 316.2 299.615 327.1 299.615 340.5C299.615 353.9 299.515 364.8 299.315 364.8C299.115 364.8 299.015 353.9 299.015 340.5C299.115 327.1 299.215 316.2 299.315 316.2Z" fill="#263238"/>
<path d="M196.615 232.301C196.615 232.301 196.415 232.301 196.115 232.301C195.815 232.301 195.315 232.301 194.715 232.401C193.415 232.401 191.615 232.501 189.315 232.601C184.615 232.701 177.915 232.901 169.515 233.101C152.815 233.401 129.715 233.901 104.315 234.401C97.9146 234.601 91.7146 234.501 85.7146 234.901C79.7146 235.301 74.0146 236.101 68.8146 238.001C63.6146 239.801 59.1146 242.801 55.9146 246.401C54.3146 248.201 53.0146 250.201 52.0146 252.201C50.9146 254.201 50.2146 256.301 49.6146 258.201C48.4146 262.201 47.9146 265.901 47.6146 269.201C47.3146 272.501 47.3146 275.401 47.2146 277.701C47.2146 280.001 47.2146 281.801 47.3146 283.101C47.3146 283.701 47.3146 284.201 47.3146 284.501C47.3146 284.801 47.3146 285.001 47.3146 285.001C47.3146 285.001 47.3146 284.801 47.3146 284.501C47.3146 284.201 47.3146 283.701 47.2146 283.101C47.1146 281.901 47.1146 280.101 47.0146 277.701C47.0146 275.401 47.0146 272.501 47.3146 269.201C47.6146 265.901 48.1146 262.101 49.3146 258.101C49.9146 256.101 50.7146 254.001 51.7146 252.001C52.7146 249.901 54.1146 247.901 55.7146 246.101C58.9146 242.401 63.5146 239.301 68.7146 237.501C73.9146 235.601 79.8146 234.801 85.7146 234.401C91.7146 234.001 97.9146 234.001 104.315 233.901C129.815 233.401 152.815 233.001 169.515 232.701C177.815 232.601 184.615 232.501 189.315 232.401C191.615 232.401 193.415 232.401 194.715 232.301C195.315 232.301 195.815 232.301 196.115 232.301C196.515 232.301 196.615 232.301 196.615 232.301Z" fill="#263238"/>
<path d="M117.914 266.501C117.914 266.501 117.614 266.701 117.114 267.101C116.614 267.501 115.914 268.201 115.514 269.301C115.114 270.401 115.114 271.801 116.114 273.001C117.014 274.201 118.714 275.001 120.314 274.601C122.014 274.201 123.114 272.701 123.414 271.301C123.714 269.801 123.014 268.501 122.214 267.701C121.414 266.901 120.514 266.601 119.814 266.501C119.214 266.401 118.814 266.401 118.814 266.401C118.814 266.401 119.214 266.301 119.814 266.301C120.514 266.401 121.514 266.601 122.414 267.501C122.914 267.901 123.314 268.401 123.614 269.101C123.914 269.801 124.014 270.601 123.814 271.401C123.514 273.001 122.314 274.701 120.414 275.201C118.514 275.601 116.614 274.701 115.714 273.401C115.214 272.701 114.914 272.001 114.914 271.201C114.814 270.501 115.014 269.801 115.214 269.201C115.714 268.101 116.414 267.301 117.014 267.001C117.514 266.601 117.914 266.501 117.914 266.501Z" fill="#263238"/>
<path d="M113.714 292.4C113.614 292.4 113.314 291.3 112.914 289.4C112.614 287.6 112.314 284.9 113.114 282C113.914 279.1 115.814 277 117.414 276.1C118.214 275.6 119.014 275.4 119.514 275.3C120.014 275.2 120.314 275.2 120.314 275.2C120.314 275.3 119.114 275.4 117.614 276.4C116.114 277.4 114.314 279.5 113.614 282.2C112.914 284.9 113.114 287.5 113.314 289.4C113.514 291.3 113.814 292.4 113.714 292.4Z" fill="#263238"/>
<path d="M117.315 251.101C117.415 251.201 116.615 251.901 115.815 253.301C115.015 254.701 114.415 257.001 115.015 259.401C115.615 261.801 117.115 263.601 118.415 264.601C119.715 265.601 120.715 265.901 120.715 265.901C120.715 265.901 120.415 265.901 120.015 265.701C119.615 265.601 118.915 265.301 118.215 264.801C116.815 263.901 115.115 262.001 114.515 259.501C113.915 256.901 114.715 254.501 115.515 253.101C115.915 252.401 116.415 251.801 116.715 251.501C117.115 251.201 117.315 251.101 117.315 251.101Z" fill="#263238"/>
<path d="M116.415 271.101C116.415 271.301 113.915 271.301 111.015 272.301C108.115 273.301 106.015 274.701 105.915 274.601C105.815 274.501 107.815 272.801 110.815 271.801C113.815 270.801 116.415 271.001 116.415 271.101Z" fill="#263238"/>
<g opacity="0.3">
<g opacity="0.3">
<path opacity="0.3" d="M84.1147 332.1C93.7147 339.5 106.015 343.2 118.115 342.3C115.615 354.1 113.015 365.8 110.515 377.6C109.815 380.7 109.215 384.2 110.815 387C113.115 390.9 118.415 391.3 122.915 391.2C127.915 391.1 133.115 391 137.615 388.7C143.915 385.4 147.315 378.5 149.715 371.8C152.115 365.1 154.215 358 159.315 353C165.015 359.5 172.915 364 181.415 365.6C183.915 366.1 186.715 366.2 188.715 364.6C190.715 363 191.315 360.2 190.815 357.7C190.315 355.2 188.915 353 187.515 350.9C182.615 343.3 177.715 335.8 172.915 328.2C170.915 325.1 168.815 321.9 165.415 320.4C162.815 319.3 159.815 319.4 156.915 319.5C133.015 320.9 109.315 324.5 86.0147 330.2" fill="black"/>
</g>
</g>
<g opacity="0.3">
<g opacity="0.3">
<path opacity="0.3" d="M162.314 219.501C156.414 235.101 134.314 238.701 126.514 253.501C118.814 268.101 128.314 287.501 120.414 302.101C117.514 307.501 112.414 311.501 109.614 316.901C107.714 320.501 106.714 324.901 103.614 327.601C100.014 330.801 94.4143 330.701 90.0143 328.701C85.7143 326.701 82.3143 323.001 79.2143 319.301C73.4143 312.401 67.9143 305.001 65.2143 296.401C60.5143 281.601 64.8143 264.901 74.2143 252.601C83.6143 240.301 97.5143 231.901 112.114 226.901C126.814 221.901 142.314 220.001 157.714 218.601" fill="black"/>
</g>
</g>
<path d="M91.2148 178.4C93.5148 175 96.5148 171.9 100.215 170.1C103.915 168.2 108.315 167.6 112.215 168.9C116.115 170.2 119.415 173.5 120.215 177.5C120.815 180.7 120.015 184.3 121.615 187.1C123.515 190.3 128.115 191.4 129.715 194.8C130.715 196.8 130.315 199.3 129.215 201.3C128.115 203.3 126.515 204.9 124.815 206.4C125.815 207.1 126.815 207.9 127.515 208.9C128.215 209.9 128.615 211.3 128.115 212.4C127.615 213.6 126.315 214.3 125.115 214.8C119.615 217.1 113.315 217.7 107.415 216.5C105.815 216.2 104.015 215.7 102.715 216.7" fill="#263238"/>
<path d="M131.215 190.3L128.015 200.1L149.915 212.5L127.915 213.2L129.515 231L171.815 220.6C171.915 220.6 174.415 203.4 131.215 190.3L128.215 189.6C127.115 189.3 126.215 188.6 125.815 187.5C125.515 186.7 124.915 186 124.115 185.6L120.515 183.7V186.6L122.515 188.9L122.215 194.4C122.015 196.8 123.715 199.1 126.015 199.6L128.015 200.1" fill="#B78876"/>
<path d="M83.3145 225.7C82.4145 225.7 74.4145 227.7 69.7146 233.5C65.1146 239.4 58.4146 261.4 58.4146 261.4L75.4146 264.3L82.7146 282.7C82.7146 282.7 126.115 277 123.815 274.7C121.515 272.4 116.715 268.9 116.715 268.9L126.715 235.6L138.715 229.1L134.715 212.5L110.515 215.8L83.3145 225.7Z" fill="#FAFAFA"/>
<path d="M124.914 243.4C124.914 243.5 111.414 243.7 94.6145 243.7C77.9145 243.7 64.3145 243.6 64.3145 243.4C64.3145 243.3 77.8145 243.1 94.6145 243.1C111.314 243.2 124.914 243.3 124.914 243.4Z" fill="#4D5AF2"/>
<path d="M122.215 253.2C122.215 253.3 108.715 253.5 91.9147 253.5C75.2147 253.5 61.6147 253.4 61.6147 253.2C61.6147 253.1 75.1147 252.9 91.9147 252.9C108.615 252.9 122.215 253.1 122.215 253.2Z" fill="#4D5AF2"/>
<path d="M122.215 263.8C122.215 263.9 111.915 264.1 99.3145 264.1C86.6145 264.1 76.4146 264 76.4146 263.8C76.4146 263.6 86.7145 263.5 99.3145 263.5C111.915 263.5 122.215 263.6 122.215 263.8Z" fill="#4D5AF2"/>
<path d="M125.715 274C125.715 274.1 115.415 274.3 102.815 274.3C90.1145 274.3 79.9146 274.2 79.9146 274C79.9146 273.9 90.2145 273.7 102.815 273.7C115.415 273.7 125.715 273.8 125.715 274Z" fill="#4D5AF2"/>
<path d="M136.514 230.2C136.514 230.3 129.714 230.5 121.414 230.5C113.014 230.5 106.314 230.4 106.314 230.2C106.314 230 113.114 229.9 121.414 229.9C129.814 230 136.514 230.1 136.514 230.2Z" fill="#4D5AF2"/>
<path d="M137.615 219.9C137.615 220 130.915 220.3 122.515 220.5C114.215 220.7 107.415 220.7 107.415 220.6C107.415 220.5 114.115 220.2 122.515 220C130.915 219.8 137.615 219.7 137.615 219.9Z" fill="#4D5AF2"/>
<path d="M79.0147 248.5C79.1147 248.5 78.4147 252.2 77.4147 256.7C76.4147 261.2 75.4147 264.8 75.3147 264.8C75.2147 264.8 75.9147 261.1 76.9147 256.6C77.9147 252.1 78.9147 248.5 79.0147 248.5Z" fill="#263238"/>
<path d="M126.315 373.4L113.715 413.3L128.915 414.8L143.315 380.1L126.315 373.4Z" fill="#B78876"/>
<path d="M137.515 399.301L130.215 417.301C130.215 417.301 146.115 430.701 145.115 434.201L109.615 421.401L119.815 392.801L137.515 399.301Z" fill="#455A64"/>
<path d="M119.815 411.801C119.015 411.701 118.315 412.301 118.215 413.101C118.115 413.901 118.715 414.601 119.515 414.701C120.315 414.801 121.215 414.101 121.215 413.301C121.215 412.501 120.415 411.701 119.715 411.801" fill="#E0E0E0"/>
<path d="M109.615 421.401L110.715 418.601L144.315 432.001C144.315 432.001 145.615 433.301 145.015 434.301L109.615 421.401Z" fill="#E0E0E0"/>
<path d="M130.915 417.301C130.815 417.501 129.915 417.201 128.915 417.501C127.815 417.701 127.115 418.301 127.015 418.201C126.915 418.101 127.515 417.201 128.815 416.901C130.015 416.601 131.015 417.201 130.915 417.301Z" fill="#263238"/>
<path d="M134.015 420.201C134.015 420.401 133.115 420.401 132.315 420.901C131.415 421.401 131.015 422.101 130.815 422.101C130.615 422.101 130.915 421.001 131.915 420.401C133.015 419.801 134.115 420.101 134.015 420.201Z" fill="#263238"/>
<path d="M134.515 425.401C134.315 425.401 134.415 424.401 135.215 423.601C136.015 422.801 136.915 422.701 137.015 422.901C137.015 423.101 136.315 423.401 135.715 424.101C135.015 424.801 134.715 425.501 134.515 425.401Z" fill="#263238"/>
<path d="M132.115 413.001C132.015 413.101 131.315 412.601 130.315 412.301C129.315 412.001 128.415 412.001 128.415 411.901C128.315 411.701 129.315 411.401 130.515 411.701C131.615 412.101 132.215 412.901 132.115 413.001Z" fill="#263238"/>
<path d="M133.515 409.401C133.515 409.501 132.815 409.301 131.715 408.701C131.215 408.401 130.615 408.001 130.015 407.501C129.715 407.201 129.415 406.901 129.215 406.601C129.115 406.401 128.915 406.301 128.815 406.001C128.715 405.701 128.715 405.301 129.115 405.001C129.415 404.801 129.715 404.801 130.015 404.901C130.315 405.001 130.515 405.101 130.615 405.201C131.015 405.401 131.315 405.701 131.615 406.001C132.215 406.601 132.615 407.101 132.815 407.701C133.315 408.801 133.415 409.501 133.315 409.501C133.215 409.501 133.015 408.801 132.415 407.901C132.115 407.401 131.715 406.901 131.115 406.401C130.815 406.201 130.515 405.901 130.215 405.701C129.915 405.501 129.515 405.301 129.415 405.501C129.315 405.601 129.315 405.601 129.415 405.701C129.415 405.801 129.615 406.001 129.715 406.101C129.915 406.401 130.215 406.701 130.415 407.001C130.915 407.501 131.415 408.001 131.915 408.301C132.815 409.001 133.515 409.301 133.515 409.401Z" fill="#263238"/>
<path d="M133.115 409.601C133.015 409.601 132.915 408.901 133.315 407.701C133.515 407.101 133.815 406.501 134.215 405.801C134.415 405.501 134.715 405.201 135.015 404.901C135.315 404.601 135.815 404.201 136.515 404.401C136.915 404.501 137.015 404.901 137.115 405.201C137.115 405.501 137.115 405.701 137.015 405.901C136.915 406.301 136.815 406.701 136.615 407.101C136.215 407.801 135.715 408.301 135.215 408.701C134.215 409.401 133.415 409.301 133.415 409.201C133.415 409.101 134.115 409.001 134.915 408.301C135.315 408.001 135.815 407.501 136.115 406.801C136.315 406.501 136.415 406.101 136.415 405.801C136.515 405.401 136.415 405.001 136.315 405.001C136.115 404.901 135.715 405.101 135.515 405.401C135.215 405.701 134.915 405.901 134.715 406.201C134.215 406.801 133.915 407.301 133.715 407.801C133.315 408.801 133.315 409.601 133.115 409.601Z" fill="#263238"/>
<path d="M174.415 335.801L193.315 368.601L208.715 358.701L189.815 325.301L174.415 335.801Z" fill="#B78876"/>
<path d="M203.415 349.301L213.215 366.101C213.215 366.101 233.615 361.801 235.715 364.801L203.815 384.901L187.515 359.301L203.415 349.301Z" fill="#455A64"/>
<path d="M202.415 371C201.915 371.6 201.915 372.5 202.415 373.1C202.915 373.6 203.915 373.6 204.415 373.1C204.915 372.6 204.915 371.4 204.415 370.9C203.815 370.4 202.715 370.5 202.315 371.2" fill="#E0E0E0"/>
<path d="M203.715 384.901L202.215 382.301L233.415 364.001C233.415 364.001 235.215 363.701 235.715 364.801L203.715 384.901Z" fill="#E0E0E0"/>
<path d="M213.615 365.601C213.715 365.801 213.015 366.301 212.515 367.301C212.015 368.301 212.115 369.201 211.915 369.201C211.715 369.301 211.415 368.201 212.015 367.001C212.515 365.901 213.515 365.501 213.615 365.601Z" fill="#263238"/>
<path d="M217.814 364.9C217.914 365 217.414 365.7 217.314 366.7C217.214 367.7 217.514 368.5 217.314 368.6C217.214 368.7 216.514 367.9 216.714 366.6C216.814 365.4 217.714 364.8 217.814 364.9Z" fill="#263238"/>
<path d="M222.215 367.7C222.115 367.8 221.415 367.2 221.215 366.1C221.115 365 221.615 364.2 221.715 364.3C221.915 364.4 221.715 365.1 221.815 366C222.015 366.9 222.415 367.6 222.215 367.7Z" fill="#263238"/>
<path d="M210.915 362C210.915 362.2 210.115 362.4 209.215 363C208.315 363.6 207.815 364.3 207.715 364.2C207.515 364.1 207.815 363.1 208.815 362.4C209.915 361.8 210.915 361.9 210.915 362Z" fill="#263238"/>
<path d="M208.914 358.701C208.914 358.801 208.414 359.201 207.314 359.701C206.814 359.901 206.114 360.101 205.314 360.201C204.914 360.301 204.514 360.301 204.114 360.301C203.914 360.301 203.714 360.301 203.414 360.201C203.114 360.101 202.814 359.801 202.814 359.401C202.814 359.101 203.014 358.801 203.314 358.601C203.514 358.401 203.814 358.401 204.014 358.301C204.414 358.201 204.814 358.101 205.214 358.001C206.014 357.901 206.714 357.901 207.314 358.001C208.514 358.201 209.114 358.601 209.114 358.701C209.114 358.801 208.414 358.501 207.314 358.401C206.714 358.401 206.114 358.401 205.414 358.501C205.014 358.601 204.714 358.701 204.314 358.801C203.914 358.901 203.614 359.101 203.614 359.301C203.614 359.401 203.614 359.401 203.714 359.501C203.814 359.501 204.014 359.501 204.214 359.601C204.614 359.601 205.014 359.601 205.314 359.601C206.014 359.501 206.714 359.401 207.214 359.201C208.214 358.901 208.814 358.601 208.914 358.701Z" fill="#263238"/>
<path d="M208.814 359C208.814 359.1 208.114 358.7 207.414 357.7C207.114 357.2 206.714 356.6 206.514 355.8C206.414 355.4 206.314 355 206.314 354.6C206.314 354.2 206.314 353.6 206.814 353.2C207.114 353 207.514 353.1 207.714 353.2C207.914 353.3 208.114 353.5 208.214 353.7C208.514 354 208.714 354.4 208.914 354.8C209.214 355.5 209.314 356.3 209.314 356.9C209.214 358.1 208.714 358.7 208.614 358.7C208.514 358.7 208.914 358 208.814 356.9C208.814 356.4 208.714 355.7 208.414 355.1C208.214 354.8 208.014 354.5 207.814 354.2C207.514 353.9 207.214 353.7 207.114 353.8C206.914 353.9 206.814 354.3 206.914 354.7C206.914 355.1 207.014 355.5 207.014 355.8C207.214 356.5 207.414 357.1 207.714 357.6C208.414 358.5 208.914 359 208.814 359Z" fill="#263238"/>
<path d="M118.115 331.1L155.215 305.9L178.615 351.5L199.915 340C199.915 340 175.415 280.2 166.615 278.3C161.715 277.2 105.115 288 105.115 288L98.8145 284.8L82.8145 282.9L81.8145 285.5C76.2145 299.8 76.8145 315.8 83.6145 329.6L84.4145 331.2H118.115V331.1Z" fill="#263238"/>
<path d="M105.115 299.601C105.415 300.901 136.115 329.601 136.115 329.601L118.315 389.001L144.715 394.101L171.215 322.401L122.715 274.801L100.615 284.101L105.115 299.601Z" fill="#263238"/>
<path d="M155.215 305.901C155.315 306.001 147.015 311.801 136.815 318.701C126.515 325.701 118.215 331.201 118.115 331.101C118.015 331.001 126.315 325.201 136.515 318.301C146.815 311.301 155.115 305.801 155.215 305.901Z" fill="#455A64"/>
<path d="M174.314 343C174.314 343 174.014 342.5 173.414 341.6C172.814 340.7 172.114 339.4 171.214 337.7C169.414 334.4 166.914 329.8 164.314 324.7C161.714 319.6 159.414 314.9 157.814 311.5C157.014 309.8 156.414 308.4 155.914 307.4C155.514 306.4 155.214 305.9 155.314 305.9C155.314 305.9 155.614 306.4 156.114 307.3C156.614 308.3 157.314 309.7 158.114 311.3C159.814 314.7 162.214 319.4 164.714 324.5C167.314 329.6 169.714 334.3 171.514 337.6C172.414 339.2 173.114 340.5 173.614 341.5C174.114 342.4 174.314 343 174.314 343Z" fill="#455A64"/>
<path d="M141.615 318.9C141.715 319 140.515 321.8 138.815 325.3C137.115 328.8 135.615 331.5 135.515 331.4C135.415 331.3 136.615 328.5 138.315 325C140.015 321.6 141.515 318.9 141.615 318.9Z" fill="#455A64"/>
<path d="M58.5147 261.5L52.5147 283.7C51.7147 286.6 52.1147 289.6 53.5147 292.2C56.0147 296.8 61.3147 299.2 66.4147 298L113.915 286.3L108.915 276.4L71.4147 279.6L75.4147 264.4L58.5147 261.5Z" fill="#B78876"/>
<path d="M79.6147 295.101L80.2147 291.901L106.015 287.201L113.415 247.501L161.315 241.801L153.315 284.201L79.6147 295.101Z" fill="#455A64"/>
<path d="M134.915 268.901C133.615 268.701 132.915 267.301 133.115 265.801C133.415 264.401 134.615 263.401 135.915 263.601C137.215 263.801 137.915 265.201 137.715 266.701C137.415 268.201 136.215 269.201 134.915 268.901Z" fill="#EBEBEB"/>
<path d="M86.6147 181.2L86.7147 184.1L87.8147 227.1C87.9147 232.1 92.3147 236 97.7147 235.8C103.115 235.6 107.415 231.4 107.415 226.3C107.415 221 107.415 215.4 107.415 215.4C107.415 215.4 114.215 214.2 115.515 205.3C116.215 200.9 115.815 193.6 115.415 187.7C115.015 182.4 110.215 178.4 104.915 179.1L86.6147 181.2Z" fill="#B78876"/>
<path d="M111.915 192.601C111.915 193.201 111.415 193.701 110.815 193.801C110.215 193.801 109.615 193.401 109.615 192.801C109.615 192.201 110.115 191.701 110.715 191.601C111.315 191.601 111.815 192.001 111.915 192.601Z" fill="#263238"/>
<path d="M113.815 191.4C113.715 191.6 112.815 190.9 111.615 190.9C110.415 190.9 109.515 191.5 109.315 191.4C109.215 191.3 109.415 191.1 109.815 190.8C110.215 190.5 110.815 190.2 111.615 190.2C112.415 190.2 113.015 190.5 113.415 190.8C113.715 191.1 113.915 191.4 113.815 191.4Z" fill="#263238"/>
<path d="M99.715 193.101C99.715 193.701 99.215 194.201 98.615 194.301C98.015 194.301 97.415 193.901 97.415 193.301C97.415 192.701 97.915 192.201 98.515 192.101C99.215 192.001 99.715 192.501 99.715 193.101Z" fill="#263238"/>
<path d="M101.715 191.801C101.615 192.001 100.715 191.301 99.5149 191.301C98.3149 191.301 97.4149 191.901 97.2149 191.801C97.1149 191.701 97.3149 191.501 97.7149 191.201C98.1149 190.901 98.7149 190.601 99.5149 190.601C100.315 190.601 100.915 190.901 101.315 191.201C101.715 191.501 101.815 191.801 101.715 191.801Z" fill="#263238"/>
<path d="M106.315 200.9C106.315 200.8 107.115 200.7 108.315 200.5C108.615 200.5 108.915 200.4 109.015 200.2C109.115 200 108.915 199.6 108.815 199.3C108.515 198.5 108.215 197.8 107.815 196.9C106.515 193.5 105.515 190.7 105.615 190.7C105.715 190.6 106.915 193.3 108.315 196.7C108.615 197.5 108.915 198.3 109.215 199.1C109.315 199.5 109.515 199.9 109.415 200.3C109.315 200.5 109.115 200.7 108.915 200.8C108.715 200.9 108.515 200.9 108.415 200.9C107.115 200.9 106.315 200.9 106.315 200.9Z" fill="#263238"/>
<path d="M107.315 215.4C107.315 215.4 101.315 215.9 95.3149 212.4C95.3149 212.4 98.3149 218.5 107.215 217.5L107.315 215.4Z" fill="#AA6550"/>
<path d="M102.215 189.8C102.115 190.1 100.815 189.9 99.4148 190C97.9148 190.1 96.8148 190.4 96.6148 190.1C96.5148 190 96.7148 189.6 97.2148 189.3C97.7148 189 98.4148 188.7 99.3148 188.7C100.215 188.6 101.015 188.8 101.515 189.1C102.015 189.4 102.315 189.6 102.215 189.8Z" fill="#263238"/>
<path d="M113.315 187.2C113.115 187.5 112.215 187.2 111.215 187.2C110.215 187.2 109.315 187.4 109.115 187.1C109.015 187 109.115 186.7 109.515 186.4C109.915 186.1 110.515 185.9 111.215 185.9C111.915 185.9 112.515 186.2 112.915 186.4C113.315 186.8 113.415 187 113.315 187.2Z" fill="#263238"/>
<path d="M106.115 205.3C105.815 205.4 105.415 205.3 105.015 205.2C104.715 205.1 104.315 205 104.015 204.9C103.715 204.8 103.415 204.7 103.115 204.6C102.815 204.5 102.415 204.3 102.215 204C102.015 203.7 102.015 203.2 102.515 202.8C103.015 202.4 103.915 202.1 104.915 202.4C105.915 202.7 106.415 203.5 106.615 204.1C106.715 204.8 106.515 205.2 106.115 205.3Z" fill="#AA6550"/>
<path d="M106.315 205.2C106.215 205.3 105.615 204.1 104.115 203.7C102.715 203.3 101.515 204.1 101.515 204C101.515 204 101.715 203.7 102.115 203.4C102.615 203.2 103.415 203 104.215 203.2C105.015 203.4 105.615 204 105.915 204.4C106.315 204.9 106.415 205.2 106.315 205.2Z" fill="#263238"/>
<path d="M96.9147 175.4C99.7147 179.6 99.0147 185.9 95.3147 189.4C93.2147 191.4 90.0147 192.9 89.8147 195.8C89.6147 199 93.3147 201.4 93.3147 204.6C93.3147 207.9 89.5147 210 88.7147 213.2C88.1147 215.8 89.7147 218.4 91.5147 220.4C93.3147 222.4 95.5147 224.1 96.5147 226.5C97.7147 229.2 97.4147 232.4 96.2147 235.1C95.0147 237.8 93.1147 240.1 91.2147 242.3C88.5147 241.3 85.8147 240.7 83.0147 240.5C83.2147 239.4 83.4147 238.4 83.5147 237.3C83.6147 238.5 82.5147 239.6 81.3147 240C80.1147 240.4 78.8147 240.2 77.6147 240C73.9147 239.4 70.2147 238.5 66.6147 237.2C68.1147 235.7 69.7147 234.1 70.6147 232.2C71.5147 230.3 71.8147 227.9 70.7147 226C69.8147 224.5 68.2147 223.5 67.4147 222C66.2147 219.7 67.2147 216.8 68.9147 214.8C70.6147 212.9 73.0147 211.6 75.0147 210C77.0147 208.4 78.9147 206.2 79.1147 203.6C79.3147 200.2 76.6147 197.2 76.9147 193.8C77.3147 190 81.3147 187.6 82.9147 184.1C84.0147 181.6 83.9147 178.4 85.7147 176.3C87.0147 174.7 89.2147 174 91.2147 174.1C93.3147 174.2 95.2147 175 97.0147 176.1" fill="#263238"/>
<path d="M108.015 216.4C106.415 217.3 106.515 219.7 107.515 221.3C108.515 222.9 110.115 224 111.015 225.5C112.715 228.3 112.015 232.3 109.415 234.3L113.215 235.8L114.015 235.3L116.415 234L115.315 236.7H117.815C120.415 236.7 122.915 235.2 124.115 232.9C125.315 230.6 125.115 227.6 123.615 225.5C122.615 224.1 121.015 223 120.715 221.3C120.315 219.3 121.815 217.4 122.615 215.5C123.915 212.3 122.715 208.2 119.915 206.2" fill="#263238"/>
<path d="M32.3141 135.4C32.7141 135.6 33.1141 136.1 33.1141 136.6V143.3C33.1141 143.7 32.9141 144.1 32.6141 144.4C32.3141 144.7 31.8141 144.7 31.4141 144.6C30.3141 144.3 29.2141 144.5 28.1141 145.1C27.2141 145.7 26.5141 146.5 26.3141 147.5C26.1141 148.4 26.4141 149.5 27.0141 150.4C27.7141 151.4 28.7141 152.1 29.7141 152.2C31.8141 152.5 34.2141 151 34.9141 148.8C35.1141 148.1 35.9141 147.7 36.6141 147.9C37.3141 148.1 37.7141 148.9 37.5141 149.6C36.4141 153 32.7141 155.4 29.3141 154.8C27.5141 154.5 25.9141 153.4 24.8141 151.9C23.8141 150.4 23.4141 148.6 23.7141 146.9C24.0141 145.2 25.1141 143.7 26.7141 142.8C27.8141 142.1 29.1141 141.8 30.4141 141.8V136.7C30.4141 136 31.0141 135.4 31.7141 135.4C31.9141 135.3 32.1141 135.4 32.3141 135.4Z" fill="#4D5AF2"/>
<path d="M30.4141 132.6C30.4141 132 30.9141 131.5 31.5141 131.5C32.1141 131.5 32.6141 132 32.6141 132.6C32.6141 133.2 32.1141 133.7 31.5141 133.7C30.9141 133.7 30.4141 133.2 30.4141 132.6Z" fill="#4D5AF2"/>
<path d="M63.1141 168.301C63.1141 168.301 62.8141 168.401 62.2141 168.601C61.7141 168.801 60.9141 169.301 60.3141 170.201C60.0141 170.601 59.8141 171.201 59.7141 171.801C59.6141 172.401 59.7141 173.101 60.0141 173.701C60.6141 174.901 62.0141 176.001 63.6141 175.901C65.2141 175.801 66.5141 174.601 66.9141 173.301C67.1141 172.701 67.1141 172.001 67.0141 171.401C66.9141 170.801 66.6141 170.301 66.2141 169.901C65.5141 169.101 64.7141 168.701 64.2141 168.501C63.6141 168.301 63.3141 168.401 63.3141 168.301C63.3141 168.301 63.4141 168.301 63.5141 168.301C63.6141 168.301 63.7141 168.301 63.8141 168.301C63.9141 168.301 64.1141 168.301 64.2141 168.401C64.8141 168.501 65.6141 168.901 66.4141 169.701C66.8141 170.101 67.1141 170.601 67.2141 171.301C67.4141 171.901 67.4141 172.701 67.1141 173.301C66.9141 174.001 66.4141 174.701 65.8141 175.201C65.2141 175.701 64.4141 176.101 63.6141 176.101C62.7141 176.101 61.9141 175.901 61.3141 175.401C60.6141 175.001 60.1141 174.401 59.8141 173.701C59.5141 173.001 59.4141 172.301 59.5141 171.701C59.6141 171.101 59.8141 170.501 60.1141 170.001C60.7141 169.101 61.5141 168.601 62.1141 168.401C62.2141 168.301 62.4141 168.301 62.5141 168.301C62.6141 168.301 62.7141 168.301 62.8141 168.301C63.0141 168.301 63.1141 168.301 63.1141 168.301Z" fill="#263238"/>
<path d="M72.8142 178C72.8142 178 72.6142 178 72.3142 178.2C72.0142 178.3 71.5142 178.6 71.2142 179.2C70.9142 179.7 70.7142 180.6 71.1142 181.3C71.5142 182 72.3142 182.7 73.3142 182.6C74.3142 182.5 75.1142 181.8 75.3142 181C75.6142 180.2 75.3142 179.4 74.9142 178.9C74.5142 178.4 74.0142 178.1 73.6142 178C73.2142 177.9 73.0142 177.9 73.0142 177.9C73.0142 177.9 73.2142 177.8 73.6142 177.9C74.0142 178 74.5142 178.2 75.0142 178.7C75.2142 179 75.4142 179.3 75.5142 179.7C75.6142 180.1 75.6142 180.6 75.4142 181C75.1142 181.9 74.3142 182.7 73.1142 182.8C72.0142 182.9 71.0142 182.1 70.6142 181.3C70.4142 180.9 70.3142 180.4 70.4142 180C70.5142 179.6 70.6142 179.2 70.8142 178.9C71.2142 178.3 71.7142 178 72.1142 177.9C72.6142 177.9 72.8142 178 72.8142 178Z" fill="#263238"/>
<path d="M61.4141 148.5C61.4141 148.5 61.4141 148.3 61.4141 148C61.4141 147.7 61.4141 147.2 61.4141 146.5C61.4141 146.2 61.4141 145.8 61.4141 145.4C61.4141 145 61.3141 144.6 61.3141 144.1C61.3141 143.6 61.2141 143.1 61.2141 142.6C61.2141 142.3 61.1141 142.1 61.1141 141.8C61.0141 141.5 61.0141 141.2 60.9141 140.9C60.5141 138.5 59.7141 135.6 58.1141 132.5C56.6141 129.4 54.2141 126.1 51.0141 123.2C50.6141 122.8 50.2141 122.5 49.7141 122.1C49.3141 121.8 48.8141 121.4 48.3141 121.1C48.1141 120.9 47.8141 120.8 47.6141 120.6C47.4141 120.4 47.1141 120.3 46.9141 120.1C46.4141 119.8 45.9141 119.5 45.4141 119.2C45.1141 119.1 44.9141 118.9 44.6141 118.8C44.3141 118.7 44.0141 118.5 43.8141 118.4C43.2141 118.1 42.7141 117.9 42.1141 117.6C41.5141 117.4 40.9141 117.2 40.3141 117C40.0141 116.9 39.7141 116.8 39.4141 116.7C39.2141 116.7 39.1141 116.6 38.9141 116.5L38.4141 116.4C37.1141 116.1 35.9141 115.8 34.6141 115.6C33.9141 115.5 33.3141 115.4 32.6141 115.4C31.9141 115.4 31.2141 115.4 30.6141 115.3C30.3141 115.3 29.9141 115.3 29.6141 115.3C29.3141 115.3 28.9141 115.4 28.6141 115.4C27.9141 115.5 27.2141 115.5 26.5141 115.6C25.1141 115.9 23.7141 116 22.3141 116.5C22.0141 116.6 21.6141 116.7 21.3141 116.8C21.1141 116.9 20.9141 116.9 20.8141 117L20.3141 117.2C19.6141 117.5 18.9141 117.7 18.2141 118C17.5141 118.3 16.9141 118.7 16.2141 119C15.9141 119.2 15.5141 119.3 15.2141 119.5L14.2141 120.1C12.9141 120.9 11.7141 121.8 10.5141 122.8C9.91411 123.3 9.41411 123.9 8.81411 124.4L8.41411 124.8C8.31411 124.9 8.11411 125.1 8.01411 125.2L7.31411 126L6.61411 126.9L5.91411 127.9L5.21411 128.9L4.91411 129.4C4.81411 129.6 4.71411 129.7 4.61411 129.9C4.21411 130.6 3.81411 131.3 3.41411 132C3.11411 132.7 2.71411 133.5 2.41411 134.2C1.21411 137.2 0.414113 140.4 0.114113 143.8C-0.0858865 147.1 0.214113 150.4 0.914113 153.6C1.11411 154.4 1.31411 155.2 1.61411 155.9C1.91411 156.7 2.21411 157.4 2.51411 158.1L2.71411 158.7L3.01411 159.2L3.51411 160.3L4.01411 161.4L4.61411 162.4L5.21411 163.4L5.51411 163.9L5.91411 164.4C6.41411 165 6.91411 165.6 7.31411 166.2C8.41411 167.3 9.41411 168.5 10.5141 169.4L11.4141 170.1C11.7141 170.4 12.0141 170.5 12.3141 170.8C12.9141 171.2 13.5141 171.7 14.1141 172.1C14.7141 172.5 15.4141 172.8 16.0141 173.2L16.5141 173.5C16.7141 173.6 16.8141 173.7 17.0141 173.7C17.3141 173.9 17.7141 174 18.0141 174.2C19.3141 174.9 20.7141 175.2 22.0141 175.7C22.7141 175.9 23.4141 176 24.0141 176.2C24.3141 176.3 24.7141 176.4 25.0141 176.4C25.3141 176.5 25.7141 176.5 26.0141 176.5C26.7141 176.6 27.4141 176.7 28.0141 176.8C28.7141 176.9 29.3141 176.8 30.0141 176.9C31.3141 177 32.6141 176.8 33.9141 176.8H34.4141C34.6141 176.8 34.7141 176.7 34.9141 176.7C35.2141 176.6 35.5141 176.6 35.8141 176.5C36.4141 176.4 37.0141 176.3 37.6141 176.2C38.2141 176 38.8141 175.9 39.4141 175.7C39.7141 175.6 40.0141 175.5 40.3141 175.5C40.6141 175.4 40.9141 175.3 41.1141 175.2C41.7141 175 42.2141 174.8 42.8141 174.6C43.1141 174.5 43.3141 174.4 43.6141 174.2C43.9141 174.1 44.1141 173.9 44.4141 173.8C44.9141 173.5 45.4141 173.3 45.9141 173C46.4141 172.7 46.8141 172.4 47.3141 172.1C51.0141 169.7 53.8141 166.8 55.8141 164C56.1141 163.6 56.3141 163.3 56.5141 163C56.7141 162.6 56.9141 162.3 57.1141 161.9C57.3141 161.6 57.5141 161.2 57.7141 160.9C57.8141 160.7 57.9141 160.6 58.0141 160.4C58.1141 160.2 58.2141 160.1 58.2141 159.9C58.5141 159.2 58.8141 158.6 59.1141 158C59.4141 157.4 59.5141 156.8 59.8141 156.2C59.9141 155.9 60.0141 155.6 60.1141 155.4C60.2141 155.1 60.3141 154.9 60.3141 154.6C60.4141 154.1 60.5141 153.6 60.7141 153.1C60.8141 152.6 60.9141 152.2 61.0141 151.8C61.1141 151.4 61.1141 151 61.1141 150.7C61.2141 150.1 61.3141 149.6 61.3141 149.2C61.4141 148.6 61.4141 148.5 61.4141 148.5C61.4141 148.5 61.4141 148.7 61.4141 149C61.4141 149.3 61.3141 149.8 61.2141 150.5C61.2141 150.8 61.1141 151.2 61.1141 151.6C61.0141 152 60.9141 152.4 60.8141 152.9C60.7141 153.4 60.6141 153.9 60.5141 154.4C60.4141 154.7 60.4141 154.9 60.3141 155.2C60.2141 155.5 60.1141 155.8 60.0141 156C59.8141 156.6 59.6141 157.2 59.4141 157.8C59.1141 158.4 58.8141 159.1 58.5141 159.8C58.4141 160 58.3141 160.1 58.3141 160.3C58.2141 160.5 58.1141 160.6 58.0141 160.8C57.8141 161.1 57.6141 161.5 57.4141 161.8C57.2141 162.2 57.0141 162.5 56.8141 162.9C56.6141 163.2 56.3141 163.6 56.1141 164C54.1141 166.9 51.3141 169.8 47.6141 172.2C47.1141 172.5 46.7141 172.8 46.2141 173.1C45.7141 173.4 45.2141 173.6 44.7141 173.9C44.4141 174 44.2141 174.2 43.9141 174.3C43.6141 174.4 43.4141 174.6 43.1141 174.7C42.6141 174.9 42.0141 175.1 41.4141 175.3C41.1141 175.4 40.8141 175.5 40.6141 175.6C40.3141 175.7 40.0141 175.8 39.7141 175.8C39.1141 176 38.5141 176.1 37.9141 176.3C37.3141 176.5 36.7141 176.5 36.0141 176.7C35.7141 176.8 35.4141 176.8 35.1141 176.9C34.9141 176.9 34.8141 177 34.6141 177H34.1141C32.8141 177.1 31.5141 177.3 30.2141 177.2C29.5141 177.2 28.9141 177.2 28.2141 177.1C27.5141 177 26.8141 176.9 26.2141 176.8C25.9141 176.7 25.5141 176.7 25.2141 176.7C24.9141 176.6 24.5141 176.5 24.2141 176.5C23.5141 176.3 22.8141 176.2 22.1141 176C20.8141 175.5 19.4141 175.1 18.1141 174.5C17.8141 174.3 17.4141 174.2 17.1141 174C16.9141 173.9 16.8141 173.9 16.6141 173.8L16.1141 173.5C15.5141 173.1 14.8141 172.8 14.2141 172.4C13.6141 172 13.0141 171.5 12.4141 171.1C12.1141 170.9 11.8141 170.7 11.5141 170.4L10.6141 169.6C9.41411 168.6 8.41411 167.5 7.31411 166.3C6.81411 165.7 6.31411 165.1 5.91411 164.4L5.51411 163.9L5.21411 163.4L4.61411 162.4L4.01411 161.4L3.51411 160.3L3.01411 159.2L2.71411 158.7L2.51411 158.1C2.21411 157.3 1.91411 156.6 1.61411 155.8C1.41411 155 1.21411 154.2 0.914113 153.4C0.114113 150.2 -0.185887 146.9 0.114113 143.5C0.414113 140.1 1.21411 136.9 2.51411 133.9C2.81411 133.2 3.21411 132.4 3.51411 131.7C3.91411 131 4.31411 130.3 4.71411 129.6C4.81411 129.4 4.91411 129.2 5.01411 129.1L5.41411 128.6L6.11411 127.6L6.81411 126.6L7.61411 125.7L8.41411 124.8C8.51411 124.7 8.71411 124.5 8.81411 124.4L9.21411 124C9.81411 123.5 10.3141 122.9 10.9141 122.4C12.1141 121.4 13.3141 120.5 14.6141 119.7L15.6141 119.1C15.9141 118.9 16.3141 118.7 16.6141 118.6C17.3141 118.3 17.9141 117.9 18.6141 117.6C19.3141 117.3 20.0141 117.1 20.7141 116.8L21.2141 116.6C21.4141 116.5 21.6141 116.5 21.7141 116.4C22.1141 116.3 22.4141 116.2 22.8141 116.1C24.2141 115.6 25.6141 115.5 27.0141 115.2C27.7141 115.1 28.4141 115.1 29.1141 115C29.4141 115 29.8141 114.9 30.1141 114.9C30.4141 114.9 30.8141 114.9 31.1141 114.9C31.8141 114.9 32.5141 114.9 33.2141 115C33.9141 115 34.5141 115.2 35.2141 115.2C36.5141 115.3 37.8141 115.7 39.1141 116L39.6141 116.1C39.8141 116.1 39.9141 116.2 40.1141 116.3C40.4141 116.4 40.7141 116.5 41.0141 116.6C41.6141 116.8 42.2141 117 42.8141 117.2C43.4141 117.5 43.9141 117.7 44.5141 118C44.8141 118.1 45.1141 118.3 45.3141 118.4C45.6141 118.5 45.8141 118.7 46.1141 118.9C46.6141 119.2 47.1141 119.5 47.6141 119.8C47.9141 119.9 48.1141 120.1 48.3141 120.3C48.5141 120.5 48.8141 120.6 49.0141 120.8C49.5141 121.1 49.9141 121.5 50.4141 121.8C50.8141 122.2 51.2141 122.5 51.7141 122.9C55.0141 125.8 57.3141 129.2 58.8141 132.3C60.3141 135.4 61.2141 138.4 61.5141 140.8C61.6141 141.1 61.6141 141.4 61.7141 141.7C61.8141 142 61.8141 142.3 61.8141 142.5C61.8141 143 61.9141 143.6 61.9141 144C61.9141 144.5 62.0141 144.9 62.0141 145.3C62.0141 145.7 62.0141 146.1 62.0141 146.4C62.0141 147 62.0141 147.5 61.9141 147.9C61.5141 148.3 61.4141 148.5 61.4141 148.5Z" fill="#263238"/>
<path d="M402.214 0.299805H195.814V313.7H402.214V0.299805Z" fill="white"/>
<path d="M401.914 16.2002H195.414V151.1H401.914V16.2002Z" fill="#F5F5F5"/>
<path d="M245.814 170.1V173.2H250.214V174.3H245.814V177.9H244.614V169H250.814V170.1H245.814Z" fill="#263238"/>
<path d="M251.514 174.501C251.514 172.501 253.014 171.101 255.014 171.101C257.014 171.101 258.514 172.501 258.514 174.501C258.514 176.501 257.014 177.901 255.014 177.901C253.014 177.901 251.514 176.501 251.514 174.501ZM257.214 174.501C257.214 173.101 256.214 172.201 255.014 172.201C253.714 172.201 252.714 173.101 252.714 174.501C252.714 175.901 253.714 176.901 255.014 176.901C256.314 176.801 257.214 175.901 257.214 174.501Z" fill="#263238"/>
<path d="M263.714 171.101V172.301C263.614 172.301 263.514 172.301 263.414 172.301C262.114 172.301 261.314 173.101 261.314 174.601V177.901H260.114V171.201H261.314V172.301C261.714 171.501 262.614 171.101 263.714 171.101Z" fill="#263238"/>
<path d="M271.514 171.101V176.901C271.514 179.301 270.314 180.301 268.014 180.301C266.814 180.301 265.514 180.001 264.814 179.301L265.414 178.401C266.014 178.901 267.014 179.301 268.014 179.301C269.614 179.301 270.314 178.601 270.314 177.101V176.601C269.714 177.301 268.914 177.601 267.914 177.601C266.014 177.601 264.514 176.301 264.514 174.401C264.514 172.501 266.014 171.201 267.914 171.201C268.914 171.201 269.814 171.601 270.414 172.301V171.301H271.514V171.101ZM270.314 174.301C270.314 173.001 269.314 172.101 268.014 172.101C266.714 172.101 265.714 173.001 265.714 174.301C265.714 175.601 266.714 176.501 268.014 176.501C269.414 176.501 270.314 175.601 270.314 174.301Z" fill="#263238"/>
<path d="M273.214 174.501C273.214 172.501 274.714 171.101 276.714 171.101C278.714 171.101 280.214 172.501 280.214 174.501C280.214 176.501 278.714 177.901 276.714 177.901C274.714 177.901 273.214 176.501 273.214 174.501ZM278.914 174.501C278.914 173.101 277.914 172.201 276.714 172.201C275.414 172.201 274.414 173.101 274.414 174.501C274.414 175.901 275.414 176.901 276.714 176.901C278.014 176.801 278.914 175.901 278.914 174.501Z" fill="#263238"/>
<path d="M285.514 177.401C285.114 177.701 284.614 177.901 284.014 177.901C282.714 177.901 281.914 177.201 281.914 175.801V172.101H280.814V171.101H281.914V169.601H283.114V171.101H285.014V172.101H283.114V175.701C283.114 176.401 283.514 176.801 284.114 176.801C284.514 176.801 284.814 176.701 285.014 176.501L285.514 177.401Z" fill="#263238"/>
<path d="M297.314 174.501C297.314 176.501 295.914 177.901 293.914 177.901C293.014 177.901 292.114 177.501 291.614 176.801V180.201H290.414V171.101H291.614V172.201C292.114 171.501 293.014 171.101 294.014 171.101C295.914 171.101 297.314 172.401 297.314 174.501ZM296.114 174.501C296.114 173.101 295.114 172.201 293.814 172.201C292.514 172.201 291.614 173.101 291.614 174.501C291.614 175.901 292.614 176.901 293.814 176.901C295.114 176.801 296.114 175.901 296.114 174.501Z" fill="#263238"/>
<path d="M304.214 173.801V177.801H303.114V176.901C302.714 177.501 302.014 177.901 300.914 177.901C299.414 177.901 298.414 177.101 298.414 175.901C298.414 174.801 299.114 174.001 301.114 174.001H303.014V173.801C303.014 172.801 302.414 172.201 301.214 172.201C300.414 172.201 299.614 172.501 299.114 172.901L298.614 172.001C299.314 171.401 300.314 171.101 301.414 171.101C303.214 171.101 304.214 172.001 304.214 173.801ZM303.014 175.801V174.901H301.114C299.914 174.901 299.614 175.401 299.614 175.901C299.614 176.601 300.214 177.001 301.114 177.001C302.014 177.001 302.714 176.501 303.014 175.801Z" fill="#263238"/>
<path d="M305.614 177.1L306.114 176.1C306.714 176.5 307.614 176.8 308.414 176.8C309.514 176.8 310.014 176.5 310.014 175.9C310.014 174.4 305.814 175.7 305.814 173C305.814 171.8 306.914 171 308.614 171C309.514 171 310.414 171.2 311.014 171.6L310.514 172.6C309.914 172.2 309.214 172.1 308.614 172.1C307.514 172.1 307.014 172.5 307.014 173C307.014 174.6 311.214 173.3 311.214 175.9C311.214 177.1 310.114 177.9 308.314 177.9C307.214 177.9 306.114 177.5 305.614 177.1Z" fill="#263238"/>
<path d="M311.914 177.1L312.414 176.1C313.014 176.5 313.914 176.8 314.714 176.8C315.814 176.8 316.314 176.5 316.314 175.9C316.314 174.4 312.114 175.7 312.114 173C312.114 171.8 313.214 171 314.914 171C315.814 171 316.714 171.2 317.314 171.6L316.814 172.6C316.214 172.2 315.514 172.1 314.914 172.1C313.814 172.1 313.314 172.5 313.314 173C313.314 174.6 317.514 173.3 317.514 175.9C317.514 177.1 316.414 177.9 314.614 177.9C313.514 177.9 312.414 177.5 311.914 177.1Z" fill="#263238"/>
<path d="M329.014 171.101L326.514 177.801H325.314L323.414 172.701L321.514 177.801H320.314L317.814 171.101H318.914L320.814 176.401L322.814 171.101H323.814L325.814 176.401L327.814 171.101H329.014Z" fill="#263238"/>
<path d="M329.414 174.501C329.414 172.501 330.914 171.101 332.914 171.101C334.914 171.101 336.414 172.501 336.414 174.501C336.414 176.501 334.914 177.901 332.914 177.901C330.914 177.901 329.414 176.501 329.414 174.501ZM335.114 174.501C335.114 173.101 334.114 172.201 332.914 172.201C331.614 172.201 330.614 173.101 330.614 174.501C330.614 175.901 331.614 176.901 332.914 176.901C334.214 176.801 335.114 175.901 335.114 174.501Z" fill="#263238"/>
<path d="M341.614 171.101V172.301C341.514 172.301 341.414 172.301 341.314 172.301C340.014 172.301 339.214 173.101 339.214 174.601V177.901H338.014V171.201H339.214V172.301C339.614 171.501 340.414 171.101 341.614 171.101Z" fill="#263238"/>
<path d="M349.314 168.5V177.8H348.114V176.7C347.614 177.5 346.714 177.8 345.714 177.8C343.814 177.8 342.314 176.4 342.314 174.4C342.314 172.4 343.714 171 345.714 171C346.614 171 347.514 171.4 348.014 172.1V168.4H349.314V168.5ZM348.114 174.5C348.114 173.1 347.114 172.2 345.914 172.2C344.614 172.2 343.614 173.1 343.614 174.5C343.614 175.9 344.614 176.9 345.914 176.9C347.114 176.8 348.114 175.9 348.114 174.5Z" fill="#263238"/>
<path d="M355.514 171.301C355.514 170.501 354.814 169.901 353.714 169.901C352.714 169.901 352.014 170.301 351.414 170.901L350.514 170.201C351.214 169.301 352.314 168.801 353.814 168.801C355.614 168.801 356.814 169.601 356.814 171.001C356.814 173.101 354.614 173.201 354.614 174.901H353.314C353.314 173.101 355.514 172.801 355.514 171.301ZM353.114 177.101C353.114 176.601 353.414 176.301 353.914 176.301C354.414 176.301 354.714 176.701 354.714 177.101C354.714 177.501 354.414 177.901 353.914 177.901C353.514 177.901 353.114 177.501 353.114 177.101Z" fill="#263238"/>
<path d="M380.614 195.9C380.614 196 345.214 196.2 301.614 196.2C258.014 196.2 222.614 196.1 222.614 195.9C222.614 195.8 258.014 195.6 301.614 195.6C345.314 195.6 380.614 195.7 380.614 195.9Z" fill="black"/>
<path d="M346.914 204.3C346.914 204.4 326.614 204.6 301.614 204.6C276.614 204.6 256.314 204.5 256.314 204.3C256.314 204.2 276.614 204 301.614 204C326.614 204.1 346.914 204.2 346.914 204.3Z" fill="black"/>
<path d="M332.614 97.2003C342.314 88.1003 342.914 72.9003 333.814 63.2003C324.714 53.5003 309.514 52.9003 299.814 62.0003C291.514 69.8003 289.914 82.0003 295.314 91.5003L290.414 96.1003L291.614 104.2L284.014 102.1L277.914 107.8L279.114 115.9L271.514 113.8L266.214 118.7L266.914 123.7L262.314 122.4L259.214 125.3L258.714 132.8L269.914 135.6L306.314 101.6C314.914 105.4 325.314 104 332.614 97.2003ZM329.114 67.6003C331.714 70.4003 331.614 74.8003 328.814 77.4003C326.014 80.0003 321.614 79.9003 319.014 77.1003C316.414 74.3003 316.514 69.9003 319.314 67.3003C322.114 64.7003 326.514 64.8003 329.114 67.6003Z" fill="#263238"/>
<path d="M329.114 67.5997C329.114 67.5997 328.614 67.1997 327.714 66.5997C326.814 65.9997 325.314 65.3997 323.414 65.5997C321.514 65.7997 319.314 66.9997 318.214 69.1997C317.014 71.3997 317.314 74.5997 319.314 76.6997C321.314 78.8997 324.514 79.2997 326.714 78.2997C329.014 77.2997 330.414 75.1997 330.714 73.2997C331.014 71.3997 330.514 69.7997 330.014 68.8997C329.514 68.0997 329.014 67.6997 329.114 67.5997C329.114 67.5997 329.214 67.6997 329.414 67.8997C329.614 68.0997 329.914 68.3997 330.214 68.8997C330.814 69.7997 331.414 71.4997 331.114 73.4997C330.814 75.4997 329.414 77.7997 326.914 78.8997C325.714 79.3997 324.214 79.5997 322.714 79.3997C321.214 79.0997 319.814 78.3997 318.814 77.1997C317.714 75.9997 317.114 74.5997 316.914 73.0997C316.714 71.5997 317.014 70.1997 317.714 68.9997C319.014 66.5997 321.414 65.2997 323.414 65.1997C325.414 64.9997 327.014 65.6997 327.914 66.3997C328.414 66.6997 328.714 66.9997 328.914 67.1997C329.014 67.4997 329.114 67.5997 329.114 67.5997Z" fill="#263238"/>
<path d="M332.614 97.2001C332.614 97.2001 332.514 97.3001 332.314 97.5001C332.014 97.7001 331.714 98.0001 331.214 98.4001C330.214 99.2001 328.714 100.3 326.514 101.4C324.314 102.4 321.414 103.4 317.914 103.7C314.414 104 310.314 103.5 306.214 101.7H306.414C297.014 110.5 284.514 122.2 270.014 135.8L269.914 135.9H269.814C266.314 135 262.514 134.1 258.614 133.1L258.414 133V132.8C258.514 130.5 258.714 127.9 258.914 125.3V125.2L259.014 125.1C260.014 124.2 261.014 123.2 262.114 122.2L262.214 122.1H262.414C263.814 122.5 265.414 122.9 267.014 123.4L266.614 123.7C266.414 122.2 266.114 120.5 265.914 118.7V118.5L266.014 118.4C267.714 116.9 269.514 115.2 271.314 113.5L271.414 113.4H271.614C274.014 114.1 276.614 114.8 279.214 115.5L278.814 115.8C278.414 113.2 278.014 110.5 277.614 107.7V107.5L277.714 107.4C278.214 106.9 278.814 106.4 279.314 105.9C280.814 104.5 282.314 103.1 283.814 101.7L283.914 101.6H284.114C286.714 102.3 289.214 103 291.714 103.7L291.314 104C290.914 101.3 290.514 98.6001 290.114 95.9001V95.7001L290.214 95.6001C291.914 94.1001 293.514 92.5001 295.114 91.0001L295.014 91.4001C293.114 88.0001 292.014 84.2001 291.914 80.4001C291.814 78.5001 291.914 76.6001 292.314 74.8001C292.614 73.0001 293.214 71.2001 293.914 69.6001C296.814 62.9001 302.614 58.1001 308.914 56.2001C315.214 54.2001 321.814 55.0001 326.914 57.6001C332.114 60.1001 335.814 64.4001 338.014 68.7001C340.114 73.1001 340.714 77.6001 340.414 81.3001C340.114 85.1001 338.914 88.2001 337.714 90.6001C337.514 90.9001 337.414 91.2001 337.314 91.5001C337.114 91.8001 337.014 92.0001 336.814 92.3001C336.514 92.8001 336.214 93.3001 335.914 93.7001C335.314 94.5001 334.814 95.2001 334.314 95.7001C333.814 96.2001 333.514 96.5001 333.214 96.8001C332.814 97.1001 332.614 97.2001 332.614 97.2001C332.614 97.2001 332.714 97.1001 333.014 96.8001C333.314 96.5001 333.614 96.1001 334.114 95.7001C334.614 95.2001 335.114 94.5001 335.714 93.7001C336.014 93.3001 336.314 92.8001 336.614 92.3001C336.814 92.1001 336.914 91.8001 337.114 91.5001C337.214 91.2001 337.414 90.9001 337.514 90.6001C338.714 88.3001 339.814 85.2001 340.114 81.4001C340.414 77.7001 339.814 73.3001 337.714 69.0001C335.614 64.8001 331.914 60.6001 326.814 58.2001C321.714 55.7001 315.314 55.0001 309.114 56.9001C303.014 58.8001 297.314 63.5001 294.514 70.1001C293.814 71.7001 293.214 73.4001 292.914 75.2001C292.514 77.0001 292.414 78.8001 292.514 80.6001C292.614 84.3001 293.714 88.0001 295.614 91.3001L295.714 91.5001L295.514 91.7001C293.914 93.2001 292.314 94.7001 290.614 96.3001L290.714 96.0001C291.114 98.7001 291.514 101.4 291.914 104.1L292.014 104.6L291.614 104.5C289.114 103.8 286.614 103.1 284.014 102.4L284.314 102.3C282.814 103.7 281.314 105.1 279.814 106.5C279.214 107 278.714 107.5 278.214 108L278.314 107.7C278.714 110.5 279.114 113.3 279.514 115.8L279.614 116.3L279.214 116.2C276.614 115.5 274.014 114.7 271.614 114.1L271.914 114C270.114 115.7 268.314 117.4 266.614 118.9L266.714 118.6C266.914 120.3 267.214 122 267.414 123.6L267.514 124L267.114 123.9C265.514 123.5 263.914 123 262.514 122.6L262.814 122.5C261.714 123.5 260.714 124.5 259.714 125.4L259.814 125.2C259.614 127.8 259.514 130.4 259.314 132.7L259.114 132.4C263.014 133.4 266.814 134.3 270.314 135.2L270.014 135.3C284.514 121.8 297.114 110.1 306.514 101.4L306.614 101.3H306.714C310.814 103.1 314.814 103.6 318.314 103.4C321.814 103.1 324.614 102.2 326.814 101.2C329.014 100.2 330.514 99.1001 331.514 98.3001C332.014 97.9001 332.314 97.6001 332.614 97.4001C332.514 97.3001 332.614 97.2001 332.614 97.2001Z" fill="#263238"/>
<path d="M331.814 94.5001C341.514 85.4001 342.114 70.2001 333.014 60.5001C323.914 50.8001 308.714 50.2001 299.014 59.3001C290.714 67.1001 289.114 79.3001 294.514 88.8001L289.614 93.4001L290.814 101.5L283.214 99.4001L277.114 105.1L278.314 113.2L270.714 111.1L265.414 116L266.114 121L261.514 119.7L258.414 122.6L257.914 130.1L269.114 132.9L305.514 98.9001C314.114 102.7 324.514 101.3 331.814 94.5001ZM328.314 64.9001C330.914 67.7001 330.814 72.1001 328.014 74.7001C325.214 77.3001 320.814 77.2001 318.214 74.4001C315.614 71.6001 315.714 67.2001 318.514 64.6001C321.314 62.0001 325.714 62.1001 328.314 64.9001Z" fill="#4D5AF2"/>
<path d="M328.314 64.8995C328.314 64.8995 327.814 64.4995 326.914 63.8995C326.014 63.2995 324.514 62.6995 322.614 62.8995C320.714 63.0995 318.514 64.2995 317.414 66.4995C316.214 68.6995 316.514 71.8995 318.514 73.9995C320.514 76.1995 323.714 76.5995 325.914 75.5995C328.214 74.5995 329.614 72.4995 329.914 70.5995C330.214 68.6995 329.714 67.0995 329.214 66.1995C328.614 65.3995 328.214 64.8995 328.314 64.8995C328.314 64.8995 328.414 64.9995 328.614 65.1995C328.814 65.3995 329.114 65.6995 329.414 66.1995C330.014 67.0995 330.614 68.7995 330.314 70.7995C330.014 72.7995 328.614 75.0995 326.114 76.1995C324.914 76.6995 323.414 76.8995 321.914 76.6995C320.414 76.3995 319.014 75.6995 318.014 74.4995C316.914 73.2995 316.314 71.8995 316.114 70.3995C315.914 68.8995 316.214 67.4995 316.914 66.2995C318.214 63.8995 320.614 62.5995 322.614 62.4995C324.614 62.2995 326.214 62.9995 327.114 63.6995C327.614 63.9995 327.914 64.2995 328.114 64.4995C328.214 64.7995 328.314 64.8995 328.314 64.8995Z" fill="#263238"/>
<path d="M331.814 94.4999C331.814 94.4999 331.714 94.5999 331.514 94.7999C331.214 94.9999 330.914 95.2999 330.414 95.6999C329.414 96.4999 327.914 97.5999 325.714 98.6999C323.514 99.6999 320.614 100.7 317.114 101C313.614 101.3 309.514 100.8 305.414 98.9999H305.614C296.214 107.8 283.714 119.5 269.214 133.1L269.114 133.2H269.014C265.514 132.3 261.714 131.4 257.814 130.4L257.614 130.3V130.1C257.714 127.8 257.914 125.2 258.114 122.6V122.5L258.214 122.4C259.214 121.5 260.214 120.5 261.314 119.5L261.414 119.4H261.614C263.014 119.8 264.614 120.2 266.214 120.7L265.814 121C265.614 119.5 265.314 117.8 265.114 116V115.8L265.214 115.7C266.914 114.2 268.714 112.5 270.514 110.8L270.614 110.7H270.814C273.214 111.4 275.814 112.1 278.414 112.8L278.014 113.1C277.614 110.5 277.214 107.8 276.814 105V104.8L276.914 104.7C277.414 104.2 278.014 103.7 278.514 103.2C280.014 101.8 281.514 100.4 283.014 98.9999L283.114 98.8999H283.314C285.914 99.5999 288.414 100.3 290.914 101L290.514 101.3C290.114 98.5999 289.714 95.8999 289.314 93.1999V92.9999L289.414 92.8999C291.114 91.3999 292.714 89.7999 294.314 88.2999L294.214 88.6999C292.314 85.2999 291.214 81.4999 291.114 77.6999C291.014 75.7999 291.114 73.8999 291.514 72.0999C291.814 70.2999 292.414 68.4999 293.114 66.8999C296.014 60.1999 301.814 55.3999 308.114 53.4999C314.414 51.4999 321.014 52.2999 326.114 54.8999C331.314 57.3999 335.014 61.6999 337.214 65.9999C339.314 70.3999 339.914 74.8999 339.614 78.5999C339.314 82.3999 338.114 85.4999 336.914 87.8999C336.714 88.1999 336.614 88.4999 336.514 88.7999C336.314 89.0999 336.214 89.2999 336.014 89.5999C335.714 90.0999 335.414 90.5999 335.114 90.9999C334.514 91.7999 334.014 92.4999 333.514 92.9999C333.014 93.4999 332.714 93.7999 332.414 94.0999C332.014 94.3999 331.814 94.4999 331.814 94.4999C331.814 94.4999 331.914 94.3999 332.214 94.0999C332.514 93.7999 332.814 93.3999 333.314 92.9999C333.814 92.4999 334.314 91.7999 334.914 90.9999C335.214 90.5999 335.514 90.0999 335.814 89.5999C336.014 89.3999 336.114 89.0999 336.314 88.7999C336.414 88.4999 336.614 88.1999 336.714 87.8999C337.914 85.5999 339.014 82.4999 339.314 78.6999C339.614 74.9999 339.014 70.5999 336.914 66.2999C334.814 62.0999 331.114 57.8999 326.014 55.4999C320.914 52.9999 314.514 52.2999 308.314 54.1999C302.214 56.0999 296.514 60.7999 293.714 67.3999C293.014 68.9999 292.414 70.6999 292.114 72.4999C291.714 74.2999 291.614 76.0999 291.714 77.8999C291.814 81.5999 292.914 85.2999 294.814 88.5999L294.914 88.7999L294.714 88.9999C293.114 90.4999 291.514 91.9999 289.814 93.5999L289.914 93.2999C290.314 95.9999 290.714 98.6999 291.114 101.4L291.214 101.9L290.814 101.8C288.314 101.1 285.814 100.4 283.214 99.6999L283.514 99.5999C282.014 101 280.514 102.4 279.014 103.8C278.414 104.3 277.914 104.8 277.414 105.3L277.514 105C277.914 107.8 278.314 110.6 278.714 113.1L278.814 113.6L278.414 113.5C275.814 112.8 273.214 112 270.814 111.4L271.114 111.3C269.314 113 267.514 114.7 265.814 116.2L265.914 115.9C266.114 117.6 266.414 119.3 266.614 120.9L266.714 121.3L266.314 121.2C264.714 120.8 263.114 120.3 261.714 119.9L262.014 119.8C260.914 120.8 259.914 121.8 258.914 122.7L259.014 122.5C258.814 125.1 258.714 127.7 258.514 130L258.314 129.7C262.214 130.7 266.014 131.6 269.514 132.5L269.214 132.6C283.714 119.1 296.314 107.4 305.714 98.6999L305.814 98.5999H305.914C310.014 100.4 314.014 100.9 317.514 100.7C321.014 100.4 323.814 99.4999 326.014 98.4999C328.214 97.4999 329.714 96.3999 330.714 95.5999C331.214 95.1999 331.514 94.8999 331.814 94.6999C331.714 94.5999 331.814 94.4999 331.814 94.4999Z" fill="#263238"/>
<path d="M329.614 92.6C329.514 92.5 331.014 91.3 332.814 88.5C333.714 87.1 334.614 85.2 335.314 83C336.014 80.7 336.314 78 336.014 75C335.714 72 334.714 68.8 332.814 65.9C330.914 63 328.214 60.2 324.614 58.5C322.914 57.6 320.914 56.9 318.914 56.6C317.914 56.4 316.914 56.3 315.814 56.2C314.814 56.2 313.714 56.2 312.614 56.4C308.314 56.9 304.114 58.8 300.814 61.9C297.614 65 295.414 69 294.614 73.2C294.414 74.2 294.314 75.3 294.214 76.4C294.214 77.4 294.214 78.5 294.314 79.5C294.514 81.5 295.014 83.5 295.814 85.3C297.314 89 299.914 91.9 302.614 94C305.414 96.1 308.614 97.3 311.514 97.8C314.414 98.3 317.214 98.2 319.514 97.7C321.814 97.2 323.714 96.4 325.214 95.6C328.314 93.9 329.514 92.5 329.614 92.6C329.614 92.6 329.514 92.7 329.414 92.8C329.214 93 329.014 93.2 328.614 93.5C328.314 93.8 327.914 94.2 327.314 94.5C326.814 94.9 326.214 95.3 325.414 95.7C323.914 96.6 322.014 97.4 319.714 97.9C317.414 98.4 314.614 98.6 311.614 98.1C308.614 97.6 305.414 96.4 302.514 94.3C299.714 92.2 297.014 89.2 295.514 85.4C294.714 83.6 294.114 81.5 293.914 79.4C293.714 78.4 293.814 77.3 293.714 76.2C293.814 75.1 293.814 74 294.114 73C294.914 68.7 297.114 64.5 300.514 61.3C303.914 58.2 308.314 56.2 312.614 55.7C313.714 55.5 314.814 55.6 315.914 55.5C317.014 55.6 318.014 55.6 319.114 55.9C321.214 56.3 323.214 56.9 324.914 57.9C328.514 59.7 331.314 62.5 333.214 65.5C335.114 68.5 336.114 71.8 336.414 74.8C336.714 77.8 336.314 80.6 335.614 82.9C334.914 85.2 334.014 87.1 333.014 88.5C332.614 89.2 332.114 89.8 331.714 90.3C331.314 90.8 330.914 91.2 330.614 91.5C330.314 91.8 330.114 92 329.914 92.2C329.714 92.6 329.614 92.6 329.614 92.6Z" fill="#263238"/>
<path d="M328.614 75.5002C328.614 75.5002 329.114 75.0002 329.814 73.9002C330.514 72.8002 331.214 71.0002 330.914 68.8002C330.814 67.7002 330.414 66.5002 329.714 65.4002C329.014 64.3002 328.014 63.3002 326.614 62.6002C325.314 61.9002 323.714 61.6002 322.114 61.8002C320.514 62.0002 318.914 62.7002 317.714 63.8002C316.514 65.0002 315.614 66.5002 315.414 68.1002C315.114 69.7002 315.314 71.3002 315.914 72.6002C316.514 74.0002 317.414 75.1002 318.414 75.9002C319.414 76.7002 320.614 77.1002 321.714 77.3002C323.914 77.7002 325.814 77.1002 326.914 76.5002C328.114 76.0002 328.614 75.5002 328.614 75.5002C328.614 75.5002 328.514 75.6002 328.214 75.9002C328.014 76.1002 327.614 76.5002 327.014 76.8002C325.914 77.5002 324.014 78.2002 321.614 77.8002C320.414 77.6002 319.214 77.2002 318.114 76.3002C317.014 75.5002 316.014 74.3002 315.314 72.9002C314.714 71.5002 314.414 69.7002 314.814 68.1002C315.114 66.4002 316.014 64.8002 317.314 63.5002C318.614 62.3002 320.314 61.5002 322.014 61.3002C323.714 61.1002 325.414 61.4002 326.814 62.2002C328.214 62.9002 329.314 64.0002 330.014 65.2002C330.714 66.4002 331.114 67.7002 331.214 68.8002C331.414 71.2002 330.614 73.0002 329.814 74.1002C329.414 74.6002 329.114 75.0002 328.814 75.2002C328.814 75.4002 328.614 75.6002 328.614 75.5002Z" fill="#263238"/>
<path d="M266.114 131.5C266.014 131.4 274.214 123.5 284.414 114C294.614 104.4 303.014 96.8004 303.114 96.9004C303.214 97.0004 295.014 104.9 284.814 114.4C274.614 124 266.314 131.7 266.114 131.5Z" fill="#263238"/>
<path d="M270.714 83.7996L271.014 83.0996L271.414 83.7996C271.814 84.2996 272.314 84.7996 272.914 84.9996L273.614 85.2996L272.914 85.6996C272.414 86.0996 271.914 86.5996 271.714 87.1996L271.414 87.8996L271.014 87.1996C270.614 86.6996 270.114 86.1996 269.514 85.9996L268.814 85.6996L269.514 85.2996C270.014 84.8996 270.414 84.3996 270.714 83.7996Z" fill="#4D5AF2"/>
<path d="M248.314 78.3004L248.514 77.9004L248.814 78.3004C249.014 78.6004 249.314 78.9004 249.614 79.0004L250.014 79.2004L249.614 79.5004C249.314 79.7004 249.014 80.0004 248.914 80.3004L248.714 80.7004L248.414 80.3004C248.214 80.0004 247.914 79.7004 247.614 79.6004L247.214 79.4004L247.614 79.1004C247.914 78.9004 248.214 78.6004 248.314 78.3004Z" fill="#4D5AF2"/>
<path d="M318.614 116.3L318.814 115.9L319.114 116.3C319.314 116.6 319.614 116.9 319.914 117L320.314 117.2L319.914 117.5C319.614 117.7 319.314 118 319.214 118.3L319.014 118.7L318.714 118.3C318.514 118 318.214 117.7 317.914 117.6L317.514 117.4L317.914 117.1C318.214 116.9 318.514 116.6 318.614 116.3Z" fill="#4D5AF2"/>
<path d="M353.014 96.7996L353.314 96.0996L353.714 96.7996C354.114 97.2996 354.614 97.7996 355.214 97.9996L355.914 98.2996L355.214 98.6996C354.714 99.0996 354.214 99.5996 354.014 100.2L353.714 100.9L353.314 100.2C352.914 99.6996 352.414 99.1996 351.814 98.9996L351.114 98.6996L351.814 98.2996C352.314 97.8996 352.814 97.3996 353.014 96.7996Z" fill="#4D5AF2"/>
<path d="M348.514 69.4998L349.114 68.2998L349.914 69.3998C350.514 70.2998 351.414 70.9998 352.414 71.4998L353.614 71.9998L352.514 72.7998C351.614 73.3998 350.914 74.2998 350.414 75.2998L349.814 76.4998L349.014 75.3998C348.414 74.4998 347.514 73.7998 346.514 73.2998L345.314 72.6998L346.414 71.8998C347.414 71.2998 348.114 70.4998 348.514 69.4998Z" fill="#4D5AF2"/>
<path d="M263.714 60.9998L264.314 59.7998L265.114 60.8998C265.714 61.7998 266.614 62.4998 267.614 62.9998L268.814 63.5998L267.714 64.3998C266.814 64.9998 266.114 65.8998 265.614 66.8998L265.014 68.0998L264.214 66.9998C263.614 66.0998 262.714 65.3998 261.714 64.8998L260.514 64.2998L261.614 63.4998C262.614 62.8998 263.314 61.9998 263.714 60.9998Z" fill="#4D5AF2"/>
<path d="M369.914 251.5C369.914 251.5 370.214 251.5 370.814 251.4C371.114 251.4 371.514 251.4 372.014 251.3C372.214 251.3 372.514 251.2 372.714 251.2C373.014 251.1 373.214 251.1 373.514 251C374.714 250.7 376.114 250.2 377.614 249.2C379.114 248.2 380.614 246.8 381.914 244.9C382.514 243.9 383.014 242.8 383.414 241.6C383.714 240.4 384.114 239.1 384.114 237.7C384.114 237 384.114 236.3 384.114 235.5C384.114 235.1 384.114 234.8 384.014 234.4C383.914 234 383.914 233.7 383.814 233.3C383.514 231.8 383.014 230.3 382.214 228.9C380.614 226.1 377.814 223.6 374.314 222.4C372.514 221.8 370.714 221.6 368.714 221.7C366.714 221.7 364.714 221.7 362.614 221.7C329.514 221.7 283.714 221.7 233.214 221.8C230.114 221.8 227.014 222.8 224.614 224.7C223.414 225.6 222.314 226.8 221.514 228C220.714 229.3 220.014 230.7 219.614 232.1C219.414 232.8 219.314 233.6 219.214 234.3C219.214 235.1 219.114 235.8 219.114 236.6C219.114 238.1 219.214 239.6 219.614 241C220.014 242.4 220.614 243.8 221.414 245C222.214 246.2 223.214 247.3 224.414 248.2C225.514 249.1 226.814 249.8 228.214 250.3C228.914 250.6 229.614 250.7 230.314 250.9C231.014 251 231.714 251.1 232.414 251.2C235.314 251.3 238.214 251.2 241.114 251.2C246.814 251.2 252.414 251.2 257.914 251.2C279.814 251.2 299.514 251.2 316.114 251.3C332.714 251.3 346.014 251.4 355.314 251.4C359.914 251.4 363.514 251.4 366.014 251.4C367.214 251.4 368.114 251.4 368.814 251.4C369.614 251.4 369.914 251.5 369.914 251.5C369.914 251.5 369.614 251.5 369.014 251.5C368.414 251.5 367.414 251.5 366.214 251.5C363.714 251.5 360.214 251.5 355.514 251.5C346.214 251.5 332.814 251.5 316.314 251.6C299.714 251.6 280.014 251.6 258.114 251.7C252.614 251.7 247.014 251.7 241.314 251.7C238.414 251.7 235.614 251.7 232.614 251.7C231.914 251.7 231.114 251.5 230.414 251.4C229.714 251.2 228.914 251.1 228.214 250.8C226.814 250.3 225.414 249.6 224.314 248.6C223.114 247.7 222.114 246.5 221.214 245.3C220.414 244 219.714 242.6 219.314 241.1C218.814 239.6 218.714 238 218.714 236.5C218.714 235.7 218.714 235 218.814 234.2C218.914 233.4 219.014 232.7 219.214 231.9C219.614 230.4 220.314 228.9 221.114 227.6C222.014 226.3 223.114 225.1 224.314 224.2C226.814 222.2 230.014 221.2 233.214 221.2C283.714 221.2 329.514 221.3 362.614 221.3C364.714 221.3 366.714 221.3 368.714 221.3C370.714 221.3 372.614 221.4 374.414 222.1C378.014 223.3 380.814 225.8 382.414 228.7C383.214 230.2 383.714 231.7 384.014 233.2C384.114 233.6 384.114 234 384.214 234.3C384.214 234.7 384.214 235.1 384.314 235.4C384.314 236.1 384.314 236.9 384.314 237.6C384.314 239 384.014 240.4 383.614 241.6C383.214 242.8 382.714 243.9 382.014 244.9C380.814 246.9 379.214 248.3 377.714 249.2C376.214 250.2 374.714 250.7 373.614 251C373.314 251.1 373.014 251.1 372.814 251.2C372.514 251.2 372.314 251.3 372.114 251.3C371.614 251.4 371.314 251.4 370.914 251.4C370.214 251.5 369.914 251.5 369.914 251.5Z" fill="#263238"/>
<path d="M369.914 288H233.314C225.414 288 219.014 281.6 219.014 273.7V272.3C219.014 264.4 225.414 258 233.314 258H369.914C377.814 258 384.214 264.4 384.214 272.3V273.7C384.314 281.5 377.814 288 369.914 288Z" fill="#4D5AF2"/>
<path d="M252.214 242.4C252.214 242.4 252.214 242.1 252.214 241.5C252.214 240.9 252.214 240.1 252.114 239.1C252.114 237 252.014 234 252.014 230.4L252.214 230.6C247.214 230.6 241.014 230.6 234.314 230.7C234.214 230.8 234.814 230.2 234.614 230.4V230.5V230.6V230.8V231.2V232C234.614 232.5 234.614 233.1 234.614 233.6C234.614 234.6 234.614 235.7 234.614 236.7C234.614 238.7 234.614 240.6 234.614 242.5L234.414 242.3C239.614 242.3 244.014 242.4 247.214 242.4C248.714 242.4 250.014 242.4 250.914 242.5C251.314 242.5 251.614 242.5 251.914 242.5C252.014 242.4 252.214 242.4 252.214 242.4C252.214 242.4 251.814 242.4 250.914 242.5C250.014 242.5 248.814 242.5 247.314 242.6C244.114 242.6 239.614 242.7 234.314 242.7H234.114V242.5C234.114 240.7 234.114 238.7 234.114 236.7C234.114 235.7 234.114 234.7 234.114 233.6C234.114 233.1 234.114 232.6 234.114 232V231.2V230.8V230.6V230.5V230.4C233.914 230.6 234.414 230.1 234.414 230.1C241.114 230.1 247.314 230.1 252.314 230.2H252.514V230.4C252.514 234 252.414 237 252.414 239.2C252.414 240.2 252.414 241 252.314 241.6C252.214 242.1 252.214 242.4 252.214 242.4Z" fill="#263238"/>
<path d="M252.214 230.399C252.214 230.499 251.314 231.399 249.714 232.799C248.114 234.199 245.914 236.199 243.414 238.299C242.714 238.299 243.214 238.299 243.114 238.299L243.014 238.199L242.914 238.099L242.614 237.999L242.114 237.599C241.814 237.299 241.514 237.099 241.214 236.799C240.614 236.299 240.114 235.799 239.514 235.299C238.514 234.399 237.514 233.499 236.714 232.799C235.114 231.399 234.214 230.399 234.214 230.399C234.214 230.299 235.314 231.199 236.914 232.499C237.814 233.199 238.714 233.999 239.814 234.899C240.314 235.399 240.914 235.799 241.514 236.299C241.814 236.599 242.114 236.799 242.414 237.099L242.914 237.499L243.114 237.699L243.214 237.799H243.314C243.114 237.799 243.614 237.799 243.014 237.799C245.514 235.699 247.714 233.799 249.414 232.399C251.114 231.199 252.114 230.399 252.214 230.399Z" fill="#263238"/>
<path d="M240.814 235.999C240.914 236.099 239.514 237.599 237.814 239.399C236.014 241.199 234.514 242.499 234.414 242.399C234.314 242.299 235.714 240.799 237.414 238.999C239.114 237.299 240.714 235.899 240.814 235.999Z" fill="#263238"/>
<path d="M252.214 242.4C252.114 242.5 250.714 241.1 249.014 239.2C247.314 237.3 246.114 235.7 246.214 235.6C246.314 235.5 247.714 236.9 249.414 238.8C251.014 240.7 252.314 242.3 252.214 242.4Z" fill="#263238"/>
<path d="M263.014 238.8V239.2H258.914V233.2H262.914V233.6H259.314V236H262.514V236.4H259.314V238.9H263.014V238.8Z" fill="#263238"/>
<path d="M271.814 236.6V239.2H271.414V236.6C271.414 235.6 270.914 235.1 270.014 235.1C269.014 235.1 268.414 235.8 268.414 236.8V239.2H268.014V236.6C268.014 235.6 267.514 235.1 266.614 235.1C265.614 235.1 265.014 235.8 265.014 236.8V239.2H264.614V234.7H265.014V235.7C265.314 235.1 265.914 234.7 266.714 234.7C267.514 234.7 268.114 235.1 268.314 235.8C268.614 235.1 269.214 234.7 270.114 234.7C271.114 234.7 271.814 235.3 271.814 236.6Z" fill="#263238"/>
<path d="M276.814 236.4V239.2H276.414V238.4C276.114 238.9 275.614 239.2 274.814 239.2C273.814 239.2 273.214 238.7 273.214 237.9C273.214 237.2 273.614 236.6 274.914 236.6H276.414V236.2C276.414 235.4 275.914 234.9 275.114 234.9C274.514 234.9 273.914 235.1 273.614 235.5L273.414 235.2C273.814 234.8 274.514 234.6 275.214 234.6C276.214 234.7 276.814 235.3 276.814 236.4ZM276.414 237.9V237H274.914C274.014 237 273.614 237.4 273.614 237.9C273.614 238.5 274.114 238.8 274.814 238.8C275.614 238.9 276.114 238.5 276.414 237.9Z" fill="#263238"/>
<path d="M278.414 233.299C278.414 233.099 278.614 232.899 278.814 232.899C279.014 232.899 279.214 233.099 279.214 233.199C279.214 233.399 279.014 233.599 278.814 233.599C278.614 233.599 278.414 233.499 278.414 233.299ZM278.614 234.699H279.014V239.199H278.614V234.699Z" fill="#263238"/>
<path d="M280.814 232.8H281.214V239.2H280.814V232.8Z" fill="#263238"/>
<path d="M268.714 277.001L267.114 274.701C266.914 274.701 266.714 274.701 266.414 274.701H264.514V276.901H264.014V270.101H266.414C268.114 270.101 269.114 271.001 269.114 272.401C269.114 273.501 268.514 274.201 267.514 274.501L269.214 276.901H268.714V277.001ZM266.414 274.301C267.914 274.301 268.614 273.601 268.614 272.501C268.614 271.301 267.814 270.701 266.414 270.701H264.514V274.401H266.414V274.301Z" fill="white"/>
<path d="M275.114 274.5H270.714C270.714 275.7 271.614 276.5 272.814 276.5C273.414 276.5 274.014 276.3 274.414 275.8L274.714 276.1C274.314 276.6 273.614 276.9 272.814 276.9C271.314 276.9 270.214 275.8 270.214 274.3C270.214 272.8 271.214 271.7 272.614 271.7C274.014 271.7 275.014 272.7 275.014 274.2C275.114 274.4 275.114 274.5 275.114 274.5ZM270.714 274.2H274.614C274.514 273.1 273.714 272.3 272.714 272.3C271.614 272.3 270.814 273.1 270.714 274.2Z" fill="white"/>
<path d="M275.814 276.3L276.014 275.9C276.414 276.2 277.114 276.5 277.814 276.5C278.914 276.5 279.314 276.1 279.314 275.6C279.314 274.1 275.914 275.2 275.914 273.2C275.914 272.4 276.514 271.8 277.814 271.8C278.414 271.8 279.114 272 279.514 272.3L279.314 272.7C278.914 272.4 278.314 272.2 277.814 272.2C276.814 272.2 276.414 272.6 276.414 273.1C276.414 274.6 279.814 273.5 279.814 275.5C279.814 276.3 279.114 276.9 277.814 276.9C277.014 277 276.214 276.7 275.814 276.3Z" fill="white"/>
<path d="M285.514 274.5H281.114C281.114 275.7 282.014 276.5 283.214 276.5C283.814 276.5 284.414 276.3 284.814 275.8L285.114 276.1C284.714 276.6 284.014 276.9 283.214 276.9C281.714 276.9 280.614 275.8 280.614 274.3C280.614 272.8 281.614 271.7 283.014 271.7C284.414 271.7 285.414 272.7 285.414 274.2C285.514 274.4 285.514 274.5 285.514 274.5ZM281.214 274.2H285.114C285.014 273.1 284.214 272.3 283.214 272.3C282.014 272.3 281.214 273.1 281.214 274.2Z" fill="white"/>
<path d="M289.514 276.6C289.214 276.8 288.814 277 288.514 277C287.614 277 287.114 276.5 287.114 275.6V272.3H286.214V271.9H287.114V270.8H287.614V271.9H289.214V272.3H287.614V275.6C287.614 276.2 287.914 276.6 288.514 276.6C288.814 276.6 289.114 276.5 289.314 276.3L289.514 276.6Z" fill="white"/>
<path d="M298.714 272.5C298.714 273.9 297.714 274.8 296.014 274.8H294.114V277H293.614V270.2H296.014C297.614 270.2 298.714 271 298.714 272.5ZM298.214 272.5C298.214 271.3 297.414 270.7 296.014 270.7H294.114V274.4H296.014C297.414 274.3 298.214 273.6 298.214 272.5Z" fill="white"/>
<path d="M303.814 273.7V276.9H303.314V276C303.014 276.6 302.414 276.9 301.514 276.9C300.414 276.9 299.714 276.3 299.714 275.5C299.714 274.7 300.214 274.1 301.614 274.1H303.314V273.7C303.314 272.8 302.814 272.3 301.814 272.3C301.114 272.3 300.514 272.6 300.114 272.9L299.914 272.6C300.414 272.2 301.114 271.9 301.914 271.9C303.114 271.9 303.814 272.5 303.814 273.7ZM303.314 275.5V274.6H301.614C300.614 274.6 300.214 275 300.214 275.6C300.214 276.3 300.714 276.7 301.614 276.7C302.414 276.6 303.014 276.2 303.314 275.5Z" fill="white"/>
<path d="M305.014 276.3L305.214 275.9C305.614 276.2 306.314 276.5 307.014 276.5C308.114 276.5 308.514 276.1 308.514 275.6C308.514 274.1 305.114 275.2 305.114 273.2C305.114 272.4 305.714 271.8 307.014 271.8C307.614 271.8 308.314 272 308.714 272.3L308.514 272.7C308.114 272.4 307.514 272.2 307.014 272.2C306.014 272.2 305.614 272.6 305.614 273.1C305.614 274.6 309.014 273.5 309.014 275.5C309.014 276.3 308.314 276.9 307.014 276.9C306.214 277 305.414 276.7 305.014 276.3Z" fill="white"/>
<path d="M309.714 276.3L309.914 275.9C310.314 276.2 311.014 276.5 311.714 276.5C312.814 276.5 313.214 276.1 313.214 275.6C313.214 274.1 309.814 275.2 309.814 273.2C309.814 272.4 310.414 271.8 311.714 271.8C312.314 271.8 313.014 272 313.414 272.3L313.214 272.7C312.814 272.4 312.214 272.2 311.714 272.2C310.714 272.2 310.314 272.6 310.314 273.1C310.314 274.6 313.714 273.5 313.714 275.5C313.714 276.3 313.014 276.9 311.714 276.9C310.914 277 310.114 276.7 309.714 276.3Z" fill="white"/>
<path d="M322.214 271.9L320.314 277H319.814L318.114 272.6L316.414 277H316.014L314.114 271.9H314.614L316.314 276.4L318.014 271.9H318.414L320.114 276.4L321.814 271.9H322.214Z" fill="white"/>
<path d="M322.614 274.4C322.614 272.9 323.714 271.8 325.114 271.8C326.514 271.8 327.614 272.9 327.614 274.4C327.614 275.9 326.514 277 325.114 277C323.714 277 322.614 275.9 322.614 274.4ZM327.214 274.4C327.214 273.1 326.314 272.3 325.214 272.3C324.014 272.3 323.214 273.2 323.214 274.4C323.214 275.7 324.114 276.5 325.214 276.5C326.314 276.6 327.214 275.7 327.214 274.4Z" fill="white"/>
<path d="M331.614 271.9V272.4H331.514C330.414 272.4 329.714 273.1 329.714 274.4V277H329.214V271.9H329.714V273C329.914 272.3 330.614 271.9 331.614 271.9Z" fill="white"/>
<path d="M337.314 269.8V277H336.814V275.8C336.414 276.6 335.614 277 334.714 277C333.314 277 332.214 275.9 332.214 274.4C332.214 272.9 333.314 271.8 334.714 271.8C335.614 271.8 336.414 272.2 336.814 273V269.7H337.314V269.8ZM336.914 274.4C336.914 273.1 336.014 272.3 334.914 272.3C333.714 272.3 332.914 273.2 332.914 274.4C332.914 275.7 333.814 276.5 334.914 276.5C336.014 276.6 336.914 275.7 336.914 274.4Z" fill="white"/>
<path d="M401.914 16.2004C401.914 16.3004 355.714 16.5004 298.714 16.5004C241.714 16.5004 195.414 16.4004 195.414 16.2004C195.414 16.1004 241.614 15.9004 298.714 15.9004C355.614 16.0004 401.914 16.1004 401.914 16.2004Z" fill="#263238"/>
<path d="M207.114 8C207.114 9.4 206.014 10.5 204.614 10.5C203.214 10.5 202.114 9.4 202.114 8C202.114 6.6 203.214 5.5 204.614 5.5C205.914 5.5 207.114 6.6 207.114 8Z" fill="#263238"/>
<path d="M214.314 8C214.314 9.4 213.214 10.5 211.814 10.5C210.414 10.5 209.314 9.4 209.314 8C209.314 6.6 210.414 5.5 211.814 5.5C213.214 5.5 214.314 6.6 214.314 8Z" fill="#263238"/>
<path d="M221.514 8C221.514 9.4 220.414 10.5 219.014 10.5C217.614 10.5 216.514 9.4 216.514 8C216.514 6.6 217.614 5.5 219.014 5.5C220.414 5.5 221.514 6.6 221.514 8Z" fill="#263238"/>
<path d="M402.214 313.6C402.214 311.5 402.114 184.7 402.014 0.2L402.214 0.4C339.014 0.4 269.014 0.4 195.414 0.4L195.714 0.1C195.714 118.4 195.714 227.4 195.614 313.5L195.414 313.3C321.514 313.6 400.514 313.6 402.214 313.6C400.514 313.6 321.514 313.7 195.414 313.8H195.214V313.6C195.214 227.5 195.214 118.5 195.114 0.2V0H195.414C269.014 0 339.014 0 402.214 0H402.414V0.2C402.314 184.7 402.214 311.5 402.214 313.6Z" fill="#263238"/>
<path d="M398.514 398.1C398.514 398.1 398.514 398 398.314 397.7C398.214 397.4 398.014 397 397.814 396.5C397.314 395.5 396.714 393.9 396.214 391.8C395.114 387.6 394.814 381.3 396.314 373.7C397.014 369.9 398.214 365.8 399.714 361.5C401.114 357.2 402.814 352.6 404.114 347.7C405.414 342.8 406.514 337.4 406.314 331.8C406.114 326.2 404.414 320.5 402.614 315C400.814 309.4 398.914 303.9 398.314 298.4C397.714 292.9 398.814 287.5 401.314 283.1C403.714 278.6 406.814 274.8 409.114 270.8C411.414 266.9 412.914 262.8 413.814 259C415.514 251.4 414.914 245 414.114 240.7C413.214 236.4 412.214 234.3 412.214 234.3C412.214 234.3 412.214 234.4 412.314 234.7C412.414 235 412.514 235.4 412.714 235.9C413.014 237 413.514 238.6 413.914 240.7C414.714 244.9 415.214 251.3 413.414 258.8C412.514 262.5 411.014 266.5 408.714 270.4C406.414 274.3 403.414 278.1 400.914 282.6C398.314 287.1 397.114 292.6 397.814 298.2C398.414 303.8 400.314 309.3 402.114 314.9C403.914 320.5 405.614 326.1 405.814 331.6C406.014 337.1 405.014 342.4 403.714 347.4C402.414 352.3 400.714 356.9 399.314 361.2C397.914 365.5 396.714 369.6 396.014 373.4C394.514 381 394.914 387.5 396.014 391.6C396.614 393.7 397.214 395.3 397.714 396.3C398.014 396.8 398.214 397.2 398.314 397.4C398.414 398 398.414 398.1 398.514 398.1Z" fill="#263238"/>
<path d="M405.915 274.7C405.915 274.7 410.515 259.9 402.215 251.2C401.915 250.9 401.415 251 401.315 251.5C400.915 253.9 400.415 261.3 405.915 274.7Z" fill="#4D5AF2"/>
<path d="M403.114 256.1C403.014 256.1 403.214 257.2 403.414 258.8C403.714 260.7 404.114 262.9 404.514 265.3C404.914 267.7 405.214 270 405.514 271.8C405.814 273.5 405.914 274.5 406.014 274.5C406.114 274.5 406.114 273.4 405.914 271.7C405.714 270 405.414 267.7 405.014 265.1C404.614 262.5 404.115 260.2 403.815 258.6C403.515 257.1 403.214 256.1 403.114 256.1Z" fill="#263238"/>
<path d="M400.515 309.699C400.515 309.699 397.715 294.399 386.215 290.599C385.815 290.499 385.415 290.799 385.515 291.199C386.315 293.599 389.315 300.499 400.515 309.699Z" fill="#4D5AF2"/>
<path d="M389.314 294.599C389.214 294.699 389.814 295.499 390.914 296.899C392.114 298.399 393.414 300.199 394.914 302.199C396.414 304.199 397.714 305.999 398.914 307.499C399.914 308.899 400.514 309.699 400.614 309.699C400.714 309.699 400.214 308.699 399.214 307.299C398.314 305.899 396.914 303.999 395.314 301.899C393.714 299.799 392.314 297.999 391.214 296.699C390.114 295.299 389.414 294.499 389.314 294.599Z" fill="#263238"/>
<path d="M403.614 348C403.614 348 405.314 332.5 395.514 325.6C395.214 325.4 394.714 325.6 394.714 326C394.714 328.5 395.614 336 403.614 348Z" fill="#4D5AF2"/>
<path d="M397.314 330.3C397.214 330.3 397.614 331.3 398.114 332.9C398.814 334.7 399.514 336.8 400.414 339.1C401.214 341.4 402.014 343.5 402.714 345.3C403.314 346.9 403.614 347.9 403.714 347.9C403.814 347.9 403.614 346.8 403.114 345.2C402.614 343.6 401.914 341.3 401.014 338.9C400.114 336.5 399.214 334.3 398.514 332.7C397.814 331.2 397.414 330.3 397.314 330.3Z" fill="#263238"/>
<path d="M395.014 386.599C395.014 386.599 396.214 371.099 386.114 364.499C385.714 364.299 385.314 364.499 385.314 364.899C385.414 367.399 386.514 374.799 395.014 386.599Z" fill="#4D5AF2"/>
<path d="M388.114 369.1C388.014 369.1 388.414 370.1 389.014 371.7C389.714 373.5 390.614 375.5 391.514 377.8C392.414 380.1 393.314 382.2 394.014 383.9C394.614 385.5 395.014 386.5 395.114 386.4C395.214 386.4 394.914 385.4 394.414 383.7C393.914 382.1 393.014 379.9 392.114 377.5C391.114 375.1 390.214 373 389.414 371.4C388.614 370 388.114 369.1 388.114 369.1Z" fill="#263238"/>
<path d="M412.615 261.6C412.615 261.6 426.415 254.4 426.715 242.4C426.715 242 426.215 241.7 425.915 242C423.815 243.4 418.115 248.3 412.615 261.6Z" fill="#4D5AF2"/>
<path d="M423.815 246.5C423.715 246.5 423.115 247.3 422.115 248.7C421.015 250.2 419.715 252.1 418.215 254.1C416.715 256.1 415.415 257.9 414.315 259.5C413.315 260.9 412.715 261.7 412.715 261.8C412.815 261.8 413.515 261.1 414.615 259.8C415.715 258.5 417.115 256.6 418.615 254.5C420.115 252.4 421.415 250.5 422.415 249C423.315 247.5 423.915 246.6 423.815 246.5Z" fill="#263238"/>
<path d="M397.814 293.499C397.814 293.499 412.014 287.199 413.014 275.199C413.014 274.799 412.614 274.499 412.214 274.699C410.114 275.999 404.114 280.499 397.814 293.499Z" fill="#4D5AF2"/>
<path d="M409.914 279.1C409.814 279.1 409.114 279.8 408.114 281.1C406.914 282.6 405.514 284.3 403.914 286.2C402.314 288.1 400.914 289.8 399.714 291.3C398.614 292.6 397.914 293.4 398.014 293.5C398.114 293.6 398.814 292.8 400.014 291.6C401.214 290.4 402.714 288.6 404.414 286.6C406.014 284.6 407.514 282.7 408.514 281.4C409.414 280.1 409.914 279.2 409.914 279.1Z" fill="#263238"/>
<path d="M406.014 329.1C406.014 329.1 415.714 317 411.214 305.9C411.014 305.5 410.514 305.5 410.314 305.8C408.914 307.8 405.714 314.6 406.014 329.1Z" fill="#4D5AF2"/>
<path d="M410.214 310.7C410.114 310.7 409.914 311.7 409.514 313.4C409.114 315.3 408.614 317.5 408.114 319.9C407.614 322.3 407.114 324.5 406.714 326.4C406.314 328.1 406.114 329.1 406.214 329.1C406.314 329.1 406.714 328.1 407.114 326.5C407.614 324.9 408.214 322.6 408.714 320C409.214 317.5 409.714 315.2 409.914 313.5C410.114 311.8 410.314 310.8 410.214 310.7Z" fill="#263238"/>
<path d="M396.314 370.9C396.314 370.9 410.414 364.3 411.214 352.3C411.214 351.9 410.814 351.6 410.414 351.8C408.314 353.1 402.414 357.8 396.314 370.9Z" fill="#4D5AF2"/>
<path d="M408.215 356.3C408.115 356.3 407.515 357.1 406.415 358.4C405.215 359.9 403.815 361.7 402.315 363.6C400.815 365.5 399.415 367.3 398.215 368.8C397.115 370.1 396.515 370.9 396.515 371C396.615 371.1 397.315 370.3 398.515 369.1C399.615 367.8 401.215 366 402.815 364C404.415 362 405.815 360.1 406.815 358.7C407.715 357.2 408.215 356.3 408.215 356.3Z" fill="#263238"/>
<path d="M368.314 309.799C368.314 309.799 368.314 309.899 368.314 310.099C368.314 310.399 368.314 310.699 368.314 311.099C368.314 311.999 368.414 313.299 368.514 314.899C368.714 318.199 368.914 322.799 369.214 328.399C370.214 333.999 373.114 340.299 376.914 346.299C379.714 350.799 382.714 354.799 385.214 358.599C387.814 362.399 389.914 365.799 391.414 368.899C392.914 371.999 393.814 374.599 394.314 376.499C394.514 377.399 394.714 378.199 394.814 378.599C394.914 379.099 395.014 379.399 395.014 379.299C395.014 379.299 395.014 378.999 394.914 378.499C394.814 377.999 394.714 377.299 394.514 376.299C394.014 374.399 393.214 371.699 391.714 368.599C390.214 365.499 388.114 361.899 385.514 358.199C383.014 354.399 380.014 350.299 377.214 345.899C373.414 339.899 370.514 333.699 369.514 328.199C369.114 322.699 368.814 318.099 368.614 314.799C368.514 313.199 368.414 311.999 368.314 310.999C368.314 310.599 368.214 310.299 368.214 309.999C368.314 309.899 368.314 309.799 368.314 309.799Z" fill="#263238"/>
<path d="M376.614 345.099C376.614 345.099 370.614 330.699 378.114 321.299C378.414 320.999 378.914 321.099 379.014 321.499C379.714 323.899 381.014 331.299 376.614 345.099Z" fill="#4D5AF2"/>
<path d="M377.714 326.399C377.614 326.399 377.414 327.399 377.214 329.099C377.014 330.799 376.814 333.099 376.614 335.699C376.414 338.299 376.314 340.599 376.314 342.299C376.314 343.999 376.414 345.099 376.514 345.099C376.614 345.099 376.614 344.099 376.714 342.399C376.814 340.499 377.014 338.299 377.114 335.799C377.314 333.299 377.414 331.099 377.614 329.199C377.814 327.399 377.814 326.399 377.714 326.399Z" fill="#263238"/>
<g opacity="0.3">
<g opacity="0.3">
<g opacity="0.3">
<g opacity="0.3">
<path opacity="0.3" d="M376.614 345.099C376.614 345.099 370.614 330.699 378.114 321.299C378.414 320.999 378.914 321.099 379.014 321.499C379.714 323.899 381.014 331.299 376.614 345.099Z" fill="black"/>
</g>
</g>
</g>
</g>
<path d="M395.115 379.699C395.115 379.699 390.315 364.899 398.615 356.099C398.915 355.799 399.415 355.899 399.515 356.299C399.915 358.899 400.615 366.299 395.115 379.699Z" fill="#4D5AF2"/>
<path d="M397.715 361.1C397.615 361.1 397.415 362.1 397.015 363.8C396.715 365.5 396.215 367.8 395.815 370.3C395.415 372.9 395.115 375.2 395.015 376.9C394.915 378.6 394.915 379.7 394.915 379.7C395.015 379.7 395.115 378.7 395.415 377C395.715 375.1 396.015 372.9 396.415 370.4C396.815 368 397.115 365.7 397.415 363.8C397.715 362.2 397.815 361.1 397.715 361.1Z" fill="#263238"/>
<g opacity="0.3">
<g opacity="0.3">
<g opacity="0.3">
<g opacity="0.3">
<path opacity="0.3" d="M395.115 379.699C395.115 379.699 390.315 364.899 398.615 356.099C398.915 355.799 399.415 355.899 399.515 356.299C399.915 358.899 400.615 366.299 395.115 379.699Z" fill="black"/>
</g>
</g>
</g>
</g>
<path d="M369.015 327.599C369.015 327.599 356.315 318.699 357.515 306.699C357.515 306.299 358.015 306.099 358.415 306.399C360.315 307.999 365.315 313.599 369.015 327.599Z" fill="#4D5AF2"/>
<g opacity="0.3">
<g opacity="0.3">
<g opacity="0.3">
<g opacity="0.3">
<path opacity="0.3" d="M369.015 327.599C369.015 327.599 356.315 318.699 357.515 306.699C357.515 306.299 358.015 306.099 358.415 306.399C360.315 307.999 365.315 313.599 369.015 327.599Z" fill="black"/>
</g>
</g>
</g>
</g>
<path d="M359.915 311.199C359.815 311.199 360.215 312.199 361.015 313.699C361.715 315.199 362.815 317.299 364.015 319.599C365.215 321.899 366.415 323.899 367.315 325.399C368.215 326.799 368.915 327.699 368.915 327.599C369.015 327.599 368.515 326.599 367.615 325.199C366.715 323.499 365.615 321.599 364.415 319.399C363.215 317.199 362.215 315.299 361.215 313.599C360.515 311.999 360.015 311.099 359.915 311.199Z" fill="#263238"/>
<path d="M390.014 365.099C390.014 365.099 374.614 362.699 370.514 351.399C370.414 350.999 370.715 350.599 371.115 350.699C373.515 351.399 380.514 354.199 390.014 365.099Z" fill="#4D5AF2"/>
<g opacity="0.3">
<g opacity="0.3">
<g opacity="0.3">
<g opacity="0.3">
<path opacity="0.3" d="M390.014 365.099C390.014 365.099 374.614 362.699 370.514 351.399C370.414 350.999 370.715 350.599 371.115 350.699C373.515 351.399 380.514 354.199 390.014 365.099Z" fill="black"/>
</g>
</g>
</g>
</g>
<path d="M374.515 354.299C374.515 354.399 375.215 355.099 376.615 356.099C377.915 357.199 379.815 358.599 381.915 360.099C384.015 361.599 386.015 362.899 387.415 363.799C388.915 364.699 389.815 365.199 389.815 365.099C389.815 364.999 389.015 364.399 387.615 363.499C386.015 362.399 384.215 361.099 382.215 359.699C380.215 358.299 378.415 356.999 376.815 355.899C375.515 354.899 374.615 354.299 374.515 354.299Z" fill="#263238"/>
<path d="M408.214 393.3L403.814 422.2H386.214L380.214 393.3H408.214Z" fill="#455A64"/>
<path d="M392.114 402.6C392.614 401.9 392.914 401.1 392.914 400.2C393.014 399.3 392.614 398.2 391.714 397.7C390.814 397.2 389.614 397.4 388.814 397.9C387.914 398.5 387.414 399.5 387.114 400.6C386.814 401.7 386.814 402.8 386.914 403.9C387.014 405 387.214 406.2 387.614 407.2C388.014 408.3 388.714 409.3 389.614 410.1C390.514 410.9 391.714 411.5 393.014 411.5C394.314 411.6 395.514 411.1 396.514 410.5C397.514 409.9 398.414 409 399.114 408.1C399.814 407.2 400.414 406.1 400.414 404.9C400.514 403.8 400.114 402.6 399.214 401.8C398.314 401.1 397.014 401.1 396.114 401.6C395.214 402.1 394.514 403 394.314 404C394.014 406 395.114 407.8 396.514 408.6C397.914 409.4 399.514 409.4 400.714 409.2C402.014 409 403.014 408.5 403.714 408C404.514 407.5 405.014 407.1 405.414 406.9C405.814 406.6 406.014 406.5 405.914 406.4C405.914 406.4 405.714 406.5 405.314 406.8C404.914 407.1 404.314 407.4 403.614 407.9C402.814 408.3 401.814 408.8 400.614 409C399.414 409.2 397.914 409.1 396.614 408.4C395.314 407.6 394.314 406 394.614 404.2C394.814 403.3 395.414 402.6 396.214 402.1C397.014 401.7 398.114 401.6 398.814 402.3C399.614 402.9 399.914 404 399.914 405C399.814 406 399.314 407 398.714 407.9C398.014 408.8 397.214 409.6 396.214 410.2C395.214 410.8 394.114 411.2 393.014 411.1C391.914 411 390.814 410.5 389.914 409.8C389.014 409.1 388.414 408.1 388.014 407.1C387.614 406.1 387.414 405 387.314 403.9C387.214 402.8 387.314 401.8 387.514 400.8C387.714 399.8 388.214 398.9 389.014 398.4C389.814 397.9 390.814 397.7 391.514 398.2C392.314 398.6 392.614 399.5 392.514 400.3C392.514 401.1 392.214 401.9 391.814 402.5C390.914 403.8 389.714 404.6 388.514 405C387.314 405.4 386.214 405.5 385.414 405.4C383.614 405.2 382.814 404.6 382.814 404.6C382.814 404.6 382.814 404.6 382.914 404.7C383.014 404.8 383.214 404.9 383.414 405C383.814 405.2 384.514 405.5 385.414 405.6C386.314 405.7 387.414 405.7 388.614 405.3C389.814 404.7 391.214 404 392.114 402.6Z" fill="#263238"/>
</svg>
