<svg width="695" height="390" viewBox="0 0 695 390" fill="none" xmlns="http://www.w3.org/2000/svg">
<g filter="url(#filter0_d)">
<g clip-path="url(#clip0)">
<path d="M561.571 202.508C561.571 202.508 585.776 200.337 608.821 190.928C609.545 190.639 609.98 195.56 609.98 195.56C609.98 195.56 613.314 188.902 614.473 188.467C626.938 182.677 638.243 174.426 644.33 163.136C644.33 163.136 647.374 232.327 558.238 247.671L561.571 202.508Z" fill="#5084DA"/>
<path d="M591.283 281.398C591.283 281.398 620.706 297.032 678.245 299.637C678.245 299.637 639.112 335.246 549.687 323.087L552.585 282.412L591.283 281.398Z" fill="#5084DA"/>
<path d="M550.122 241.881C550.122 241.881 563.456 233.34 584.906 226.103C585.776 225.813 587.515 230.88 587.515 230.88C587.515 230.88 590.414 224.221 592.008 223.787C617.807 216.115 653.027 211.049 690.855 221.76C690.855 221.76 679.405 237.683 655.78 255.198C654.766 255.922 648.099 255.343 648.099 255.343C648.099 255.343 650.853 258.672 649.983 259.396C627.663 274.884 595.922 290.662 554.615 297.031L550.122 241.881Z" fill="#5193F4"/>
<g opacity="0.4">
<g opacity="0.4">
<path opacity="0.4" d="M691 221.76C679.84 228.853 668.245 235.077 656.36 240.867C644.475 246.657 632.301 251.723 619.981 256.355C613.749 258.672 607.517 260.698 601.284 262.869L591.718 265.764C590.124 266.199 588.53 266.778 586.936 267.212L582.153 268.37C569.398 271.844 556.354 274.16 543.31 276.042L553.02 274.015L557.803 273.002C559.398 272.712 560.992 272.278 562.586 271.844L572.152 269.528L581.718 266.922C588.095 265.185 594.327 263.159 600.56 261.277C606.792 259.106 613.024 257.079 619.111 254.618C631.431 250.131 643.606 245.065 655.636 239.564C661.578 236.814 667.52 233.919 673.463 231.024C679.405 228.129 685.203 225.089 691 221.76Z" fill="#5084DA"/>
</g>
<g opacity="0.4">
<path opacity="0.4" d="M610.56 258.961C613.024 256.645 615.343 254.329 617.807 252.013C620.126 249.697 622.445 247.381 624.764 244.92C627.083 242.46 629.112 239.999 631.286 237.393C633.315 234.788 635.199 232.037 637.083 229.287C635.924 232.472 634.33 235.511 632.446 238.262C630.561 241.012 628.532 243.762 626.213 246.223C621.575 251 616.358 255.487 610.56 258.961Z" fill="#5084DA"/>
</g>
<g opacity="0.4">
<path opacity="0.4" d="M574.906 269.528C577.515 267.791 579.979 265.764 582.298 263.738C584.617 261.711 586.791 259.395 588.675 257.079C590.704 254.763 592.443 252.157 594.037 249.552C595.632 246.946 596.936 244.051 598.241 241.156C597.661 244.196 596.791 247.381 595.342 250.276C594.037 253.171 592.153 255.921 590.124 258.382C588.095 260.842 585.776 263.159 583.167 265.04C580.703 266.922 577.949 268.514 574.906 269.528Z" fill="#5084DA"/>
</g>
<g opacity="0.4">
<path opacity="0.4" d="M610.56 258.961C615.198 259.106 619.691 259.25 624.184 258.961C626.503 258.816 628.677 258.527 630.851 258.237C633.17 257.948 635.344 257.369 637.663 257.079C635.634 258.237 633.46 259.25 631.286 259.829C628.967 260.408 626.648 260.843 624.329 260.987C622.01 261.132 619.691 261.132 617.372 260.843C615.053 260.264 612.734 259.829 610.56 258.961Z" fill="#5084DA"/>
</g>
<g opacity="0.4">
<path opacity="0.4" d="M575.63 269.673C578.384 269.962 581.138 270.252 583.892 270.541C586.646 270.831 589.399 270.976 592.008 271.12C594.762 271.265 597.516 271.265 600.125 271.12C602.878 270.976 605.632 270.686 608.386 270.252C605.777 271.41 603.168 272.134 600.27 272.568C597.516 273.002 594.617 273.002 591.863 273.002C586.501 272.713 580.848 271.699 575.63 269.673Z" fill="#5084DA"/>
</g>
</g>
<g opacity="0.2278">
<g opacity="0.2278">
<path opacity="0.5" d="M635.344 181.085C633.025 187.599 628.822 193.244 624.039 198.31C619.256 203.377 613.604 207.575 607.661 211.049L603.023 213.509C601.429 214.378 599.835 214.957 598.241 215.681C595.052 217.128 591.718 218.141 588.53 219.155C586.936 219.734 585.196 220.023 583.457 220.457L578.384 221.615C574.906 222.194 571.572 222.629 568.094 223.063C571.427 222.194 574.761 221.471 578.094 220.747L583.022 219.299C584.617 218.865 586.356 218.431 587.95 217.707C591.139 216.404 594.327 215.391 597.516 213.944C599.11 213.22 600.705 212.641 602.154 211.772L606.647 209.312C612.444 205.838 618.097 201.784 622.88 197.152C624.039 195.994 625.344 194.836 626.503 193.534C627.083 192.955 627.663 192.231 628.243 191.652L629.837 189.625C631.866 187.02 633.75 184.125 635.344 181.085Z" fill="#605ACA"/>
</g>
</g>
<path d="M659.404 304.559C655.346 305.282 651.287 305.861 647.229 306.296C643.171 306.73 639.113 307.019 634.91 307.164C626.648 307.598 618.532 307.309 610.27 306.875C606.212 306.585 602.009 306.006 597.951 305.427C593.892 304.848 589.834 304.124 585.776 302.966C577.805 300.94 569.978 298.045 563.021 293.702C566.789 295.439 570.558 297.031 574.326 298.334C578.239 299.637 582.153 300.65 586.066 301.519C594.037 303.256 602.154 304.414 610.27 304.993C618.387 305.717 626.503 305.861 634.765 305.717C643.026 305.572 651.143 305.282 659.404 304.559Z" fill="#4CA1FF"/>
<path d="M620.851 318.889C615.488 319.323 609.98 318.165 605.053 315.849C602.589 314.546 600.415 312.954 598.53 310.928C596.646 308.901 595.342 306.44 594.472 303.979C596.066 306.151 597.661 308.177 599.545 309.914C601.574 311.507 603.603 312.954 605.922 314.112C608.241 315.27 610.705 316.139 613.169 317.007C615.633 317.731 618.242 318.455 620.851 318.889Z" fill="#4CA1FF"/>
<path d="M599.4 320.192C594.038 319.468 588.965 317.152 584.762 313.823C582.588 312.086 580.848 310.059 579.399 307.599C577.95 305.283 577.225 302.532 576.935 299.927C577.95 302.388 579.109 304.704 580.558 306.875C582.153 308.901 583.892 310.783 585.921 312.375C587.95 313.968 590.124 315.415 592.298 316.718C594.617 317.876 596.936 319.179 599.4 320.192Z" fill="#4CA1FF"/>
<path d="M364.458 378.671C355.472 368.393 341.848 362.314 328.224 362.458C318.078 362.603 308.222 365.933 298.222 365.354C287.641 364.775 277.496 359.419 270.684 351.313C264.017 343.062 260.973 332.061 262.422 321.638C263.582 313.677 267.785 305.716 275.032 302.097C278.945 300.215 283.438 299.636 287.931 300.07C291.989 300.505 295.758 301.518 299.526 303.11C307.932 306.874 315.179 313.388 320.977 320.48C326.194 326.994 338.224 336.693 346.341 342.917C351.123 346.536 354.602 348.997 354.602 348.997C360.255 354.208 360.544 372.012 364.458 378.671Z" fill="#52D2BC"/>
<path d="M276.046 324.389C301.41 331.626 329.383 341.759 349.094 359.129" stroke="#00AD9F" stroke-miterlimit="10" stroke-linecap="round" stroke-linejoin="round"/>
<path d="M439.39 320.77C438.955 324.968 438.086 329.31 436.057 333.074C434.607 335.679 432.723 337.995 430.549 340.022C429.39 341.035 428.23 342.048 427.071 343.062C422.433 346.68 417.07 349.431 411.707 351.168C403.736 353.628 395.329 354.207 388.083 358.55C384.749 360.577 381.85 363.472 379.531 366.801C378.082 368.827 376.922 371.143 376.198 373.459V366.367C376.922 358.55 377.792 350.589 380.691 343.062C382.575 338.14 385.329 333.653 388.228 329.31C393.01 322.362 398.518 315.993 404.75 310.637C409.823 306.295 415.765 302.676 421.998 301.807C428.23 300.939 434.897 303.11 437.796 308.611C439.535 312.229 439.68 316.572 439.39 320.77Z" fill="#5193F4"/>
<path opacity="0.31" d="M380.546 359.708C385.039 349.141 392.721 339.877 402.141 333.797C407.939 329.889 414.461 327.283 420.403 323.809C426.346 320.19 432.143 315.269 434.897 308.755" stroke="#0B43A4" stroke-miterlimit="10" stroke-linecap="round" stroke-linejoin="round"/>
<path d="M370.69 366.223C381.85 355.221 397.648 350.155 413.157 347.839C426.056 345.957 439.68 345.957 451.855 350.879C455.623 352.471 459.391 354.642 461.71 357.972C464.029 361.446 464.319 366.367 461.566 369.407C459.247 372.013 455.478 372.592 452 372.736C440.55 373.171 429.535 369.841 418.374 367.525C399.243 363.472 378.372 362.604 360.979 371.434" fill="#52D2BC"/>
<path d="M384.604 360.432C407.649 350.734 440.984 353.918 455.478 363.906" stroke="#00AD9F" stroke-miterlimit="10" stroke-linecap="round" stroke-linejoin="round"/>
<path d="M111.833 247.381C101.398 242.315 96.4698 228.998 87.9185 226.247C77.3381 222.628 74.2945 234.353 57.1919 231.458C42.8432 228.998 38.3502 212.785 14.2907 217.852C6.89891 219.444 2.116 225.524 4.86979 233.051C6.89891 240.433 17.1894 245.21 23.2768 248.973C28.6394 252.013 33.4223 253.605 36.6109 259.251C36.6109 259.251 36.6109 259.395 36.7559 259.395C38.9299 264.027 38.0603 268.081 43.1331 271.41C54.873 279.95 69.5116 266.344 82.8457 266.778C92.2666 267.067 91.9767 276.91 103.427 279.661C114.732 282.411 110.963 272.423 134.588 281.542C135.458 281.832 136.327 281.398 136.762 280.529C137.052 279.95 136.907 279.226 136.472 278.792C119.66 261.711 127.196 254.763 111.833 247.381Z" fill="#4A84D8"/>
<path d="M111.833 247.381C101.398 242.315 96.4698 228.998 87.9185 226.247C77.3381 222.628 74.2945 234.353 57.1919 231.458C42.8432 228.998 38.3502 212.785 14.2907 217.852C6.89891 219.444 2.116 225.524 4.86979 233.051C6.89891 240.433 17.1894 245.21 23.2768 248.973C28.6394 252.013 33.4223 253.605 36.6109 259.251C36.6109 259.251 36.6109 259.395 36.7559 259.395C38.9299 264.027 38.0603 268.081 43.1331 271.41C54.873 279.95 69.5116 266.344 82.8457 266.778C92.2666 267.067 91.9767 276.91 103.427 279.661C114.732 282.411 110.963 272.423 134.588 281.542C135.458 281.832 136.327 281.398 136.762 280.529C137.052 279.95 136.907 279.226 136.472 278.792C119.66 261.711 127.196 254.763 111.833 247.381Z" fill="#00AD9F"/>
<g opacity="0.5">
<g opacity="0.5">
<path opacity="0.5" d="M125.167 269.817C116.181 265.185 110.964 255.487 101.543 251.579C99.3686 250.71 97.1945 250.276 94.8755 250.276C91.542 250.421 88.3534 251.723 85.0198 251.289C80.2369 250.855 77.3382 246.657 73.135 244.92C68.3521 242.894 63.4243 245.933 58.4964 244.775C53.4236 243.617 49.3654 239.854 45.3072 236.814C37.0458 230.445 27.6249 226.826 17.0445 226.826C16.4648 226.826 16.7547 228.274 17.3344 228.274C28.9293 228.274 38.3502 232.906 47.3363 239.854C50.6698 242.459 54.2933 245.21 58.4964 246.223C63.5692 247.381 68.642 244.341 73.5698 246.512C77.3382 248.249 80.2369 251.868 84.4401 252.592C89.6578 253.461 94.5857 250.71 99.9483 252.302C110.239 255.487 115.601 266.199 124.877 270.975C125.602 271.554 125.602 270.107 125.167 269.817Z" fill="#4CA1FF"/>
</g>
</g>
<path d="M213.289 317.441C178.939 321.06 173.576 323.955 165.315 320.481C154.879 315.994 143.864 317.152 133.284 312.809C122.703 308.466 111.253 305.137 99.9482 307.019C96.3247 307.598 92.4115 309.045 91.9766 313.243C91.8317 314.98 92.2665 316.573 93.2811 318.02C95.745 321.494 99.8032 322.652 103.717 323.665L116.616 327.284C120.819 328.442 120.529 334.667 116.181 335.246H116.036C112.413 335.68 108.789 334.956 105.166 334.232C97.3393 332.495 89.5127 330.469 81.5412 330.469C71.8304 330.469 61.6849 333.943 56.902 342.917C55.1627 346.102 54.583 349.865 55.1627 353.34C56.902 363.327 66.1779 366.657 74.4393 365.788C80.2368 365.209 85.7444 363.038 91.252 361.011C104.586 356.235 116.036 361.446 130.385 361.88C169.663 362.748 213.289 317.441 213.289 317.441Z" fill="#7EE8D4"/>
<path d="M66.0327 348.707C90.3821 345.957 115.021 343.062 138.501 335.679C145.313 333.508 154.154 332.929 173.576 318.599" stroke="#00AD9F" stroke-miterlimit="10" stroke-linecap="round" stroke-linejoin="round"/>
<path d="M105.601 207.284C106.47 207.863 107.195 208.442 108.21 208.877C112.413 210.903 117.196 211.193 120.529 214.956C122.703 217.272 124.008 220.457 125.602 223.352C125.892 223.931 126.327 224.51 126.761 225.089C131.979 232.182 137.052 232.905 142.415 232.905C144.589 232.905 146.908 232.616 149.372 232.616C152.995 232.616 156.908 233.05 160.966 235.366C163.575 236.814 166.329 238.985 169.228 242.025C169.808 242.604 170.677 242.604 171.402 242.17C172.127 241.735 172.416 241.012 172.272 240.288C170.822 233.774 167.923 229.431 164.59 226.247C155.024 217.127 140.82 216.404 139.951 197.731C139.806 193.678 140.675 190.927 139.951 188.032C139.661 186.585 138.936 185.137 137.487 183.545C134.588 180.361 130.385 179.058 126.616 176.597C116.471 169.359 121.399 157.634 120.384 146.489C119.804 137.369 111.543 131.434 104.876 126.223C96.4696 119.999 96.4697 108.998 90.8171 100.602C85.1646 92.3514 71.1057 89.0221 63.569 100.168C55.5975 111.314 59.9456 125.21 62.2646 136.356C62.8443 139.251 63.8589 141.857 65.3083 144.317C69.5114 151.555 76.7583 156.766 82.8456 162.99C86.614 166.754 89.8026 171.096 92.1215 176.018C93.426 178.913 94.4405 181.808 95.0203 185.137C95.1652 185.861 95.3102 186.585 95.4551 187.309C96.9045 195.125 98.6437 202.073 105.601 207.284Z" fill="#7EE8D4"/>
<g opacity="0.5">
<g opacity="0.5">
<path opacity="0.5" d="M69.8013 100.312C70.2361 110.59 70.9608 121.301 78.6424 128.828C82.2658 132.447 86.6139 135.197 89.9475 138.961C92.2665 141.567 93.5709 144.462 94.4405 147.791C95.0203 149.673 95.3101 151.699 96.4696 153.291C97.774 155.173 99.8032 156.186 101.687 157.344C104.296 158.937 106.18 161.108 107.775 163.858C110.094 167.911 111.253 172.543 113.427 176.741C114.297 178.623 115.311 180.36 116.616 181.952C118.645 184.413 121.834 186.005 123.138 188.9C125.457 193.967 124.442 200.046 126.761 205.257C132.124 217.416 144.734 223.496 156.039 228.852C156.763 229.141 156.618 227.839 156.184 227.549C145.168 222.338 132.704 216.548 127.486 204.678C125.312 199.901 125.892 194.69 124.442 189.769C122.993 184.992 118.355 183.11 115.746 179.202C111.253 172.543 110.528 163.424 104.296 157.923C102.267 156.042 99.3684 155.173 97.4842 153.147C95.3101 150.686 95.3101 146.922 94.1506 144.027C92.7013 140.119 89.8025 137.224 86.7589 134.618C82.2658 130.71 77.338 127.236 74.4392 121.88C71.1057 115.366 70.9608 107.839 70.6709 100.747C70.6709 99.878 69.8013 99.4438 69.8013 100.312Z" fill="#4CA1FF"/>
</g>
</g>
<path opacity="0.37" d="M149.227 232.616C152.85 232.616 156.763 233.05 160.821 235.366C161.256 229.576 163.14 228.418 164.445 226.247C154.879 217.127 140.675 216.404 139.806 197.731C139.661 193.678 140.53 190.927 139.806 188.032C136.907 194.112 131.834 195.27 132.269 201.349C132.559 207.718 140.675 213.509 142.125 221.47C143.284 228.273 145.748 229.866 149.227 232.616Z" fill="#5A4FD1"/>
<path d="M242.131 326.995C235.609 324.389 227.058 323.376 222.855 329.021C219.376 333.654 221.116 340.312 223.579 345.668C225.609 350.155 228.217 354.643 232.421 357.103C235.319 358.696 238.798 359.275 242.131 359.709C251.407 360.867 260.828 361.301 270.249 361.301C281.119 361.301 294.309 365.644 303.295 372.447C291.7 351.024 263.872 335.68 242.131 326.995Z" fill="#5084DA"/>
<path opacity="0.31" d="M230.826 341.036C239.088 341.326 247.349 341.905 255.32 344.365C263.437 346.826 294.598 361.012 299.381 367.091" stroke="#0B43A4" stroke-miterlimit="10" stroke-linecap="round" stroke-linejoin="round"/>
<path d="M558.673 167.768C558.528 168.781 558.383 169.649 558.383 170.663C558.383 175.15 560.122 179.348 558.383 183.835C557.368 186.73 555.05 189.191 553.455 191.796C553.02 192.375 552.731 192.954 552.441 193.533C548.527 200.916 549.977 205.693 552.441 210.18C553.455 212.062 554.615 213.943 555.629 215.97C557.224 219.01 558.383 222.629 558.238 227.116C558.093 230.011 557.513 233.195 556.064 237.104C555.774 237.827 556.209 238.551 556.934 238.985C557.658 239.42 558.383 239.275 558.963 238.841C563.891 234.788 566.355 230.59 567.659 226.247C571.427 214.233 565.92 201.784 581.718 192.954C585.051 191.073 587.95 190.638 590.124 188.901C591.284 188.033 592.153 186.73 592.878 184.848C594.327 181.085 593.748 176.887 594.327 172.689C596.212 160.964 608.241 160.096 617.517 154.595C625.054 150.253 626.648 140.699 628.243 132.738C629.982 122.895 639.548 118.262 644.186 109.867C648.824 101.471 645.78 88.0094 633.026 86.4171C620.126 84.3906 610.126 93.9442 601.429 100.748C599.11 102.485 597.371 104.511 595.922 106.682C591.429 113.341 589.979 121.737 587.37 129.698C585.776 134.619 583.457 139.107 580.124 143.16C578.239 145.476 576.065 147.647 573.601 149.529C573.022 149.963 572.442 150.397 571.862 150.832C565.485 155.174 560.122 159.661 558.673 167.768Z" fill="#7EE8D4"/>
<g opacity="0.5">
<g opacity="0.5">
<path opacity="0.5" d="M635.054 91.339C626.213 96.2605 617.517 101.472 614.473 111.604C613.024 116.236 612.444 121.158 610.56 125.645C609.256 128.54 607.372 130.567 605.053 132.593C603.458 134.041 601.864 135.344 600.994 137.37C599.98 139.686 600.415 142.292 599.835 144.752C599.255 147.358 597.951 149.819 596.356 151.99C593.603 155.609 590.124 158.793 587.515 162.557C584.617 166.755 584.906 172.689 580.993 176.163C577.515 179.348 573.022 181.085 569.978 184.704C561.717 194.402 561.861 208.009 562.151 220.023C562.151 220.747 563.021 221.181 563.021 220.168C562.731 208.154 562.441 194.402 571.282 184.993C574.471 181.519 579.109 179.927 582.298 176.598C585.486 173.268 585.196 168.202 587.66 164.439C591.863 157.635 599.69 152.858 600.994 144.463C601.574 140.699 601.574 137.804 604.473 134.909C606.067 133.462 607.806 132.159 609.111 130.567C611.865 127.093 612.879 122.75 613.894 118.697C615.343 112.907 616.792 107.262 620.996 102.774C625.199 98.4318 630.561 95.5368 635.779 92.6417C636.069 92.497 635.634 91.0495 635.054 91.339Z" fill="#4CA1FF"/>
</g>
</g>
<path d="M521.279 346.391C531.135 351.892 535.193 365.354 543.31 368.683C553.455 372.881 557.079 361.59 573.746 365.498C587.66 368.828 590.849 384.895 614.763 381.566C622.01 380.553 627.228 374.763 625.054 367.38C623.46 359.998 613.894 354.787 608.096 350.734C603.024 347.404 598.531 345.523 595.632 339.733C595.632 339.733 595.632 339.588 595.487 339.588C593.748 334.956 594.762 331.048 590.124 327.429C579.109 318.309 564.036 330.613 550.991 329.455C541.715 328.587 542.73 319.033 531.715 315.559C520.845 312.085 523.888 322.218 501.423 311.651C500.553 311.217 499.684 311.651 499.249 312.375C498.959 312.954 499.104 313.533 499.539 314.112C514.612 331.916 506.641 338.14 521.279 346.391Z" fill="#4A84D8"/>
<path d="M521.279 346.391C531.135 351.892 535.193 365.354 543.31 368.683C553.455 372.881 557.079 361.59 573.746 365.498C587.66 368.828 590.849 384.895 614.763 381.566C622.01 380.553 627.228 374.763 625.054 367.38C623.46 359.998 613.894 354.787 608.096 350.734C603.024 347.404 598.531 345.523 595.632 339.733C595.632 339.733 595.632 339.588 595.487 339.588C593.748 334.956 594.762 331.048 590.124 327.429C579.109 318.309 564.036 330.613 550.991 329.455C541.715 328.587 542.73 319.033 531.715 315.559C520.845 312.085 523.888 322.218 501.423 311.651C500.553 311.217 499.684 311.651 499.249 312.375C498.959 312.954 499.104 313.533 499.539 314.112C514.612 331.916 506.641 338.14 521.279 346.391Z" fill="#00AD9F"/>
<g opacity="0.5">
<g opacity="0.5">
<path opacity="0.5" d="M509.684 323.52C518.381 328.731 523.019 339.298 532.584 343.351C537.802 345.522 542.44 343.206 547.658 344.22C552.441 345.088 555.05 349.431 559.253 351.313C563.746 353.339 568.674 350.734 573.312 352.181C578.24 353.773 582.153 357.826 585.921 361.156C593.458 367.814 602.444 371.867 612.59 372.446C613.314 372.446 613.024 370.999 612.445 370.999C600.995 370.275 592.153 365.209 583.892 357.826C580.993 355.221 577.95 352.615 574.181 351.168C569.109 349.141 563.456 352.181 558.528 349.576C555.05 347.694 552.731 344.22 548.817 343.062C543.745 341.614 538.672 344.075 533.599 342.338C523.453 338.864 518.815 327.573 509.829 322.217C509.25 321.928 509.25 323.231 509.684 323.52Z" fill="#4CA1FF"/>
</g>
</g>
<path d="M168.503 319.322C168.503 319.322 125.457 309.913 92.4117 313.387C91.3972 313.532 92.7016 307.018 92.7016 307.018C92.7016 307.018 85.8896 314.256 84.1503 314.545C65.8883 317.44 48.206 323.665 36.1763 335.969C36.1763 335.969 58.2066 245.643 178.794 259.105L168.503 319.322Z" fill="#5084DA"/>
<path d="M193.578 324.244C193.578 324.244 174.301 315.559 150.242 296.886C149.227 296.162 153.575 290.372 153.575 290.372C153.575 290.372 144.009 291.965 142.27 290.517C114.732 267.357 83.1359 231.603 67.1929 181.229C67.1929 181.229 93.5714 182.388 130.53 195.849C132.125 196.428 136.328 204.245 136.328 204.245C136.328 204.245 138.067 198.6 139.371 199.179C173.287 212.785 214.304 236.669 251.842 278.503L193.578 324.244Z" fill="#5193F4"/>
<g opacity="0.4">
<g opacity="0.4">
<path opacity="0.4" d="M67.3379 182.388C83.5708 189.625 99.079 198.021 114.297 207.14C129.516 216.115 144.299 226.103 158.503 236.525C165.75 241.736 172.562 247.381 179.519 252.737L189.664 261.277C191.404 262.725 193.143 264.172 194.737 265.62L199.665 270.107C212.999 281.832 225.174 294.715 236.769 308.032L227.348 298.623L222.855 293.847C221.261 292.254 219.666 290.807 218.072 289.359L208.506 280.24L198.506 271.555C191.983 265.62 185.026 260.264 178.214 254.619C171.258 249.263 164.301 243.762 157.054 238.551C142.85 227.985 128.211 218.141 113.283 208.733C105.746 204.1 98.2094 199.468 90.5278 195.126C82.9911 190.639 75.1645 186.441 67.3379 182.388Z" fill="#5084DA"/>
</g>
<g opacity="0.4">
<path opacity="0.4" d="M168.214 245.21C163.865 244.197 159.517 243.184 155.169 242.171C150.821 241.302 146.473 240.434 142.125 239.71C137.777 238.986 133.284 238.407 128.936 237.973C124.443 237.683 120.095 237.394 115.602 237.394C119.95 236.381 124.588 235.946 129.081 235.946C133.574 235.946 138.212 236.381 142.56 237.104C151.401 238.697 160.097 241.157 168.214 245.21Z" fill="#5084DA"/>
</g>
<g opacity="0.4">
<path opacity="0.4" d="M125.892 216.259C122.704 216.115 119.66 215.97 116.617 215.825C113.573 215.68 110.384 215.68 107.341 215.68C104.297 215.68 101.253 215.97 98.0646 216.115C95.0209 216.404 91.9773 216.838 88.9336 217.417C91.8323 216.259 94.876 215.246 97.9197 214.812C100.963 214.233 104.152 213.943 107.341 213.943C113.573 213.943 119.805 214.522 125.892 216.259Z" fill="#5084DA"/>
</g>
<g opacity="0.4">
<path opacity="0.4" d="M206.477 277.201C202.564 275.464 198.506 274.161 194.592 273.147C190.534 272.134 186.476 271.266 182.273 270.831C178.215 270.397 174.011 270.252 169.808 270.397C165.605 270.542 161.547 271.121 157.199 271.845C161.112 270.252 165.315 268.95 169.518 268.515C173.722 267.792 178.215 267.936 182.418 268.371C186.766 268.805 190.969 269.818 195.027 271.266C199.085 272.713 202.999 274.74 206.477 277.201Z" fill="#5084DA"/>
</g>
<g opacity="0.4">
<path opacity="0.4" d="M168.214 245.21C165.025 239.854 161.837 234.788 158.068 230.011C156.329 227.55 154.3 225.234 152.271 223.063C150.242 220.747 148.068 218.72 145.894 216.404C148.647 217.852 151.256 219.589 153.575 221.615C155.894 223.642 158.068 225.958 159.952 228.563C161.837 231.024 163.576 233.775 164.88 236.525C166.475 239.13 167.634 242.17 168.214 245.21Z" fill="#5084DA"/>
</g>
<g opacity="0.4">
<path opacity="0.4" d="M205.897 276.477C204.303 273.147 202.564 269.818 200.825 266.634C199.085 263.449 197.346 260.12 195.462 257.08C193.578 253.895 191.549 250.856 189.519 247.816C187.345 244.921 185.026 242.026 182.562 239.275C185.751 241.302 188.65 243.763 191.114 246.658C193.578 249.553 195.752 252.593 197.781 255.777C201.549 262.146 204.448 269.094 205.897 276.477Z" fill="#5084DA"/>
</g>
</g>
<g opacity="0.5">
<g opacity="0.5">
<path opacity="0.5" d="M54.5835 316.283C60.0911 308.756 67.6278 302.966 75.5993 298.334C83.7158 293.557 92.412 290.373 101.543 287.912L108.355 286.464C110.674 286.03 112.993 285.741 115.312 285.451C119.95 284.727 124.588 284.727 129.226 284.583C131.545 284.438 133.864 284.727 136.183 284.727L143.14 285.017C147.778 285.596 152.271 286.175 156.909 286.899C152.271 286.754 147.633 286.32 143.14 286.175H136.183C133.864 286.175 131.545 286.03 129.371 286.32C124.733 286.754 120.24 286.754 115.747 287.622C113.428 288.057 111.254 288.201 108.935 288.636L102.268 290.083C93.4265 292.254 84.8753 295.439 76.7588 299.637C74.7297 300.65 72.7006 301.808 70.8164 302.966C69.8018 303.545 68.9322 304.124 67.9177 304.848L65.1639 306.874C61.2506 309.914 57.7721 312.954 54.5835 316.283Z" fill="#4CA1FF"/>
</g>
</g>
<g opacity="0.5">
<g opacity="0.5">
<path opacity="0.5" d="M129.08 285.74C126.617 289.793 124.153 293.557 122.124 297.465C121.109 299.492 120.239 301.518 119.37 303.545C118.645 305.716 118.065 307.887 117.486 310.203C116.326 305.571 117.63 300.505 119.805 296.307C120.964 294.136 122.268 292.254 123.863 290.372C125.312 288.635 127.051 286.898 129.08 285.74Z" fill="#4CA1FF"/>
</g>
</g>
<path d="M390.401 314.69H319.092V363.617H390.401V314.69Z" fill="#0056EC"/>
<path opacity="0.5" d="M390.401 314.69H319.092V332.495H390.401V314.69Z" fill="#605ACA"/>
<path d="M427.07 362.893H282.424C277.786 362.893 274.162 366.656 274.162 371.143C274.162 375.631 277.93 379.394 282.424 379.394H427.07C431.708 379.394 435.332 375.631 435.332 371.143C435.332 366.656 431.708 362.893 427.07 362.893Z" fill="#0056EC"/>
<path opacity="0.5" d="M435.332 371.144C435.332 375.631 431.563 379.395 427.07 379.395H282.424C277.786 379.395 274.162 375.631 274.162 371.144C274.162 370.42 274.307 369.841 274.452 369.117C275.322 372.736 278.655 375.341 282.424 375.341H427.07C430.984 375.341 434.172 372.736 435.042 369.117C435.332 369.841 435.332 370.42 435.332 371.144Z" fill="#605ACA"/>
<path d="M131.689 321.494C128.936 321.494 126.617 319.178 126.617 316.428V22.2919C126.617 19.5416 128.936 17.2256 131.689 17.2256H577.66C580.413 17.2256 582.732 19.5416 582.732 22.2919V316.428C582.732 319.178 580.413 321.494 577.66 321.494H131.689Z" fill="white"/>
<path d="M577.804 20.844C578.674 20.844 579.254 21.423 579.254 22.2916V316.427C579.254 317.296 578.674 317.875 577.804 317.875H131.689C130.82 317.875 130.24 317.296 130.24 316.427V22.2916C130.24 21.423 130.82 20.844 131.689 20.844H577.804ZM577.804 13.6064H131.689C126.906 13.6064 122.993 17.5147 122.993 22.2916V316.427C122.993 321.204 126.906 325.112 131.689 325.112H577.66C582.442 325.112 586.356 321.204 586.356 316.427V22.2916C586.501 17.5147 582.587 13.6064 577.804 13.6064Z" fill="#0056EC"/>
<path d="M586.501 315.849V287.043H122.993V315.849C122.993 321.204 127.341 325.692 132.849 325.692H576.645C582.008 325.692 586.501 321.349 586.501 315.849Z" fill="#0056EC"/>
<path d="M354.747 115.656C374.438 115.656 390.401 99.7137 390.401 80.0474C390.401 60.3811 374.438 44.4385 354.747 44.4385C335.055 44.4385 319.092 60.3811 319.092 80.0474C319.092 99.7137 335.055 115.656 354.747 115.656Z" fill="#C8EEFB"/>
<path d="M368.516 71.9414C368.516 79.6132 362.284 85.6928 354.747 85.6928C347.065 85.6928 340.978 79.4685 340.978 71.9414C340.978 64.4143 347.21 58.19 354.747 58.19C362.429 58.0452 368.516 64.2696 368.516 71.9414ZM375.618 129.553V105.524C375.618 96.4044 368.226 88.8774 358.95 88.8774H350.544C341.413 88.8774 333.876 96.2597 333.876 105.524V129.553C333.876 132.158 335.905 134.185 338.514 134.185H370.98C373.444 134.185 375.618 132.158 375.618 129.553Z" fill="#5084DA"/>
<path d="M440.26 156.331H269.235C261.408 156.331 255.031 149.962 255.031 142.146C255.031 134.329 261.408 127.96 269.235 127.96H440.26C448.086 127.96 454.464 134.329 454.464 142.146C454.319 149.962 447.942 156.331 440.26 156.331Z" fill="#C8EEFB"/>
<path d="M434.317 145.909H275.177C273.148 145.909 271.553 144.317 271.553 142.291C271.553 140.264 273.148 138.672 275.177 138.672H434.172C436.201 138.672 437.796 140.264 437.796 142.291C437.941 144.172 436.346 145.909 434.317 145.909Z" fill="#5084DA"/>
<path d="M440.405 206.994H269.38C261.553 206.994 255.176 200.625 255.176 192.809C255.176 184.992 261.553 178.623 269.38 178.623H440.26C448.087 178.623 454.464 184.992 454.464 192.809C454.464 200.77 448.087 206.994 440.405 206.994Z" fill="#C8EEFB"/>
<path d="M273.727 196.862C271.698 196.862 270.104 195.269 270.104 193.243C270.104 191.216 271.698 189.624 273.727 189.624C275.757 189.624 277.351 191.216 277.351 193.243C277.496 195.269 275.757 196.862 273.727 196.862ZM288.511 193.243C288.511 191.216 286.917 189.624 284.888 189.624C282.858 189.624 281.264 191.216 281.264 193.243C281.264 195.269 282.858 196.862 284.888 196.862C286.772 196.862 288.511 195.269 288.511 193.243ZM299.381 193.243C299.381 191.216 297.787 189.624 295.758 189.624C293.729 189.624 292.134 191.216 292.134 193.243C292.134 195.269 293.729 196.862 295.758 196.862C297.787 196.862 299.381 195.269 299.381 193.243ZM310.396 193.243C310.396 191.216 308.802 189.624 306.773 189.624C304.744 189.624 303.15 191.216 303.15 193.243C303.15 195.269 304.744 196.862 306.773 196.862C308.802 196.862 310.396 195.269 310.396 193.243ZM321.412 193.243C321.412 191.216 319.817 189.624 317.788 189.624C315.759 189.624 314.165 191.216 314.165 193.243C314.165 195.269 315.759 196.862 317.788 196.862C319.672 196.862 321.412 195.269 321.412 193.243ZM332.282 193.243C332.282 191.216 330.688 189.624 328.658 189.624C326.629 189.624 325.035 191.216 325.035 193.243C325.035 195.269 326.629 196.862 328.658 196.862C330.688 196.862 332.282 195.269 332.282 193.243ZM343.297 193.243C343.297 191.216 341.703 189.624 339.674 189.624C337.644 189.624 336.05 191.216 336.05 193.243C336.05 195.269 337.644 196.862 339.674 196.862C341.703 196.862 343.297 195.269 343.297 193.243Z" fill="#5084DA"/>
<path d="M378.951 260.263H330.398C322.571 260.263 316.194 253.894 316.194 246.077C316.194 238.261 322.571 231.892 330.398 231.892H378.951C386.778 231.892 393.155 238.261 393.155 246.077C393.155 253.894 386.778 260.263 378.951 260.263Z" fill="#5084DA"/>
<path opacity="0.09" d="M533.889 324.968V308.901C533.889 303.545 529.541 299.347 524.323 299.347H523.453V284.438C523.453 262.435 505.481 244.631 483.596 244.631C461.565 244.631 443.738 262.58 443.738 284.438V299.347H442.869C437.506 299.347 433.303 303.69 433.303 308.901V324.968H533.889ZM456.782 284.148C456.782 269.383 468.812 257.514 483.451 257.514C498.234 257.514 510.119 269.528 510.119 284.148V299.058H456.638V284.148H456.782Z" fill="black"/>
<path opacity="0.09" d="M552.876 173.703C548.962 170.518 544.179 168.492 538.382 168.057C538.382 167.478 538.382 167.044 538.382 166.32C541.281 165.886 543.89 163.28 545.339 159.806C549.252 156.043 552.006 151.266 550.702 145.186C550.557 144.897 550.702 144.607 550.846 144.318C549.107 141.278 545.919 139.831 542.44 136.646C530.7 125.934 516.641 140.844 522.004 146.924C522.439 147.358 523.019 148.661 523.453 150.253C523.453 150.253 523.453 150.253 523.453 150.398C523.164 151.556 523.453 153.437 524.323 154.451C524.323 155.03 524.468 155.609 524.468 156.188V156.332C524.613 157.201 525.048 158.069 525.483 158.793C526.207 161.688 527.946 164.583 531.425 165.886C531.715 166.031 532.005 166.031 532.295 166.176C532.44 167.044 532.584 167.478 532.44 168.057C528.961 168.492 525.772 169.505 523.019 171.242C500.553 182.098 478.233 217.128 480.697 224.945C483.161 232.617 489.393 241.736 493.596 247.816L494.321 247.671C494.611 248.829 495.046 249.987 495.336 251.145C495.481 251.724 495.626 252.303 496.205 252.737C496.785 253.316 497.655 253.316 498.524 253.171C499.539 253.171 500.553 253.027 501.278 252.303C501.713 251.869 502.003 251.434 502.148 250.855C502.583 249.408 502.148 247.671 501.423 246.368L501.858 246.223C501.858 246.223 492.147 231.748 492.437 222.918C492.582 219.734 500.119 212.062 506.351 206.417C506.206 208.443 506.061 210.325 506.061 212.496L503.162 282.99C503.162 282.99 505.771 283.424 509.829 284.148L513.743 326.271H529.686L530.121 286.609C530.265 286.609 530.555 286.609 530.7 286.609C530.845 286.609 531.135 286.609 531.28 286.609C532.005 286.609 532.874 286.754 533.599 286.754C533.889 286.754 534.179 286.754 534.469 286.754C534.759 286.754 535.048 286.754 535.338 286.754L536.933 326.126H552.731L555.919 286.03C556.499 285.885 557.224 285.74 557.803 285.74C558.093 285.74 558.383 285.596 558.673 285.596C559.253 285.451 559.688 285.306 560.267 285.161C560.557 285.161 560.847 285.017 561.137 284.872C561.572 284.727 562.152 284.582 562.586 284.438C562.876 284.293 563.021 284.293 563.311 284.148C564.036 283.859 564.615 283.569 565.195 283.28L564.905 206.996C564.905 205.403 564.905 203.811 564.76 202.219C564.76 202.074 564.76 201.929 564.76 201.929C564.615 200.482 564.471 199.034 564.326 197.731C564.326 197.587 564.326 197.442 564.326 197.297C564.326 197.152 564.326 197.008 564.326 196.863C567.369 197.442 571.427 198.166 576.79 199.179C580.269 199.758 583.602 199.468 586.791 198.6V183.111C573.167 184.559 558.383 177.032 552.876 173.703Z" fill="black"/>
<path opacity="0.3" d="M337.79 216.259C351.318 216.259 362.284 205.307 362.284 191.796C362.284 178.285 351.318 167.333 337.79 167.333C324.262 167.333 313.295 178.285 313.295 191.796C313.295 205.307 324.262 216.259 337.79 216.259Z" fill="#94EBFF"/>
<path opacity="0.5" d="M337.79 205.113C345.154 205.113 351.124 199.151 351.124 191.796C351.124 184.441 345.154 178.479 337.79 178.479C330.425 178.479 324.456 184.441 324.456 191.796C324.456 199.151 330.425 205.113 337.79 205.113Z" fill="#94EBFF"/>
<path d="M473.595 244.342C451.565 244.342 433.738 262.291 433.738 284.149V322.508H513.598V284.149C513.453 262.146 495.626 244.342 473.595 244.342ZM446.927 309.335V284.149C446.927 269.384 458.957 257.514 473.595 257.514C488.379 257.514 500.264 269.529 500.264 284.149V309.335H446.927Z" fill="#F9714E"/>
<path opacity="0.4" d="M473.595 252.158C456.058 252.158 441.709 266.489 441.709 284.004V314.546H505.481V284.004C505.481 266.489 491.132 252.158 473.595 252.158ZM500.263 309.335H446.782V284.148C446.782 269.384 458.812 257.514 473.45 257.514C488.234 257.514 500.118 269.528 500.118 284.148V309.335H500.263Z" fill="#F9714E"/>
<path d="M514.177 379.395H433.013C427.65 379.395 423.157 375.052 423.157 369.552V308.901C423.157 303.545 427.505 299.058 433.013 299.058H514.177C519.54 299.058 524.033 303.4 524.033 308.901V369.552C524.033 375.052 519.54 379.395 514.177 379.395Z" fill="#FFB255"/>
<path d="M488.234 333.799C488.234 325.693 481.712 319.179 473.595 319.179C465.479 319.179 458.957 325.693 458.957 333.799C458.957 339.444 462.145 344.366 466.928 346.826V362.604H480.407V346.826C485.045 344.221 488.234 339.444 488.234 333.799Z" fill="#F9714E"/>
<path opacity="0.4" d="M514.322 299.203H490.118C484.9 315.56 476.639 331.193 466.203 344.655C456.492 357.249 441.129 373.316 423.737 373.027C425.041 376.79 428.665 379.396 432.868 379.396H514.322C519.685 379.396 523.888 375.053 523.888 369.842V308.757C524.033 303.401 519.685 299.203 514.322 299.203Z" fill="#FFB255"/>
<path d="M483.306 244.341C483.885 246.512 484.61 248.828 485.19 251C485.335 251.579 485.48 252.158 486.059 252.592C486.639 253.171 487.509 253.171 488.378 253.026C489.393 253.026 490.408 252.882 491.132 252.158C491.567 251.724 491.857 251.289 492.002 250.71C492.437 249.118 492.002 247.381 491.132 245.933C490.263 244.486 489.103 243.328 487.799 242.17" fill="#FFC2D3"/>
<path d="M602.588 168.057C603.313 165.017 604.473 161.977 605.777 159.082C606.502 159.951 606.357 161.109 606.212 162.267C606.936 160.674 608.096 159.227 609.69 158.503C609.835 158.358 610.125 158.358 610.27 158.358C610.415 158.503 610.56 158.648 610.705 158.937C611.285 161.253 610.995 163.859 609.98 166.03C608.966 168.202 606.936 169.939 604.617 170.807" fill="#FFC2D3"/>
<path d="M537.512 374.038C543.165 375.341 547.803 377.078 550.411 379.394H528.671L529.106 374.328L537.512 374.038Z" fill="#5084DA"/>
<path d="M510.844 374.038C505.191 375.341 500.553 377.078 497.944 379.394H519.685L519.25 374.328L510.844 374.038Z" fill="#5084DA"/>
<path d="M548.962 247.525L538.672 374.907C538.672 374.907 535.048 375.775 533.889 375.775C533.309 375.775 532.149 375.631 531.135 375.341C529.975 375.052 528.961 374.907 528.961 374.907L525.192 278.647H520.41L519.54 374.907C519.54 374.907 516.931 375.631 514.322 375.631C511.713 375.631 508.67 374.907 508.67 374.907L496.35 244.341L548.962 247.525Z" fill="#2E2C84"/>
<g opacity="0.3">
<path opacity="0.5" d="M529.251 246.367L511.134 245.209C510.844 268.659 514.467 352.47 514.757 375.63C517.076 375.486 519.105 374.907 519.105 374.907L519.975 278.647H524.758L528.526 374.907C528.526 374.907 529.541 375.196 530.7 375.341C530.99 375.341 531.425 375.486 531.715 375.486C532.005 349.43 529.686 257.223 529.251 246.367Z" fill="#2E2C84"/>
</g>
<path d="M514.467 156.042V156.187C515.192 160.385 519.25 162.556 523.743 163.714C527.367 164.727 528.236 165.162 531.135 162.99C537.222 158.648 542.585 152.858 540.846 144.896C540.701 144.607 540.846 144.317 540.991 144.028C539.251 140.988 536.063 139.541 532.584 136.356C520.844 125.644 506.786 140.554 512.148 146.633C512.873 147.791 514.467 152.134 514.467 156.042Z" fill="#001F64"/>
<path d="M554.614 207.14C554.614 182.966 544.614 167.912 525.337 167.912C506.061 167.912 496.06 188.177 496.06 212.351L493.161 282.845C493.161 282.845 537.947 291.675 555.049 283.424L554.614 207.14Z" fill="#8FC2FF"/>
<path opacity="0.3" d="M554.614 207.14C554.614 200.337 553.89 194.257 552.296 189.046C550.556 215.391 548.237 285.595 508.959 285.306C523.598 287.188 544.469 288.49 554.904 283.424L554.614 207.14Z" fill="#8FC2FF"/>
<path d="M535.193 153.292C534.468 148.515 530.265 143.738 525.047 146.199C521.714 147.791 518.235 147.936 515.481 146.488C515.337 147.357 515.337 148.804 515.192 150.107C514.612 149.094 513.597 148.949 513.307 150.252C513.018 151.699 513.452 154.305 514.902 154.739C514.902 155.029 514.902 155.173 514.902 155.463C514.902 159.082 516.496 164.727 522.149 166.03C522.438 167.333 522.293 167.767 522.004 169.359C522.293 170.517 526.787 171.241 528.381 169.938C528.236 168.346 528.236 167.622 528.236 166.175C531.714 165.596 534.468 162.266 535.773 157.924C541.135 155.029 537.512 149.818 535.193 153.292Z" fill="#FFC2D3"/>
<path opacity="0.3" d="M535.193 153.292C534.903 151.41 534.033 149.529 532.874 148.081C533.019 156.332 529.54 164.004 521.424 165.886C521.714 166.03 522.004 166.03 522.293 166.175C522.583 167.478 522.438 167.912 522.149 169.504C522.438 170.662 526.931 171.386 528.526 170.083C528.381 168.491 528.381 167.767 528.381 166.32C531.859 165.741 534.613 162.411 535.918 158.069C541.135 155.029 537.512 149.818 535.193 153.292Z" fill="#FFC2D3"/>
<path d="M513.018 171.097C490.552 181.953 468.232 216.983 470.696 224.8C473.16 232.471 479.392 241.591 483.595 247.67L491.712 246.223C491.712 246.223 482.001 231.748 482.291 222.918C482.581 217.417 504.032 199.468 504.032 199.468L513.018 171.097Z" fill="#8FC2FF"/>
<path d="M540.846 172.399C544.324 174.86 573.746 192.52 589.979 177.031C601.719 165.741 602.879 163.569 602.879 163.569L606.937 170.662C606.937 170.662 588.675 202.942 566.5 199.178C544.324 195.415 543.744 194.257 543.744 194.257L540.846 172.399Z" fill="#8FC2FF"/>
<path opacity="0.09" d="M177.054 310.348C168.648 312.809 161.546 318.309 156.908 325.547H216.767C212.274 318.309 205.027 312.809 196.621 310.348V164.004H177.054V166.32H156.184V183.98H177.054V188.177H156.184V205.837H177.054V310.348Z" fill="black"/>
<path d="M168.892 184.001H193.966V166.341H168.892V184.001Z" fill="#FFB255"/>
<path d="M168.892 205.894H193.966V188.234H168.892V205.894Z" fill="#FFB255"/>
<path opacity="0.5" d="M187.556 184.001H193.933V166.341H187.556V184.001Z" fill="#FFC87C"/>
<path opacity="0.5" d="M187.556 205.894H193.933V188.234H187.556V205.894Z" fill="#FFC87C"/>
<path d="M189.802 317.139H209.369L209.369 164.136H189.802L189.802 317.139Z" fill="#FFB255"/>
<path opacity="0.5" d="M199.23 322.363H199.81C200.534 322.363 200.969 321.784 200.969 321.205V170.518C200.969 169.795 200.389 169.36 199.81 169.36H199.23C198.505 169.36 198.07 169.939 198.07 170.518V321.205C198.07 321.784 198.65 322.363 199.23 322.363Z" fill="#FFC87C"/>
<path d="M164.3 344.221C164.3 324.824 180.098 309.046 199.52 309.046C218.941 309.046 234.74 324.824 234.74 344.221C234.74 363.617 218.941 379.395 199.52 379.395C180.098 379.395 164.3 363.617 164.3 344.221ZM182.562 344.221C182.562 353.629 190.244 361.301 199.665 361.301C209.086 361.301 216.767 353.629 216.767 344.221C216.767 334.812 209.086 327.14 199.665 327.14C190.099 327.14 182.562 334.812 182.562 344.221Z" fill="#FFB255"/>
<path opacity="0.5" d="M180.823 344.221C180.823 354.498 189.23 362.894 199.52 362.894C209.811 362.894 218.217 354.498 218.217 344.221C218.217 333.943 209.811 325.548 199.52 325.548C189.23 325.403 180.823 333.799 180.823 344.221ZM182.562 344.221C182.562 334.812 190.244 327.14 199.665 327.14C209.086 327.14 216.768 334.812 216.768 344.221C216.768 353.63 209.086 361.301 199.665 361.301C190.099 361.301 182.562 353.63 182.562 344.221Z" fill="#FFC87C"/>
<path opacity="0.09" d="M327.934 196.863C321.701 202.363 299.381 225.668 295.323 212.93C292.134 202.942 285.322 189.046 281.264 184.414C278.655 181.374 275.322 179.493 271.553 178.479V176.887C275.467 176.887 281.409 176.163 281.409 162.122C281.409 157.925 280.974 155.174 280.249 153.292C281.409 152.134 281.264 149.818 280.539 148.516C279.525 146.779 276.626 145.186 274.742 144.318C270.249 142.291 264.451 141.423 260.103 144.173C258.654 142.147 256.19 140.265 254.741 139.396C252.856 138.383 250.972 137.515 248.798 137.515C244.74 137.37 241.117 140.554 239.232 144.318C237.638 147.213 236.913 150.687 237.638 154.016C238.218 157.346 240.392 160.385 243.435 161.833C244.305 162.267 245.32 162.557 246.334 162.412C247.639 162.267 248.653 161.399 249.668 160.385C251.842 158.069 252.277 155.319 253.871 152.858C254.161 152.424 254.451 152.279 254.741 151.99C254.306 153.582 254.016 155.319 254.016 156.911C254.016 161.688 255.61 166.32 257.929 170.663C258.509 171.821 259.234 172.979 260.248 173.702C261.263 174.426 263.872 175.15 264.886 174.426L264.451 177.9C261.408 178.19 258.364 179.058 255.32 180.506C238.508 184.414 225.898 225.524 203.433 222.773C200.679 222.05 197.78 221.76 197.491 224.51C197.201 229.721 200.389 230.445 203.433 230.011V230.156C212.854 230.156 225.318 227.405 236.189 215.391C230.101 249.408 232.565 293.846 232.565 293.846C234.16 294.136 235.754 294.281 237.348 294.425L240.102 325.547H254.451V295.873C257.349 296.018 260.248 296.018 263.002 296.018L263.292 325.547H279.815L283.003 294.57C285.902 294.136 288.801 293.702 291.699 293.123C291.12 274.45 290.975 249.987 289.815 228.853C290.685 229.721 291.699 230.3 292.859 230.59C294.743 231.024 303.149 240.723 309.237 233.34C315.324 225.958 328.079 210.469 332.861 202.653C331.992 200.047 329.383 199.324 327.934 196.863Z" fill="black"/>
<path d="M273.582 173.269L272.568 180.506L280.25 181.375V173.703L273.582 173.269Z" fill="#F9ACC8"/>
<path opacity="0.1" d="M215.028 225.958C215.028 225.958 205.027 221.036 204.737 225.958C204.157 235.367 215.028 230.011 215.028 230.011V225.958Z" fill="black"/>
<path d="M216.477 224.655C216.477 224.655 206.476 219.734 206.186 224.655C205.607 234.064 216.477 228.708 216.477 228.708V224.655Z" fill="#FFC2D3"/>
<path d="M266.625 162.267C266.625 168.781 273.438 177.032 279.96 177.032C283.873 177.032 290.105 176.453 290.105 162.267C290.105 147.358 285.177 150.398 278.51 150.398C271.988 150.398 266.625 155.753 266.625 162.267Z" fill="#FFC2D3"/>
<path opacity="0.3" d="M276.626 167.768C276.626 162.267 277.351 155.753 279.38 150.397C279.09 150.397 278.8 150.397 278.51 150.397C271.988 150.397 266.625 155.753 266.625 162.267C266.625 168.636 273.148 176.598 279.525 176.887C277.496 174.571 276.626 171.531 276.626 167.768Z" fill="#FFC2D3"/>
<path d="M287.641 154.306C286.626 154.451 285.467 154.017 284.452 154.306C282.858 154.885 282.713 157.346 281.264 158.214C279.38 159.372 276.771 157.346 275.176 158.793C274.307 159.662 274.307 161.109 274.452 162.412C274.742 165.742 274.307 169.071 273.437 172.255C273.147 172.979 274.162 174.282 273.582 174.861C272.568 175.729 269.814 175.006 268.799 174.282C267.785 173.558 267.06 172.4 266.48 171.242C264.306 166.9 262.567 162.268 262.567 157.346C262.567 152.424 264.596 147.503 268.509 144.608C272.857 141.568 278.945 142.437 283.438 144.463C285.322 145.332 288.221 146.924 289.235 148.661C290.25 150.543 290.105 153.872 287.641 154.306Z" fill="#FFB255"/>
<path opacity="0.5" d="M286.337 146.055C284.742 147.502 283.293 149.963 282.133 150.687C280.539 151.845 278.655 151.99 276.771 152.569C268.364 155.174 267.785 168.057 271.408 175.005C272.278 175.15 273.147 175.15 273.582 174.716C274.162 174.281 273.147 172.834 273.437 172.11C274.452 168.925 274.742 165.596 274.452 162.267C274.307 160.964 274.307 159.517 275.177 158.648C276.771 157.201 279.525 159.082 281.264 158.069C282.713 157.201 282.858 154.74 284.452 154.161C285.467 153.727 286.627 154.306 287.641 154.161C290.25 153.727 290.395 150.397 289.235 148.66C288.656 147.792 287.496 146.923 286.337 146.055Z" fill="#FFC87C"/>
<path d="M263.437 139.686C261.553 138.673 259.668 137.805 257.494 137.805C253.436 137.66 249.813 140.844 247.929 144.608C246.334 147.648 245.61 151.122 246.334 154.451C246.914 157.78 249.088 160.82 252.132 162.268C253.001 162.702 254.016 162.991 255.031 162.847C256.335 162.702 257.35 161.833 258.364 160.82C260.538 158.504 260.973 155.754 262.567 153.293C263.872 151.266 266.77 152.135 268.655 150.832C273.293 147.358 266.481 141.279 263.437 139.686Z" fill="#FFB255"/>
<path opacity="0.5" d="M265.611 148.66C264.741 148.226 264.017 147.358 263.147 146.923C261.843 145.621 255.465 144.897 254.161 153.727C253.726 156.332 251.697 159.082 249.668 160.53C250.393 161.254 251.262 161.833 252.132 162.267C253.002 162.701 254.016 162.991 255.031 162.846C256.335 162.701 257.35 161.833 258.364 160.819C260.538 158.503 260.973 155.753 262.567 153.292C263.872 151.266 266.771 152.134 268.655 150.832C269.379 150.397 269.814 149.818 270.104 149.239C268.655 149.529 267.205 149.384 265.611 148.66Z" fill="#FFC87C"/>
<path d="M261.408 374.039C267.06 375.342 271.698 377.079 274.307 379.395H252.566L253.001 374.329L261.408 374.039Z" fill="#F9714E"/>
<path d="M280.829 374.039C286.481 375.342 291.119 377.079 293.728 379.395H271.988L272.423 374.329L280.829 374.039Z" fill="#F9714E"/>
<path opacity="0.1" d="M337.21 192.086C337.065 192.086 336.92 191.941 336.775 191.941C335.905 191.652 335.18 192.231 334.601 192.81C333.441 193.678 331.122 195.56 330.253 196.573C329.963 196.863 329.673 197.152 329.383 197.442C328.658 198.6 328.368 200.047 329.093 201.205C329.673 202.074 330.687 202.798 331.702 202.798C333.151 202.798 335.325 201.929 336.195 200.771C337.21 199.613 337.065 198.31 336.34 196.863C335.905 195.994 335.18 195.415 334.311 195.271C335.18 194.692 336.05 194.113 336.92 193.389C337.065 193.244 337.354 193.099 337.354 192.81C337.499 192.376 337.499 192.086 337.21 192.086Z" fill="black"/>
<path d="M336.775 195.126C337.5 196.428 337.645 197.876 336.63 199.034C335.616 200.192 333.586 201.06 332.137 201.06C331.122 201.06 330.108 200.481 329.528 199.468C328.803 198.31 329.093 196.863 329.818 195.705C331.267 193.389 335.181 192.231 336.775 195.126Z" fill="#FFC2D3"/>
<path d="M334.166 193.823C335.326 193.244 336.341 192.375 337.355 191.507C337.5 191.362 337.79 191.217 337.79 190.928C337.935 190.638 337.79 190.349 337.645 190.204C337.5 190.204 337.355 190.059 337.21 190.059C336.341 189.77 335.616 190.349 335.036 190.928C333.877 191.796 331.558 193.678 330.688 194.691C331.268 194.981 333.442 194.257 334.166 193.823Z" fill="#FFC2D3"/>
<path d="M306.483 213.799C314.599 208.443 320.976 202.653 328.223 196.284C328.658 195.85 329.383 195.85 329.818 196.429C331.122 198.021 333.296 200.337 333.151 201.35C333.006 201.929 332.571 202.364 332.281 202.798C325.469 210.325 318.657 217.852 311.845 225.379C310.541 226.827 309.092 228.419 307.497 229.432C305.758 230.445 303.729 231.169 301.845 230.59C298.511 229.722 296.772 226.392 294.888 223.497C286.047 209.312 287.496 204.245 288.655 199.903C289.38 196.863 290.395 193.823 290.83 190.783C290.974 189.77 288.656 184.414 289.96 184.27C293.873 188.902 299.961 203.087 304.019 212.786C304.309 213.944 305.613 214.378 306.483 213.799Z" fill="#F9714E"/>
<path d="M242.855 258.961L253.146 375.052C253.146 375.052 256.769 375.921 257.929 375.921C258.509 375.921 259.668 375.776 260.683 375.631C261.842 375.342 262.857 375.197 262.857 375.197L263.002 287.477H271.408L272.423 375.197C272.423 375.197 275.031 375.921 277.64 375.921C280.249 375.921 283.293 375.197 283.293 375.197L295.612 256.211L242.855 258.961Z" fill="#4B48B5"/>
<path d="M269.234 267.647C269.234 271.555 269.089 275.174 270.393 278.648C271.408 281.398 273.872 283.28 277.35 283.135C282.423 282.99 285.902 280.24 285.902 275.174C285.902 274.45 286.191 267.647 286.626 267.502C286.626 267.647 269.234 267.647 269.234 267.647Z" fill="#568EDB"/>
<path d="M245.175 267.646C245.175 271.555 245.03 275.174 246.044 278.648C246.769 281.398 248.508 283.28 250.972 283.28C254.451 283.135 256.48 279.227 256.915 275.318C257.059 274.739 257.059 267.791 257.349 267.646C257.349 267.791 245.175 267.646 245.175 267.646Z" fill="#568EDB"/>
<path d="M263.002 287.332C263.147 287.332 263.147 287.332 263.002 287.332C263.147 287.332 263.292 287.187 263.147 287.043C261.842 279.226 262.712 264.027 262.712 263.882V263.738H262.567C262.422 263.738 248.943 264.317 243.145 262.869C243 262.869 242.855 262.869 242.855 263.014C242.855 263.159 242.855 263.303 243 263.303C248.363 264.606 260.393 264.172 262.277 264.172C262.132 266.198 261.407 279.805 262.712 287.187C262.857 287.187 263.002 287.332 263.002 287.332Z" fill="#5E9CE4"/>
<path d="M264.741 287.333C264.886 287.333 265.031 287.188 264.886 287.043C264.016 277.779 264.016 270.542 264.596 264.173C272.713 264.028 282.423 263.014 293.728 260.988C293.873 260.988 293.873 260.843 293.873 260.698C293.873 260.554 293.728 260.554 293.584 260.554C282.278 262.58 272.423 263.593 264.306 263.738C264.161 263.738 264.161 263.883 264.161 263.883C263.582 270.397 263.582 277.634 264.451 287.043C264.596 287.188 264.596 287.333 264.741 287.333Z" fill="#5E9CE4"/>
<g opacity="0.16">
<path opacity="0.16" d="M260.683 375.486C261.842 375.197 262.857 375.052 262.857 375.052L263.002 287.332H263.726C263.581 287.043 263.292 287.043 263.002 287.043C261.407 287.767 260.538 288.925 259.523 290.228C258.654 291.386 258.219 292.688 258.219 293.991C257.639 321.204 259.233 341.759 260.683 375.486Z" fill="#4E84D9"/>
</g>
<path d="M282.568 372.591C282.423 372.591 282.423 372.446 282.423 372.301L282.568 370.564C282.568 370.42 282.713 370.42 282.858 370.42C283.003 370.42 283.003 370.564 283.003 370.709L282.858 372.446C282.858 372.591 282.713 372.591 282.568 372.591ZM283.148 367.525C283.003 367.525 283.003 367.38 283.003 367.235L283.293 363.906C283.293 363.761 283.438 363.616 283.583 363.761C283.728 363.761 283.728 363.906 283.728 364.051L283.438 367.38C283.293 367.38 283.148 367.525 283.148 367.525ZM283.728 360.721C283.583 360.721 283.583 360.576 283.583 360.432L283.873 357.102C283.873 356.958 284.018 356.958 284.163 356.958C284.308 356.958 284.307 357.102 284.307 357.247L284.018 360.576C284.018 360.721 283.873 360.721 283.728 360.721ZM284.452 354.063C284.308 354.063 284.307 353.918 284.307 353.773L284.597 350.444C284.597 350.299 284.742 350.154 284.887 350.299C285.032 350.299 285.032 350.444 285.032 350.589L284.742 353.918C284.742 353.918 284.597 354.063 284.452 354.063ZM285.177 347.259C285.032 347.259 285.032 347.115 285.032 346.97L285.322 343.64C285.322 343.496 285.467 343.496 285.612 343.496C285.757 343.496 285.757 343.641 285.757 343.785L285.467 347.115C285.322 347.115 285.322 347.259 285.177 347.259ZM285.902 340.456C285.757 340.456 285.757 340.311 285.757 340.166L286.047 336.837C286.047 336.692 286.192 336.548 286.337 336.692C286.482 336.692 286.482 336.837 286.482 336.982L286.192 340.311C286.047 340.456 286.047 340.456 285.902 340.456ZM286.482 333.797C286.337 333.797 286.337 333.653 286.337 333.508L286.626 330.179C286.626 330.034 286.771 329.889 286.916 330.034C287.061 330.034 287.061 330.179 287.061 330.323L286.771 333.653C286.771 333.653 286.626 333.797 286.482 333.797ZM287.206 326.994C287.061 326.994 287.061 326.849 287.061 326.705L287.351 323.375C287.351 323.23 287.496 323.086 287.641 323.231C287.786 323.231 287.786 323.375 287.786 323.52L287.496 326.849C287.496 326.994 287.351 326.994 287.206 326.994ZM287.931 320.335C287.786 320.335 287.786 320.191 287.786 320.046L288.076 316.717C288.076 316.572 288.221 316.427 288.366 316.572C288.511 316.572 288.511 316.717 288.511 316.861L288.221 320.191C288.076 320.191 288.076 320.335 287.931 320.335ZM288.656 313.532C288.511 313.532 288.511 313.387 288.511 313.243L288.801 309.913C288.801 309.769 288.945 309.769 288.945 309.769C289.09 309.769 289.09 309.913 289.09 310.058L288.801 313.387C288.801 313.532 288.801 313.532 288.656 313.532ZM289.235 306.874C289.09 306.874 289.09 306.729 289.09 306.584L289.38 303.255C289.38 303.11 289.525 302.965 289.67 303.11C289.815 303.11 289.815 303.255 289.815 303.4L289.525 306.729C289.525 306.729 289.38 306.874 289.235 306.874C289.235 306.874 289.38 306.874 289.235 306.874ZM289.96 300.07C289.815 300.07 289.815 299.925 289.815 299.781L290.105 296.451C290.105 296.307 290.25 296.307 290.395 296.307C290.54 296.307 290.54 296.451 290.54 296.596L290.25 299.925C290.25 299.925 290.105 300.07 289.96 300.07ZM290.685 293.267C290.54 293.267 290.54 293.122 290.54 292.977L290.83 289.648C290.83 289.503 290.975 289.359 291.12 289.503C291.264 289.503 291.264 289.648 291.264 289.793L290.975 293.122C290.83 293.267 290.83 293.267 290.685 293.267ZM291.409 286.608C291.264 286.608 291.264 286.464 291.264 286.319L291.554 282.989C291.554 282.845 291.699 282.845 291.844 282.845C291.989 282.845 291.989 282.99 291.989 283.134L291.699 286.464C291.554 286.464 291.554 286.608 291.409 286.608ZM291.989 279.805C291.844 279.805 291.844 279.66 291.844 279.515L292.134 276.186C292.134 276.041 292.279 275.897 292.424 276.041C292.569 276.041 292.569 276.186 292.569 276.331L292.279 279.66C292.279 279.805 292.134 279.805 291.989 279.805C292.134 279.805 292.134 279.805 291.989 279.805ZM292.714 273.146C292.569 273.146 292.569 273.002 292.569 272.857L292.859 269.528C292.859 269.383 293.004 269.238 293.149 269.383C293.294 269.383 293.294 269.528 293.294 269.672L293.004 273.002C293.004 273.002 292.859 273.146 292.714 273.146ZM293.439 266.343C293.294 266.343 293.294 266.198 293.294 266.054L293.583 262.724C293.583 262.579 293.728 262.435 293.873 262.579C294.018 262.579 294.018 262.724 294.018 262.869L293.728 266.198C293.728 266.198 293.583 266.343 293.439 266.343Z" fill="#5E9CE4"/>
<path d="M263.872 180.65C247.059 184.559 234.45 225.668 211.984 222.918V230.3C222.42 230.3 236.769 226.971 248.508 210.904C265.611 187.454 263.872 180.65 263.872 180.65Z" fill="#F9714E"/>
<path opacity="0.3" d="M263.872 180.65C247.059 184.559 234.45 225.668 211.984 222.918V230.3C222.42 230.3 236.769 226.971 248.508 210.904C265.611 187.454 263.872 180.65 263.872 180.65Z" fill="#F9714E"/>
<path d="M289.815 184.414C300.106 196.139 299.236 255.921 300.396 293.123C281.844 297.031 261.987 296.886 241.116 293.846C241.116 293.846 237.928 234.064 248.363 200.192C255.465 177.176 278.945 171.965 289.815 184.414Z" fill="#F9714E"/>
<path opacity="0.3" d="M255.32 263.304C251.407 250.71 249.668 237.682 249.813 224.51C249.813 213.364 250.103 201.35 253.001 190.349C251.117 193.099 249.523 196.428 248.363 200.192C237.928 234.064 241.116 293.846 241.116 293.846C251.697 295.438 261.987 296.162 271.988 296.017C264.451 286.464 258.944 275.173 255.32 263.304Z" fill="#F9714E"/>
<path d="M91.5424 165.741C92.9918 165.596 103.427 158.069 107.341 155.464C108.5 154.74 109.66 154.016 110.384 152.858C111.109 151.845 111.544 150.252 110.964 149.094C110.239 147.647 109.08 146.055 106.181 146.055C101.108 146.055 99.2241 147.792 96.7602 150.397C88.4988 159.082 91.5424 165.741 91.5424 165.741Z" fill="#00AD9F"/>
<path d="M137.777 196.573C142.27 198.6 147.053 200.626 151.981 200.047C153.865 199.758 155.894 198.889 156.619 197.152C157.198 195.56 156.474 193.823 155.169 192.81C154.01 191.796 152.271 191.217 150.821 190.783C144.879 189.336 136.472 190.204 130.53 191.796C130.385 191.796 135.168 195.415 137.777 196.573Z" fill="#00AD9F"/>
<path d="M167.344 130.276C165.315 128.974 163.141 127.381 163.141 124.92C163.141 122.604 165.605 120.723 168.069 120.723C170.388 120.723 172.707 122.025 174.446 123.618C181.983 130.276 181.113 137.803 181.113 137.803C181.113 137.803 169.663 131.724 167.344 130.276Z" fill="#00AD9F"/>
<path d="M173.287 110.156C171.547 109.432 169.663 108.419 168.649 106.827C168.214 106.103 167.924 105.09 168.214 104.221C168.794 102.774 169.663 101.471 173.432 102.05C185.171 104.221 187.78 112.183 187.78 112.183C187.78 112.183 176.475 111.459 173.287 110.156Z" fill="#00AD9F"/>
<path d="M207.781 127.816C212.419 127.382 217.347 125.066 220.246 121.447C221.405 119.999 222.42 118.552 222.71 116.815C223.145 115.078 222.71 113.051 221.405 111.893C219.811 110.446 217.202 110.735 215.318 111.893C213.434 113.051 212.274 115.078 211.405 116.959C210.1 119.565 207.781 127.816 207.781 127.816Z" fill="#00AD9F"/>
<path d="M123.718 299.201C112.268 289.213 100.963 279.081 89.513 269.093C83.4257 263.737 77.1934 258.237 73.425 251.144C65.1636 235.8 69.9465 215.969 81.1067 202.652C92.2668 189.335 108.645 181.373 125.022 175.728C141.4 169.938 158.503 166.03 174.156 158.358C184.012 153.581 193.867 146.488 196.621 135.921C198.216 129.552 196.911 122.459 192.998 117.248C189.085 111.892 182.852 108.563 176.33 108.129" stroke="#086356" stroke-miterlimit="10" stroke-linecap="round" stroke-linejoin="round"/>
<path d="M215.753 116.959C212.709 126.513 200.534 132.303 195.027 140.554" stroke="#086356" stroke-miterlimit="10" stroke-linecap="round" stroke-linejoin="round"/>
<path d="M172.127 127.96C174.446 130.421 177.345 132.592 179.519 135.342C183.867 141.277 184.302 150.686 177.779 156.621" stroke="#086356" stroke-miterlimit="10" stroke-linecap="round" stroke-linejoin="round"/>
<path d="M110.819 181.374C120.819 189.046 134.154 194.257 146.763 194.691" stroke="#086356" stroke-miterlimit="10" stroke-linecap="round" stroke-linejoin="round"/>
<path d="M87.7738 195.415C83.1358 181.809 88.2086 165.452 99.6586 156.767" stroke="#086356" stroke-miterlimit="10" stroke-linecap="round" stroke-linejoin="round"/>
<path d="M486.205 8.2508C485.625 6.51378 485.625 4.48726 486.929 3.18449C487.944 2.17123 489.538 1.73697 490.842 2.31598C500.843 6.65853 499.684 22.2917 499.684 22.2917C499.684 22.2917 490.263 20.8442 486.205 8.2508Z" fill="#00AD9F"/>
<path d="M485.915 37.3461C479.537 49.071 502.437 48.0577 510.699 41.2544C510.699 41.2544 491.567 27.3582 485.915 37.3461Z" fill="#00AD9F"/>
<path d="M514.902 9.11956C513.307 6.94828 512.728 3.76374 514.467 1.73722C515.771 0.289698 517.945 -0.289309 519.829 0.144946C521.714 0.579202 524.612 2.31622 525.917 3.90849C533.454 13.3174 529.975 22.4367 529.975 22.4367C529.975 22.4367 517.51 12.5936 514.902 9.11956Z" fill="#00AD9F"/>
<path d="M605.922 37.9251C605.342 36.0434 605.487 33.8721 606.937 32.5693C607.806 31.7008 609.111 31.4113 610.27 31.5561C611.43 31.7008 612.589 32.1351 613.749 32.5693C616.068 33.5826 617.952 35.4644 618.966 37.7804C621.865 43.5705 619.836 50.808 619.836 50.808C619.836 50.808 607.371 42.5572 605.922 37.9251Z" fill="#00AD9F"/>
<path d="M577.37 59.3481C573.311 55.7293 567.079 54.716 562.151 56.8873C560.847 57.4663 559.687 58.1901 558.963 59.3481C557.223 61.8089 557.803 65.5724 559.687 68.0332C561.571 70.494 564.47 71.9415 567.224 73.2443C572.297 75.5603 580.268 75.9946 585.631 77.4421C585.631 77.4421 585.486 66.5857 577.37 59.3481Z" fill="#00AD9F"/>
<path d="M493.306 10.7119C496.64 21.7131 506.205 30.1087 516.786 34.596C527.366 39.0833 539.106 40.2413 550.701 41.1098C562.151 41.8336 573.891 42.2678 585.051 45.3076C595.921 48.2026 606.647 54.427 611.43 64.7043C617.082 77.153 612.009 92.0624 604.183 103.208C596.211 114.354 585.486 123.329 577.804 134.764C574.326 139.975 571.282 146.055 572.007 152.279C573.021 160.675 579.978 166.754 586.5 171.965" stroke="#086356" stroke-miterlimit="10" stroke-linecap="round" stroke-linejoin="round"/>
<path d="M519.975 6.65918C527.656 15.0548 533.744 28.3719 535.193 39.6626" stroke="#086356" stroke-miterlimit="10" stroke-linecap="round" stroke-linejoin="round"/>
<path d="M494.176 39.3723C498.524 40.5303 503.017 41.6883 507.51 41.6883C512.003 41.6883 517.221 39.2275 520.554 36.043" stroke="#086356" stroke-miterlimit="10" stroke-linecap="round" stroke-linejoin="round"/>
<path d="M613.459 38.6484C617.517 42.5567 619.981 48.2021 620.271 53.8474C620.416 59.4927 617.372 66.4408 613.604 70.6386" stroke="#086356" stroke-miterlimit="10" stroke-linecap="round" stroke-linejoin="round"/>
<path d="M570.703 64.5596C578.819 72.0867 585.921 78.1662 595.052 84.5353C599.255 87.4304 607.372 91.1939 611.14 90.1806" stroke="#086356" stroke-miterlimit="10" stroke-linecap="round" stroke-linejoin="round"/>
</g>
</g>
<defs>
<filter id="filter0_d" x="0" y="0" width="695" height="390" filterUnits="userSpaceOnUse" color-interpolation-filters="sRGB">
<feFlood flood-opacity="0" result="BackgroundImageFix"/>
<feColorMatrix in="SourceAlpha" type="matrix" values="0 0 0 0 0 0 0 0 0 0 0 0 0 0 0 0 0 0 127 0"/>
<feOffset dy="4"/>
<feGaussianBlur stdDeviation="2"/>
<feColorMatrix type="matrix" values="0 0 0 0 0 0 0 0 0 0 0 0 0 0 0 0 0 0 0.25 0"/>
<feBlend mode="normal" in2="BackgroundImageFix" result="effect1_dropShadow"/>
<feBlend mode="normal" in="SourceGraphic" in2="effect1_dropShadow" result="shape"/>
</filter>
<clipPath id="clip0">
<rect x="4" width="687" height="382" fill="white"/>
</clipPath>
</defs>
</svg>
