<svg width="573" height="395" viewBox="0 0 573 395" fill="none" xmlns="http://www.w3.org/2000/svg">
<path d="M91.066 378.332C109.332 363.384 111.715 338.117 109.2 315.894C108.803 312.19 108.803 308.221 106.817 305.046C104.699 301.872 100.331 300.02 97.1547 301.872C94.5075 303.459 93.4486 306.766 92.1249 309.544C90.2719 313.248 87.4922 316.423 83.9184 318.672C81.6683 320.127 78.7563 321.053 76.2414 319.995C72.7999 318.539 72.1381 314.042 71.8734 310.338C71.3439 303.459 70.8145 296.58 70.285 289.569C70.0203 285.865 69.7556 282.029 68.2996 278.722C66.8436 275.283 63.9316 272.24 60.3578 271.579C56.6516 270.917 52.416 273.298 52.0189 277.002C51.8865 278.59 52.2836 280.045 52.2836 281.632C52.2836 283.22 51.7542 284.939 50.2982 285.468C48.8422 285.998 47.2538 285.072 46.0626 284.146C41.827 280.706 38.915 276.076 36.003 271.579C33.091 266.949 30.3114 262.319 26.4728 258.483C22.6343 254.646 17.4721 251.868 12.0452 252.001C6.61836 252.133 1.19147 255.837 0.264931 261.261C-0.661611 266.552 2.91219 271.579 6.61836 275.547C12.1776 281.368 18.531 286.527 25.4139 290.495C26.6052 291.289 28.0612 292.083 28.5906 293.406C29.6495 295.787 27.3994 298.432 25.0168 299.491C22.2372 300.681 19.1929 300.549 16.2809 301.21C13.3689 301.739 10.3245 303.327 9.39799 306.105C8.20672 310.073 11.6482 313.777 15.0896 316.026C21.8401 320.656 29.3848 324.228 37.3266 326.344C40.1062 327.138 43.1506 327.799 45.5331 329.519C47.9157 331.239 49.504 334.414 48.4451 337.191C47.2538 339.969 43.9448 341.028 41.0328 340.763C38.1208 340.499 35.3412 339.176 32.5615 338.382C27.267 336.927 20.6489 337.721 17.6045 342.483C15.6191 345.525 15.7514 349.626 17.2074 352.933C18.531 356.24 21.0459 359.018 23.6932 361.664C32.6939 370.527 43.9448 377.406 56.2545 380.448C68.4319 383.491 79.5504 383.623 91.066 378.332Z" fill="#EBEBEB"/>
<path d="M92.7869 394.868C91.1986 386.137 88.4189 375.819 84.1833 364.839C79.9477 353.86 74.2561 342.219 67.9026 330.181C66.3143 327.138 64.7259 324.228 63.1376 321.318C61.5492 318.408 59.9609 315.497 58.3725 312.852C55.0634 307.428 51.3573 302.401 47.7834 297.771C44.2096 293.141 40.5035 288.908 37.1944 284.94C33.753 280.971 30.5762 277.267 27.3995 274.093C21.1785 267.743 15.6192 263.113 11.6483 260.07C9.66287 258.615 8.07451 257.425 7.0156 256.763C6.48615 256.367 6.08906 256.102 5.82434 255.97C5.55961 255.837 5.42725 255.705 5.42725 255.705C5.42725 255.705 5.55961 255.837 5.82434 255.97C6.08906 256.234 6.48615 256.499 7.0156 256.896C8.07451 257.689 9.66287 258.748 11.6483 260.335C15.6192 263.378 21.1785 268.007 27.2672 274.357C30.3115 277.532 33.6206 281.236 36.9297 285.204C40.3711 289.173 43.9449 293.406 47.5187 298.168C51.0925 302.798 54.7987 307.825 58.1078 313.249C59.8285 316.027 61.2845 318.805 62.8729 321.715C64.4612 324.625 66.0496 327.535 67.6379 330.578C73.9914 342.616 79.683 354.257 83.9186 365.104C88.1542 376.084 91.0662 386.269 92.6546 395" fill="#E0E0E0"/>
<path d="M58.1074 312.852C58.1074 312.852 58.2398 312.323 58.3721 311.264C58.5045 310.206 58.6369 308.751 58.6369 306.899C58.9016 303.195 59.034 298.036 59.1663 292.348C59.2987 286.66 59.5634 281.5 59.8281 277.797C59.9605 275.945 60.0929 274.489 60.2252 273.431C60.3576 272.373 60.3576 271.844 60.3576 271.844C60.3576 271.844 60.2252 272.373 60.0929 273.431C59.9605 274.489 59.6958 275.945 59.5634 277.797C59.1663 281.5 58.9016 286.66 58.7692 292.348C58.6369 298.036 58.5045 303.063 58.5045 306.899C58.5045 308.751 58.3721 310.206 58.3721 311.264C58.1074 312.19 58.1074 312.852 58.1074 312.852Z" fill="#E0E0E0"/>
<path d="M9.1333 307.956C9.1333 307.956 9.26566 307.956 9.66275 307.956C10.0598 307.956 10.5893 307.956 11.1187 307.956C12.31 307.956 14.1631 307.956 16.4133 307.956C20.9136 308.089 27.0023 308.353 33.7528 309.147C40.5034 309.808 46.5921 310.734 51.0924 311.528C53.3426 311.925 55.0633 312.322 56.2546 312.454C56.784 312.586 57.3135 312.586 57.7106 312.719C57.9753 312.719 58.24 312.851 58.24 312.719C58.24 312.719 58.1077 312.586 57.7106 312.586C57.3135 312.454 56.9164 312.322 56.2546 312.19C55.0633 311.925 53.3426 311.528 51.0924 310.999C46.7244 310.073 40.6357 309.147 33.7528 308.486C27.0023 307.824 20.7813 307.56 16.2809 307.56C14.0307 307.56 12.1777 307.56 10.9864 307.692C10.4569 307.692 9.92748 307.824 9.53039 307.824C9.26566 307.824 9.1333 307.824 9.1333 307.956Z" fill="#E0E0E0"/>
<path d="M83.5215 364.045C83.5215 364.045 83.6538 363.781 83.7862 363.384C83.9186 362.855 84.1833 362.326 84.448 361.532C84.9775 359.944 85.7717 357.696 86.6982 354.918C88.5513 349.229 90.9338 341.425 93.4487 332.694C95.9636 323.963 98.2138 316.026 99.9345 310.338C100.861 307.56 101.523 305.311 102.052 303.592C102.317 302.798 102.449 302.269 102.582 301.74C102.714 301.343 102.714 301.078 102.714 301.078C102.714 301.078 102.582 301.343 102.449 301.74C102.317 302.269 102.052 302.798 101.788 303.592C101.258 305.179 100.464 307.428 99.5374 310.206C97.6843 315.894 95.3018 323.699 92.7869 332.429C90.272 341.16 88.0218 349.097 86.3011 354.785C85.3746 357.563 84.7128 359.812 84.1833 361.532C83.9186 362.326 83.7862 362.855 83.6539 363.384C83.5215 363.781 83.5215 364.045 83.5215 364.045Z" fill="#E0E0E0"/>
<path d="M17.6045 348.965C17.6045 348.965 17.8692 349.097 18.2663 349.097C18.7958 349.23 19.4576 349.362 20.1194 349.494C21.8401 349.891 24.2226 350.42 27.1346 351.081C33.091 352.404 41.2975 354.389 50.2982 356.637C59.2989 358.886 67.6378 360.738 73.5941 362.061C76.6385 362.722 79.021 363.252 80.7417 363.516C81.5359 363.648 82.1977 363.781 82.7272 363.913C83.1243 364.045 83.389 364.045 83.389 364.045C83.389 364.045 83.1243 363.913 82.7272 363.913C82.1977 363.781 81.5359 363.648 80.8741 363.516C79.1534 363.119 76.7708 362.59 73.8588 361.929C67.9025 360.606 59.696 358.622 50.6953 356.373C41.6946 354.124 33.3557 352.272 27.3994 350.949C24.355 350.288 21.9725 349.759 20.2518 349.494C19.4576 349.362 18.7958 349.23 18.2663 349.097C17.8692 348.965 17.6045 348.833 17.6045 348.965Z" fill="#E0E0E0"/>
<path d="M265.096 0.384384L169.399 29.1582L188.809 93.6359L284.506 64.862L265.096 0.384384Z" fill="white"/>
<path d="M284.449 64.8187C284.449 64.8187 284.316 64.4219 284.051 63.6281C283.787 62.8344 283.39 61.6439 282.993 60.1888C282.066 57.1462 280.742 52.7809 279.022 47.2249C275.58 35.9808 270.683 19.9744 264.726 0.396404L265.124 0.528688C238.651 8.46573 205.428 18.5193 169.425 29.3666L169.69 28.9697C176.573 51.9872 183.191 73.814 189.015 93.392L188.618 93.1275C216.811 84.6613 240.636 77.6503 257.579 72.6235C266.05 70.1101 272.668 68.1258 277.301 66.803C279.551 66.1415 281.404 65.6124 282.595 65.2156C283.125 65.0833 283.654 64.951 283.919 64.8187C284.316 64.8187 284.449 64.8187 284.449 64.8187C284.449 64.8187 284.316 64.8187 284.051 64.951C283.787 65.0833 283.257 65.2156 282.728 65.3478C281.537 65.7447 279.816 66.2738 277.566 66.9352C272.933 68.3904 266.315 70.3746 257.976 72.888C241.033 78.0471 217.076 85.3227 188.882 93.9212L188.618 94.0535L188.485 93.7889C182.529 74.2109 176.043 52.2517 169.028 29.3666L168.896 29.102L169.16 28.9697C205.163 18.1225 238.519 8.20116 264.859 0.26412L265.124 0.131836L265.256 0.396404C271.08 20.1067 275.977 36.2454 279.286 47.4895C280.875 53.0454 282.198 57.4108 283.125 60.4533C283.522 61.9085 283.919 63.099 284.051 63.8927C284.316 64.4219 284.449 64.8187 284.449 64.8187Z" fill="#E0E0E0"/>
<path d="M264.991 0.396484C264.991 0.396484 264.991 0.528768 264.859 0.661052C264.726 0.92562 264.594 1.19019 264.462 1.45476C264.064 2.24846 263.403 3.30673 262.741 4.62957C261.152 7.40754 258.902 11.2438 256.123 16.1383C250.431 25.795 242.489 39.288 233.753 54.1038L233.621 54.3683L233.356 54.2361C232.43 53.8392 231.371 53.4424 230.444 53.0455C213.634 46.4313 198.412 40.6108 187.294 36.2454C181.867 34.1289 177.367 32.2769 174.322 31.0864C172.866 30.425 171.675 30.0281 170.748 29.6312C170.351 29.499 170.087 29.3667 169.822 29.2344C169.557 29.1021 169.557 29.1021 169.557 29.1021C169.557 29.1021 169.689 29.1021 169.822 29.2344C170.087 29.3667 170.351 29.3667 170.748 29.499C171.675 29.7635 172.866 30.2927 174.322 30.8218C177.499 32.0124 181.999 33.7321 187.426 35.8486C198.545 40.0817 213.766 46.0345 230.577 52.5164C231.635 52.9132 232.562 53.3101 233.489 53.7069L233.091 53.8392C241.96 39.0234 249.902 25.6627 255.726 15.8737C258.638 11.1115 260.888 7.27525 262.608 4.49729C263.403 3.17445 264.064 2.11618 264.462 1.45476C264.726 1.19019 264.859 0.92562 264.991 0.661052C264.991 0.396484 264.991 0.396484 264.991 0.396484Z" fill="#E0E0E0"/>
<path d="M543.483 257.821C543.483 257.821 537.262 251.736 525.217 267.081C513.172 282.426 507.877 291.554 507.877 291.554C507.877 291.554 504.833 294.729 502.848 291.818C500.862 289.04 498.744 281.632 494.376 282.029C489.744 282.426 487.361 286.924 486.832 294.199C486.302 301.475 484.317 317.349 484.184 318.804C484.052 320.259 482.861 322.111 481.14 320.392C479.419 318.672 470.816 304.121 464.198 308.618C457.579 313.116 459.168 333.62 459.3 335.869C459.432 338.118 458.903 338.911 457.712 339.308C456.653 339.573 454.138 334.414 451.491 330.445C448.843 326.344 445.137 322.111 441.431 325.154C437.857 328.064 434.019 342.483 443.152 368.808L448.182 380.713L461.153 382.565C489.082 384.814 502.053 377.538 503.906 373.305C505.892 369.072 500.73 366.427 496.229 364.971C491.729 363.516 486.037 362.326 486.037 361.267C486.037 360.077 486.699 359.283 488.949 358.886C491.2 358.489 511.451 354.918 514.098 347.378C516.746 339.837 500.465 335.075 498.48 333.885C496.362 332.694 497.95 331.107 499.274 330.578C500.597 330.048 515.554 324.228 522.437 321.847C529.32 319.466 533.159 316.026 532.365 311.529C531.57 307.163 524.026 307.031 520.849 305.84C517.672 304.65 519.922 300.946 519.922 300.946C519.922 300.946 527.467 293.538 539.38 278.061C551.16 262.451 543.483 257.954 543.483 257.954" fill="#EBEBEB"/>
<path d="M532.629 271.579C532.629 271.579 532.629 271.711 532.364 271.976C532.232 272.241 531.967 272.505 531.703 272.902C531.041 273.696 530.247 275.018 529.055 276.474C526.805 279.648 523.364 284.014 519.128 289.57C510.789 300.549 499.009 315.63 485.905 332.297C472.933 348.965 461.153 363.913 452.549 374.893C448.314 380.317 444.872 384.682 442.49 387.857C441.299 389.312 440.372 390.502 439.71 391.428C439.446 391.825 439.181 392.09 438.916 392.354C438.784 392.619 438.651 392.619 438.651 392.619C438.651 392.619 438.651 392.487 438.916 392.222C439.048 391.958 439.313 391.693 439.578 391.296C440.24 390.502 441.034 389.18 442.225 387.724C444.475 384.55 447.917 380.184 452.152 374.628C460.491 363.649 472.272 348.568 485.376 331.901C498.347 315.233 510.127 300.285 518.731 289.305C522.967 283.882 526.408 279.516 528.791 276.341C529.982 274.886 530.908 273.696 531.57 272.77C531.835 272.373 532.1 272.108 532.364 271.844C532.497 271.711 532.629 271.579 532.629 271.579Z" fill="#E0E0E0"/>
<path d="M496.759 292.479C496.891 292.479 497.024 293.802 497.288 295.919C497.421 298.035 497.685 301.078 497.818 304.385C497.95 307.56 497.95 310.47 498.082 312.851C498.082 314.968 498.215 316.291 498.082 316.291C497.95 316.291 497.818 314.968 497.553 312.851C497.421 310.735 497.288 307.692 497.156 304.385C497.024 301.21 496.891 298.432 496.891 295.919C496.626 293.802 496.626 292.479 496.759 292.479Z" fill="#E0E0E0"/>
<path d="M499.142 316.688C499.142 316.556 505.23 315.894 512.775 315.233C520.32 314.572 526.541 314.307 526.541 314.439C526.541 314.572 520.452 315.233 512.907 315.894C505.23 316.556 499.142 316.82 499.142 316.688Z" fill="#E0E0E0"/>
<path d="M477.169 342.219C477.169 342.087 478.493 342.351 480.743 342.748C482.861 343.145 485.905 343.674 489.214 344.203C492.523 344.732 495.567 345.129 497.685 345.394C499.803 345.658 501.259 345.923 501.259 345.923C501.259 346.055 499.935 346.055 497.685 345.791C495.435 345.658 492.391 345.261 489.082 344.732C485.773 344.203 482.728 343.542 480.61 343.013C478.36 342.616 477.169 342.219 477.169 342.219Z" fill="#E0E0E0"/>
<path d="M470.154 320.656C470.286 320.656 470.683 321.847 471.477 323.699C472.139 325.551 473.066 328.196 474.125 331.239C475.051 334.149 475.978 336.795 476.507 338.779C477.037 340.763 477.434 341.954 477.301 341.954C477.169 341.954 476.772 340.763 475.978 338.911C475.316 337.059 474.389 334.414 473.331 331.371C472.404 328.461 471.477 325.815 470.948 323.831C470.419 321.979 470.154 320.789 470.154 320.656Z" fill="#E0E0E0"/>
<path d="M447.917 340.764C448.049 340.764 448.579 342.219 449.505 344.732C450.432 347.113 451.623 350.553 452.947 354.257C454.27 357.961 455.461 361.4 456.256 363.913C457.05 366.427 457.447 367.882 457.447 368.014C457.315 368.014 456.785 366.559 455.859 364.046C454.932 361.665 453.741 358.225 452.417 354.521C451.093 350.817 449.902 347.378 449.108 344.864C448.314 342.351 447.784 340.764 447.917 340.764Z" fill="#E0E0E0"/>
<path d="M457.314 367.22C457.314 367.088 459.035 367.352 461.815 367.749C464.594 368.146 468.433 368.807 472.536 369.337C476.772 369.866 480.61 370.263 483.39 370.659C486.17 370.924 487.89 371.189 487.89 371.321C487.89 371.453 486.17 371.453 483.39 371.189C480.61 371.056 476.772 370.659 472.536 370.13C468.301 369.601 464.462 368.94 461.815 368.411C459.035 367.749 457.314 367.352 457.314 367.22Z" fill="#E0E0E0"/>
<path d="M485.103 127.786L481.968 230.387L556.981 232.676L560.115 130.075L485.103 127.786Z" fill="#F5F5F5"/>
<path d="M471.284 141.36L468.149 243.961L543.161 246.25L546.296 143.649L471.284 141.36Z" fill="white"/>
<path d="M543.086 246.313C543.086 246.313 543.086 246.18 543.086 245.784C543.086 245.387 543.086 244.99 543.086 244.328C543.086 243.006 543.218 241.154 543.218 238.773C543.351 233.878 543.483 226.735 543.748 217.739C544.277 199.749 544.939 174.086 545.866 143.793L546.13 144.057C523.496 143.396 498.083 142.602 471.081 141.808L471.478 141.412C470.286 179.774 469.227 215.226 468.301 243.932L468.036 243.667C490.67 244.461 509.466 244.99 522.57 245.519C529.056 245.784 534.218 245.916 537.659 246.048C539.38 246.18 540.704 246.18 541.63 246.18C542.689 246.18 543.086 246.313 543.086 246.313C543.086 246.313 542.689 246.313 541.762 246.313C540.836 246.313 539.512 246.313 537.792 246.18C534.35 246.048 529.188 245.916 522.702 245.784C509.598 245.387 490.803 244.858 468.036 244.328H467.771V244.064C468.698 215.226 469.757 179.774 470.816 141.412V141.015H471.213C498.083 141.808 523.629 142.602 546.263 143.396H546.527V143.66C545.601 174.086 544.674 199.749 544.145 217.872C543.88 226.867 543.616 234.01 543.483 238.905C543.351 241.286 543.351 243.138 543.218 244.461C543.218 245.122 543.218 245.519 543.218 245.916C543.086 246.048 543.086 246.313 543.086 246.313Z" fill="#E0E0E0"/>
<path d="M517.011 165.09C517.011 165.222 508.804 165.222 498.745 164.825C488.685 164.561 480.479 164.164 480.479 163.899C480.479 163.767 488.685 163.767 498.745 164.164C508.804 164.561 517.011 164.958 517.011 165.09Z" fill="#E0E0E0"/>
<path d="M536.468 174.615C536.468 174.747 523.894 174.615 508.407 174.086C492.921 173.557 480.346 173.028 480.346 172.895C480.346 172.763 492.921 172.895 508.407 173.425C523.894 173.954 536.468 174.483 536.468 174.615Z" fill="#E0E0E0"/>
<path d="M536.071 183.875C536.071 184.007 523.497 183.875 508.01 183.346C492.524 182.817 479.949 182.287 479.949 182.155C479.949 182.023 492.524 182.155 508.01 182.684C523.497 183.213 536.071 183.743 536.071 183.875Z" fill="#E0E0E0"/>
<path d="M535.806 193.266C535.806 193.399 523.232 193.266 507.745 192.737C492.259 192.208 479.684 191.679 479.684 191.547C479.684 191.414 492.259 191.547 507.745 192.076C523.232 192.473 535.806 193.002 535.806 193.266Z" fill="#E0E0E0"/>
<path d="M535.541 202.527C535.541 202.659 522.967 202.527 507.48 201.998C491.994 201.469 479.419 200.94 479.419 200.807C479.419 200.675 491.994 200.807 507.48 201.337C522.967 201.866 535.541 202.395 535.541 202.527Z" fill="#E0E0E0"/>
<path d="M535.277 211.787C535.277 211.919 522.702 211.787 507.216 211.258C491.729 210.729 479.155 210.2 479.155 210.067C479.155 209.935 491.729 210.067 507.216 210.596C522.702 211.126 535.277 211.655 535.277 211.787Z" fill="#E0E0E0"/>
<path d="M535.012 221.179C535.012 221.311 522.438 221.179 506.951 220.649C491.465 220.12 478.89 219.591 478.89 219.459C478.89 219.327 491.465 219.459 506.951 219.988C522.438 220.385 535.012 220.914 535.012 221.179Z" fill="#E0E0E0"/>
<path d="M508.672 229.645C508.672 229.777 501.921 229.777 493.583 229.512C485.244 229.248 478.493 228.851 478.493 228.719C478.493 228.586 485.244 228.586 493.583 228.851C501.921 229.116 508.672 229.512 508.672 229.645Z" fill="#E0E0E0"/>
<path d="M323.4 73.1617L299.948 132.033L373.735 161.392L397.187 102.521L323.4 73.1617Z" fill="white"/>
<path d="M397.09 102.519C397.09 102.519 396.957 102.519 396.693 102.387C396.428 102.255 396.163 102.123 395.634 101.99C394.707 101.593 393.383 101.064 391.663 100.403C388.221 99.08 383.059 96.9635 376.573 94.4501C363.602 89.291 345.203 82.0154 323.231 73.2846L323.363 73.1523C316.348 90.7461 308.406 110.853 299.935 132.019L299.803 131.886C327.07 142.734 352.483 152.92 373.529 161.253H373.397C380.544 143.527 386.368 128.844 390.471 118.526C392.589 113.367 394.178 109.398 395.237 106.62C395.766 105.297 396.163 104.239 396.56 103.445C396.957 102.916 397.09 102.519 397.09 102.519C397.09 102.519 396.957 102.916 396.693 103.578C396.428 104.239 396.031 105.297 395.501 106.752C394.442 109.53 392.854 113.499 390.736 118.658C386.633 128.976 380.809 143.66 373.794 161.518V161.65H373.661C352.616 153.316 327.202 143.131 299.935 132.283H299.803V132.151C308.274 110.853 316.348 90.7461 323.231 73.2846V73.1523H323.363C345.336 81.8831 363.734 89.291 376.706 94.4501C383.192 97.0958 388.221 99.08 391.795 100.535C393.516 101.197 394.839 101.726 395.766 102.123C396.163 102.255 396.56 102.387 396.825 102.519C397.09 102.519 397.09 102.519 397.09 102.519Z" fill="#E0E0E0"/>
<path d="M324.377 77.9315L303.862 129.429L372.361 156.684L392.876 105.187L324.377 77.9315Z" fill="#EBEBEB"/>
<path d="M304.171 129.638L340.835 107.149L347.718 133.077L362.014 126.331L372.735 156.888L304.171 129.638Z" fill="#E0E0E0"/>
<path d="M363.602 111.647C362.411 114.69 359.101 116.145 356.057 114.954C353.013 113.764 351.557 110.457 352.748 107.414C353.939 104.372 357.248 102.917 360.293 104.107C363.337 105.298 364.793 108.605 363.602 111.647Z" fill="#E0E0E0"/>
<path d="M131.172 167.736C131.172 167.736 131.702 168.133 132.76 168C133.29 168 133.952 167.736 134.481 167.207C135.011 166.677 135.408 165.751 135.937 164.958C137.923 161.386 140.967 156.227 144.541 150.01C145.467 148.422 146.394 146.835 147.453 145.115C147.982 144.189 148.512 143.396 148.909 142.47C149.174 142.073 149.438 141.544 149.571 141.147C149.703 140.75 149.703 140.221 149.571 139.692C149.438 139.295 149.174 138.766 148.776 138.501C148.379 138.236 147.85 137.972 147.453 137.707C146.526 137.178 145.467 136.649 144.541 136.12C142.555 135.062 140.438 133.871 138.452 132.681C129.981 127.918 120.848 122.759 111.053 117.336C109.994 116.674 108.538 117.071 107.876 118.129C107.214 119.32 106.553 120.51 105.758 121.701C104.435 124.082 103.111 126.331 101.788 128.58C99.1403 133.077 96.6253 137.443 94.1104 141.676C93.8457 142.205 93.4486 142.734 93.1839 143.263C92.9192 143.792 92.7868 144.189 92.7868 144.718C92.7868 145.247 93.0515 145.777 93.3163 146.173C93.581 146.57 94.1104 146.835 94.6399 147.099C96.6253 148.158 98.6108 149.348 100.464 150.407C104.17 152.523 107.611 154.507 110.788 156.227C117.142 159.799 122.171 162.709 125.745 164.826C127.466 165.884 128.79 166.677 129.848 167.207C130.246 167.471 130.643 167.736 130.907 167.868C131.04 167.736 131.172 167.736 131.172 167.736C131.172 167.736 131.04 167.736 130.775 167.603C130.51 167.471 130.113 167.207 129.716 167.074C128.79 166.545 127.334 165.752 125.613 164.826C122.039 162.841 116.877 159.931 110.523 156.492C107.347 154.772 103.905 152.788 100.067 150.671C98.2137 149.613 96.2283 148.555 94.2428 147.496C93.7134 147.232 93.1839 146.967 92.7868 146.438C92.3897 145.909 92.125 145.247 92.125 144.586C92.125 143.925 92.2574 143.263 92.6545 142.734C92.9192 142.205 93.3163 141.676 93.581 141.147C95.9635 136.914 98.4784 132.548 101.126 128.051C102.449 125.802 103.773 123.421 105.097 121.172C105.758 119.981 106.42 118.791 107.214 117.6C108.009 116.277 109.994 115.748 111.318 116.542C120.98 121.966 130.246 127.257 138.584 131.887C140.702 133.077 142.688 134.268 144.673 135.326C145.732 135.855 146.659 136.384 147.585 137.046C148.115 137.31 148.512 137.575 149.041 137.972C149.571 138.369 149.835 138.898 149.968 139.427C150.1 139.956 150.1 140.618 149.968 141.147C149.835 141.676 149.438 142.073 149.174 142.602C148.644 143.528 148.115 144.322 147.585 145.247C146.526 146.967 145.6 148.555 144.673 150.142C140.967 156.359 138.055 161.518 135.937 164.958C135.408 165.751 135.011 166.677 134.481 167.207C133.952 167.736 133.158 168 132.628 168C132.099 168 131.702 167.868 131.437 167.868C131.172 167.868 131.172 167.736 131.172 167.736Z" fill="#E0E0E0"/>
<path d="M124.157 140.618L127.466 146.571L120.583 146.703L113.7 146.835L117.274 140.75L120.848 134.665L124.157 140.618Z" fill="#E0E0E0"/>
<path d="M573 392.883C573 393.148 446.461 393.28 290.273 393.28C134.084 393.28 7.54492 393.148 7.54492 392.883C7.54492 392.619 134.084 392.486 290.273 392.486C446.461 392.486 573 392.619 573 392.883Z" fill="#263238"/>
<path d="M147.453 308.75L107.479 268.668L127.598 231.761C147.717 206.098 190.206 207.685 190.206 207.685C190.206 207.685 219.194 204.907 252.946 211.522C286.699 218.136 284.051 240.492 284.051 240.492L288.552 323.302L293.449 390.634L168.896 393.148L147.453 308.75Z" fill="#4D5AF2"/>
<path d="M214.561 389.311L102.979 390.634C76.1088 390.899 58.2398 363.119 69.7554 338.911L117.538 250.413L160.954 279.78L131.304 341.292L221.708 342.88L214.561 389.311Z" fill="#4D5AF2"/>
<path d="M280.081 226.999L369.69 365.236L317.407 368.675C317.407 368.675 286.169 319.466 286.963 320.524C288.155 322.376 280.081 226.999 280.081 226.999Z" fill="#4D5AF2"/>
<path d="M158.704 287.717C158.704 287.717 158.704 287.453 158.836 287.056C158.968 286.527 159.101 285.865 159.365 285.072C159.762 283.352 160.424 280.839 160.954 277.664C161.616 274.489 162.277 270.785 162.674 266.552C163.072 262.319 163.336 257.689 162.674 252.927C162.013 248.165 160.16 243.799 158.042 240.228C155.924 236.656 153.541 233.613 151.424 231.232C149.306 228.851 147.32 227.131 145.997 225.941C144.673 224.75 143.879 224.221 143.879 224.089C143.879 224.089 144.144 224.221 144.541 224.486C144.938 224.75 145.467 225.147 146.129 225.676C147.585 226.735 149.571 228.454 151.688 230.835C153.939 233.084 156.321 236.127 158.571 239.831C160.689 243.535 162.542 247.9 163.336 252.795C163.998 257.689 163.733 262.319 163.204 266.552C162.674 270.785 162.013 274.489 161.351 277.664C160.689 280.839 160.027 283.352 159.498 285.072C159.233 285.998 159.101 286.659 158.836 287.056C158.836 287.453 158.704 287.717 158.704 287.717Z" fill="#263238"/>
<path d="M155.13 292.479C155.13 292.479 154.865 293.273 154.335 294.464C153.806 295.787 153.012 297.506 151.953 299.755C149.967 304.253 147.055 310.47 143.746 317.217C140.437 323.963 137.261 330.048 135.01 334.414C133.819 336.53 132.893 338.382 132.231 339.573C131.569 340.763 131.172 341.425 131.172 341.425C131.172 341.425 131.437 340.763 132.098 339.44C132.76 338.117 133.687 336.398 134.746 334.281C136.996 329.784 140.04 323.698 143.349 317.084C146.658 310.338 149.57 304.253 151.688 299.755C152.747 297.639 153.541 295.919 154.203 294.464C154.733 293.141 155.13 292.479 155.13 292.479Z" fill="#263238"/>
<path d="M214.561 389.311C214.561 389.311 214.561 389.179 214.561 389.047C214.561 388.915 214.561 388.65 214.561 388.385C214.561 387.724 214.693 386.93 214.826 385.74C215.09 383.359 215.487 380.052 215.884 375.818C216.811 367.22 218.267 355.182 219.855 341.028L220.12 341.425C210.06 341.425 198.942 341.425 187.162 341.425C164.66 341.425 144.276 341.292 129.451 341.292C122.171 341.292 116.083 341.16 111.979 341.16C109.994 341.16 108.406 341.16 107.214 341.16C106.685 341.16 106.288 341.16 106.023 341.16C105.758 341.16 105.626 341.16 105.626 341.16C105.626 341.16 105.758 341.16 106.023 341.16C106.288 341.16 106.685 341.16 107.214 341.16C108.406 341.16 109.994 341.16 111.979 341.16C116.215 341.16 122.171 341.16 129.451 341.028C144.276 341.028 164.66 341.028 187.162 340.896C198.942 340.896 210.06 340.896 220.12 340.896H220.517V341.292C218.796 355.447 217.34 367.485 216.282 376.083C215.752 380.316 215.355 383.623 214.958 386.004C214.826 387.063 214.693 387.989 214.561 388.65C214.561 388.915 214.428 389.179 214.428 389.311C214.693 389.179 214.561 389.311 214.561 389.311Z" fill="#263238"/>
<path d="M132.099 342.219C131.966 342.219 131.304 341.16 129.848 339.441C128.525 337.721 126.407 335.472 123.892 333.356C121.377 331.239 118.73 329.519 116.877 328.461C115.024 327.403 113.7 326.874 113.7 326.741C113.7 326.609 115.024 327.006 117.009 328.064C118.995 328.99 121.642 330.578 124.289 332.826C126.937 335.075 128.922 337.324 130.246 339.176C131.569 340.896 132.099 342.219 132.099 342.219Z" fill="#263238"/>
<path d="M290.405 350.949C290.405 350.949 290.273 350.552 290.273 349.759C290.14 348.965 290.008 347.907 289.875 346.452C289.611 343.541 289.214 339.441 288.684 334.282C287.758 324.096 286.699 309.809 285.772 294.2C284.846 278.59 284.184 264.303 283.787 253.985C283.654 248.826 283.522 244.725 283.39 241.815C283.39 240.36 283.39 239.302 283.39 238.508C283.39 237.714 283.39 237.317 283.39 237.317C283.39 237.317 283.39 237.714 283.522 238.508C283.522 239.302 283.654 240.492 283.654 241.815C283.787 244.725 284.051 248.958 284.184 253.985C284.713 264.303 285.375 278.458 286.302 294.067C287.228 309.677 288.155 323.963 288.949 334.149C289.346 339.176 289.611 343.409 289.875 346.319C290.008 347.642 290.008 348.833 290.14 349.626C290.405 350.552 290.405 350.949 290.405 350.949Z" fill="#263238"/>
<path d="M190.735 275.811C190.735 275.811 190.735 275.15 190.868 273.959C191 272.636 191.265 271.049 191.529 268.933C192.059 264.567 192.853 258.614 193.78 251.603L194.309 251.868C191.662 253.72 188.75 255.704 185.705 257.821C182.661 259.937 179.749 262.054 176.969 263.906L176.308 264.303L176.44 263.509C177.499 256.63 178.425 250.677 179.087 246.444C179.484 244.46 179.749 242.74 179.881 241.55C180.146 240.359 180.146 239.83 180.279 239.83C180.279 239.83 180.279 240.491 180.146 241.682C180.014 242.873 179.749 244.592 179.484 246.709C178.823 251.074 178.028 257.027 177.102 263.906L176.572 263.641C179.22 261.789 182.264 259.673 185.308 257.556C188.353 255.44 191.265 253.455 193.912 251.603L194.574 251.206L194.441 252C193.382 258.879 192.588 264.832 191.926 269.197C191.662 271.314 191.397 272.901 191.132 274.224C191 275.15 190.868 275.811 190.735 275.811Z" fill="#E0E0E0"/>
<path d="M240.636 281.103C240.636 281.103 240.107 280.706 239.313 279.78C238.386 278.854 237.327 277.663 235.871 276.076C232.827 272.901 228.724 268.403 224.091 263.244L224.62 263.112C224.356 266.419 224.091 269.859 223.694 273.562C223.429 277.266 223.032 280.838 222.767 284.145V284.939L222.238 284.41C217.605 279.251 213.634 274.753 210.722 271.446C209.399 269.859 208.207 268.668 207.413 267.61C206.619 266.684 206.222 266.287 206.354 266.155C206.354 266.155 206.884 266.551 207.678 267.477C208.604 268.403 209.663 269.594 211.119 271.181C214.031 274.356 218.135 278.854 222.767 284.013L222.238 284.145C222.502 280.838 222.767 277.266 223.164 273.562C223.429 269.859 223.826 266.419 224.091 263.112V262.318L224.62 262.847C229.253 268.007 233.356 272.504 236.268 275.811C237.592 277.399 238.783 278.589 239.577 279.648C240.239 280.574 240.636 281.103 240.636 281.103Z" fill="#E0E0E0"/>
<path d="M265.653 279.384C265.653 279.384 265.388 279.913 264.726 280.971C264.065 282.029 263.138 283.485 262.079 285.204C259.697 288.908 256.388 293.935 252.681 299.888L252.417 299.359C255.593 298.83 259.167 298.168 262.741 297.639C266.447 296.978 269.889 296.448 273.198 295.919L273.992 295.787L273.595 296.448C269.756 302.269 266.315 307.163 263.932 310.867C262.741 312.587 261.814 313.91 261.153 314.968C260.491 315.894 260.094 316.423 260.094 316.423C260.094 316.423 260.358 315.894 261.02 314.836C261.682 313.778 262.609 312.323 263.668 310.603C266.05 306.899 269.359 301.872 273.065 296.052L273.33 296.581C270.021 297.11 266.58 297.771 262.873 298.433C259.3 299.094 255.726 299.623 252.549 300.152L251.755 300.285L252.152 299.623C255.991 293.803 259.3 288.776 261.814 285.072C263.006 283.352 263.932 281.897 264.594 280.971C265.256 279.913 265.653 279.384 265.653 279.384Z" fill="#E0E0E0"/>
<path d="M232.298 305.046C232.298 305.046 232.033 305.575 231.371 306.634C230.709 307.692 229.783 309.147 228.724 310.867C226.341 314.571 223.032 319.597 219.326 325.55L219.061 325.021C222.238 324.492 225.812 323.831 229.386 323.301C233.092 322.64 236.533 322.111 239.842 321.582L240.636 321.449L240.239 322.111C236.401 327.931 232.959 332.826 230.577 336.53C229.386 338.249 228.459 339.572 227.797 340.631C227.135 341.557 226.738 342.086 226.738 342.086C226.738 342.086 227.003 341.557 227.665 340.498C228.327 339.44 229.253 337.985 230.312 336.265C232.695 332.561 236.004 327.534 239.71 321.714L239.975 322.243C236.666 322.772 233.224 323.434 229.518 324.095C225.944 324.757 222.37 325.286 219.194 325.815L218.399 325.947L218.797 325.286C222.635 319.465 225.944 314.438 228.459 310.734C229.65 309.015 230.577 307.56 231.239 306.634C231.9 305.443 232.298 304.914 232.298 305.046Z" fill="#E0E0E0"/>
<path d="M304.303 278.986C304.303 278.986 304.038 279.515 303.376 280.574C302.715 281.632 301.788 283.087 300.729 284.807C298.347 288.511 295.038 293.538 291.331 299.49L291.067 298.961C294.243 298.432 297.817 297.771 301.391 297.242C305.097 296.58 308.539 296.051 311.848 295.522L312.642 295.39L312.245 296.051C308.406 301.871 304.965 306.766 302.582 310.47C301.391 312.19 300.464 313.512 299.803 314.571C299.141 315.497 298.744 316.026 298.744 316.026C298.744 316.026 299.008 315.497 299.67 314.438C300.332 313.38 301.259 311.925 302.317 310.205C304.7 306.501 308.009 301.475 311.715 295.654L311.98 296.183C308.671 296.712 305.229 297.374 301.523 298.035C297.949 298.697 294.376 299.226 291.199 299.755L290.405 299.887L290.802 299.226C294.64 293.405 297.949 288.378 300.464 284.675C301.656 282.955 302.582 281.5 303.244 280.574C303.906 279.515 304.303 278.986 304.303 278.986Z" fill="#E0E0E0"/>
<path d="M135.672 257.821C135.672 257.821 135.407 258.35 134.746 259.409C134.084 260.467 133.157 261.922 132.098 263.642C129.716 267.346 126.407 272.373 122.7 278.325L122.436 277.796C125.612 277.267 129.186 276.606 132.76 276.076C136.466 275.415 139.908 274.886 143.217 274.357L144.011 274.225L143.614 274.886C139.775 280.706 136.334 285.601 133.951 289.305C132.76 291.025 131.834 292.347 131.172 293.406C130.51 294.332 130.113 294.861 130.113 294.861C130.113 294.861 130.378 294.332 131.039 293.273C131.701 292.215 132.628 290.76 133.687 289.04C136.069 285.336 139.378 280.31 143.084 274.489L143.349 275.018C140.04 275.547 136.599 276.209 132.892 276.87C129.319 277.532 125.745 278.061 122.568 278.59L121.774 278.722L122.171 278.061C126.01 272.24 129.319 267.213 131.834 263.51C133.025 261.79 133.951 260.335 134.613 259.409C135.275 258.35 135.672 257.821 135.672 257.821Z" fill="#E0E0E0"/>
<path d="M83.3886 356.769C83.3886 356.769 83.7857 357.166 84.5799 358.092C85.3741 359.018 86.433 360.341 87.7566 361.928C90.5363 365.368 94.3748 369.998 98.7428 375.421L98.2133 375.553C98.7428 372.379 99.1399 368.807 99.6693 365.235C100.199 361.531 100.728 357.96 101.258 354.785L101.39 353.991L101.919 354.653C106.155 360.076 109.861 364.838 112.641 368.278C113.832 369.865 114.891 371.32 115.685 372.246C116.347 373.172 116.744 373.701 116.744 373.701C116.744 373.701 116.347 373.305 115.553 372.379C114.759 371.453 113.7 370.13 112.376 368.542C109.597 365.103 105.89 360.473 101.522 355.049L102.052 354.917C101.522 358.224 100.993 361.664 100.463 365.368C99.934 368.939 99.4046 372.511 98.8751 375.686L98.7428 376.479L98.2133 375.95C93.8453 370.527 90.1392 365.764 87.3595 362.325C86.0359 360.738 85.1094 359.283 84.3152 358.357C83.6534 357.298 83.2563 356.769 83.3886 356.769Z" fill="#E0E0E0"/>
<path d="M202.913 292.744C202.913 292.744 202.251 292.876 201.059 293.008C199.736 293.141 198.147 293.273 196.03 293.405C191.662 293.67 185.573 294.199 178.69 294.728L178.955 294.199C181.337 296.448 183.852 298.829 186.632 301.342C189.279 303.856 191.926 306.369 194.309 308.618L194.838 309.147H194.044C187.161 309.544 181.073 309.808 176.705 310.073C174.587 310.205 172.998 310.205 171.675 310.338C170.484 310.338 169.822 310.338 169.822 310.338C169.822 310.338 170.484 310.205 171.675 310.073C172.998 309.941 174.587 309.808 176.705 309.676C181.073 309.412 187.029 309.015 194.044 308.486L193.779 309.015C191.397 306.766 188.75 304.252 186.102 301.739C183.455 299.226 180.808 296.845 178.558 294.596L178.028 294.067H178.822C185.838 293.67 191.794 293.273 196.162 293.008C198.28 292.876 199.868 292.876 201.192 292.744C202.251 292.611 202.913 292.611 202.913 292.744Z" fill="#E0E0E0"/>
<path d="M173.528 359.416C173.528 359.416 174.058 359.812 174.72 360.738C175.514 361.664 176.705 362.987 178.029 364.575C180.941 367.882 184.779 372.512 189.28 377.935L188.75 378.068C189.147 374.893 189.544 371.321 190.074 367.749C190.603 364.046 191 360.474 191.397 357.167L191.53 356.373L192.059 356.902C196.427 362.326 200.266 366.956 203.045 370.395C204.369 371.983 205.428 373.305 206.222 374.364C206.884 375.29 207.281 375.819 207.281 375.819C207.281 375.819 206.884 375.422 206.09 374.496C205.295 373.57 204.237 372.247 202.781 370.66C200.001 367.353 196.162 362.723 191.662 357.431L192.192 357.299C191.794 360.606 191.265 364.178 190.868 367.882C190.338 371.453 189.941 375.025 189.544 378.2L189.412 378.994L188.882 378.464C184.382 373.041 180.544 368.411 177.764 364.972C176.44 363.384 175.381 362.061 174.587 361.003C173.925 359.945 173.528 359.416 173.528 359.416Z" fill="#E0E0E0"/>
<path d="M121.112 310.47C121.112 310.47 120.45 310.602 119.259 310.734C117.936 310.867 116.347 310.999 114.229 311.131C109.861 311.396 103.773 311.925 96.8898 312.454L97.1545 311.925C99.5371 314.174 102.052 316.555 104.832 319.068C107.479 321.582 110.126 324.095 112.509 326.344L113.038 326.873H112.244C105.361 327.27 99.2723 327.534 94.9044 327.799C92.7866 327.931 91.1982 327.931 89.8746 328.064C88.6833 328.064 88.0215 328.064 88.0215 328.064C88.0215 328.064 88.6833 327.931 89.8746 327.799C91.1982 327.667 92.7866 327.534 94.9044 327.402C99.2723 327.138 105.229 326.741 112.244 326.212L111.979 326.741C109.597 324.492 106.949 321.978 104.302 319.465C101.655 316.952 99.0076 314.571 96.7574 312.322L96.228 311.793H97.0222C104.037 311.396 109.994 310.999 114.362 310.734C116.48 310.602 118.068 310.602 119.392 310.47C120.45 310.47 121.112 310.47 121.112 310.47Z" fill="#E0E0E0"/>
<path d="M166.116 357.828C166.116 357.828 165.454 357.96 164.263 358.093C162.939 358.225 161.351 358.357 159.233 358.49C154.865 358.754 148.776 359.283 141.893 359.812L142.158 359.283C144.54 361.532 147.055 363.913 149.835 366.427C152.482 368.94 155.13 371.453 157.512 373.702L158.042 374.231H157.247C150.364 374.628 144.276 374.893 139.908 375.157C137.79 375.29 136.202 375.29 134.878 375.422C133.687 375.422 133.025 375.422 133.025 375.422C133.025 375.422 133.687 375.29 134.878 375.157C136.202 375.025 137.79 374.893 139.908 374.76C144.276 374.496 150.232 374.099 157.247 373.57L156.983 374.099C154.6 371.85 151.953 369.337 149.306 366.823C146.658 364.31 144.011 361.929 141.761 359.68L141.231 359.151H142.026C149.041 358.754 154.997 358.357 159.365 358.093C161.483 357.96 163.071 357.96 164.395 357.828C165.454 357.828 166.116 357.828 166.116 357.828Z" fill="#E0E0E0"/>
<path d="M267.77 237.317C267.77 237.317 267.109 237.449 265.917 237.581C264.594 237.713 263.005 237.846 260.888 237.978C256.52 238.243 250.431 238.772 243.548 239.301L243.813 238.772C246.195 241.021 248.71 243.402 251.49 245.915C254.137 248.428 256.784 250.942 259.167 253.191L259.696 253.72H258.902C252.019 254.117 245.931 254.381 241.563 254.646C239.445 254.778 237.856 254.778 236.533 254.91C235.341 254.91 234.68 254.91 234.68 254.91C234.68 254.91 235.341 254.778 236.533 254.646C237.856 254.514 239.445 254.381 241.563 254.249C245.931 253.984 251.887 253.588 258.902 253.058L258.637 253.588C256.255 251.339 253.608 248.825 250.96 246.312C248.313 243.799 245.666 241.417 243.416 239.169L242.886 238.639H243.68C250.696 238.243 256.652 237.846 261.02 237.581C263.138 237.449 264.726 237.449 266.05 237.317C267.109 237.317 267.77 237.184 267.77 237.317Z" fill="#E0E0E0"/>
<path d="M218.399 357.828C218.399 357.828 240.636 351.478 248.049 349.494C250.961 348.7 263.27 355.182 271.742 360.606C271.742 360.606 283.39 367.485 282.463 369.734C281.404 372.115 277.169 371.586 270.286 368.411C270.286 368.411 272.668 375.422 268.035 375.289C268.035 375.289 270.418 382.83 265.918 383.623C261.55 384.417 260.491 374.76 256.52 374.231C252.681 373.702 244.607 373.173 244.607 373.173C244.607 373.173 237.857 384.285 232.695 385.079C227.532 385.872 215.487 384.417 215.487 384.417L218.399 357.828Z" fill="#FFBE9D"/>
<path d="M256.388 359.415C256.52 359.283 259.3 360.87 262.609 362.987C265.918 365.103 268.565 366.955 268.433 367.087C268.3 367.22 265.521 365.632 262.212 363.516C258.902 361.399 256.255 359.547 256.388 359.415Z" fill="#EB996E"/>
<path d="M255.064 363.649C255.196 363.516 258.505 364.839 262.476 366.691C266.447 368.543 269.624 370.131 269.624 370.395C269.492 370.528 266.183 369.205 262.212 367.353C258.108 365.501 254.932 363.913 255.064 363.649Z" fill="#EB996E"/>
<path d="M257.446 374.098C257.446 373.966 259.696 374.098 262.476 374.495C265.256 374.892 267.374 375.289 267.374 375.554C267.374 375.686 265.123 375.554 262.344 375.157C259.564 374.76 257.446 374.231 257.446 374.098Z" fill="#EB996E"/>
<path d="M189.412 128.315C189.941 130.035 189.279 132.019 187.956 133.21C186.632 134.4 184.514 134.533 182.926 133.739C179.882 132.151 179.485 128.051 180.146 124.744C180.676 121.436 181.867 117.865 180.411 114.822C179.352 112.441 176.97 110.986 175.249 109.134C172.072 105.959 170.484 101.197 171.146 96.6994C171.94 92.2017 175.249 88.2332 179.617 87.0426C183.985 85.8521 189.544 87.1749 192.853 84.0001C195.236 81.619 195.368 77.915 197.221 75.1371C200.133 70.7717 206.222 70.1103 211.252 70.904C216.414 71.5654 221.576 73.2851 226.606 71.9623C230.841 70.904 234.283 67.9937 238.121 66.1418C246.593 62.3055 257.579 64.2898 264.065 71.1686C270.55 77.915 272.006 88.8946 267.771 97.2285C266.182 100.271 263.8 102.917 260.756 104.24" fill="#263238"/>
<path d="M214.958 237.582C229.121 237.582 240.637 225.941 240.504 211.786L240.107 187.446C240.107 187.446 260.491 185.462 261.947 165.222C263.271 144.983 262.344 98.2865 262.344 98.2865C239.445 86.91 212.178 88.8943 191.133 103.313L187.956 105.43L189.544 212.448C189.544 226.337 200.928 237.582 214.958 237.582Z" fill="#FFBE9D"/>
<path d="M256.917 134.797C253.343 134.136 253.343 129.506 256.917 128.712C257.05 128.712 257.314 128.712 257.447 128.712C261.02 129.373 261.02 134.003 257.447 134.797C257.182 134.797 257.05 134.797 256.917 134.797Z" fill="#263238"/>
<path d="M260.888 128.315C260.491 128.712 258.638 126.993 255.858 126.86C253.079 126.596 250.961 128.051 250.696 127.654C250.564 127.522 250.961 126.86 251.887 126.199C252.814 125.537 254.27 125.008 255.991 125.141C257.711 125.273 259.167 126.067 259.962 126.728C260.756 127.522 261.021 128.183 260.888 128.315Z" fill="#263238"/>
<path d="M228.592 128.976C229.915 129.902 230.312 131.754 229.386 133.077C228.459 134.4 226.606 134.797 225.283 133.871C223.959 132.945 223.562 131.093 224.488 129.77C225.415 128.447 227.268 128.05 228.592 128.976Z" fill="#263238"/>
<path d="M230.445 129.108C230.048 129.505 228.195 127.785 225.415 127.653C222.635 127.389 220.518 128.844 220.253 128.447C220.12 128.315 220.518 127.653 221.444 126.992C222.371 126.33 223.827 125.801 225.547 125.933C227.268 126.066 228.724 126.859 229.518 127.521C230.312 128.315 230.577 128.976 230.445 129.108Z" fill="#263238"/>
<path d="M240.372 152.788C240.372 152.523 242.093 152.258 244.872 152.126C245.666 152.126 246.196 151.994 246.328 151.597C246.461 151.2 246.196 150.406 245.931 149.48C245.269 147.628 244.74 145.644 244.078 143.66C241.431 135.458 239.71 128.58 240.107 128.447C240.504 128.315 243.019 134.929 245.534 143.131C246.196 145.115 246.725 147.099 247.255 148.951C247.519 149.745 247.917 150.803 247.519 151.994C247.255 152.523 246.725 153.052 246.196 153.052C245.666 153.184 245.269 153.184 245.005 153.184C242.093 153.184 240.372 153.052 240.372 152.788Z" fill="#263238"/>
<path d="M231.107 155.433C234.681 157.152 238.916 159.137 244.608 160.195C244.608 160.195 241.034 165.222 235.342 162.708C229.386 160.063 231.107 155.433 231.107 155.433Z" fill="white"/>
<path d="M240.107 187.049C240.107 187.049 227.268 187.446 214.032 178.054C214.032 178.054 219.459 193.002 239.843 192.208L240.107 187.049Z" fill="#EB996E"/>
<path d="M262.344 103.313C262.344 103.313 250.167 109.531 233.886 101.858C223.297 96.8315 210.855 94.4504 208.207 96.6992C205.56 98.8158 205.163 109.795 194.839 113.102C194.839 113.102 195.898 133.871 187.691 133.21C179.352 132.68 183.985 100.403 183.985 100.403L203.972 90.085L225.944 85.4551L246.857 87.9685L263.006 92.0693L262.344 103.313Z" fill="#263238"/>
<path d="M189.279 126.463C188.882 126.331 175.514 121.569 175.249 135.459C174.984 149.348 188.882 146.835 189.015 146.438C189.015 146.041 189.279 126.463 189.279 126.463Z" fill="#FFBE9D"/>
<path d="M184.779 141.014C184.779 141.014 184.514 141.146 184.117 141.411C183.72 141.543 183.058 141.676 182.264 141.411C180.808 140.882 179.617 138.501 179.617 135.987C179.617 134.665 179.882 133.474 180.411 132.548C180.808 131.49 181.47 130.828 182.264 130.696C183.058 130.564 183.455 130.961 183.72 131.357C183.853 131.754 183.853 132.019 183.853 132.019C183.853 132.019 184.117 131.754 184.117 131.225C184.117 130.961 183.853 130.564 183.588 130.299C183.323 130.035 182.794 129.902 182.264 129.902C181.205 129.902 180.146 130.961 179.749 132.019C179.22 133.077 178.823 134.4 178.823 135.855C178.823 138.633 180.279 141.279 182.264 141.94C183.191 142.205 184.117 141.94 184.514 141.676C184.779 141.411 184.911 141.014 184.779 141.014Z" fill="#EB996E"/>
<path d="M182.132 83.0741C181.999 82.9418 184.382 82.2804 186.897 83.2064C189.544 84.1324 190.868 86.1166 190.603 86.2489C190.471 86.3812 189.015 84.7938 186.632 83.8678C184.382 82.9418 182.132 83.2064 182.132 83.0741Z" fill="#263238"/>
<path d="M190.47 74.7402C190.735 74.7402 190.338 77.6505 190.868 81.0899C191.397 84.5292 192.985 87.0426 192.853 87.1749C192.853 87.1749 192.324 86.6458 191.662 85.5875C191.132 84.5292 190.47 82.9418 190.206 81.2221C189.676 77.5182 190.338 74.7402 190.47 74.7402Z" fill="#263238"/>
<path d="M247.519 121.701C247.387 121.568 248.049 121.039 249.108 120.642C250.166 120.245 251.887 119.849 253.74 119.849C255.593 119.849 257.314 120.245 258.373 120.775C259.432 121.304 260.094 121.701 259.961 121.965C259.829 122.362 257.182 121.304 253.74 121.304C250.431 121.039 247.652 122.097 247.519 121.701Z" fill="#263238"/>
<path d="M216.546 118.79C216.414 118.658 217.076 118.129 218.134 117.732C219.193 117.335 220.914 116.938 222.767 116.938C224.62 116.938 226.341 117.335 227.4 117.864C228.459 118.394 229.121 118.79 228.988 119.055C228.856 119.452 226.209 118.394 222.767 118.394C219.458 118.129 216.678 119.187 216.546 118.79Z" fill="#263238"/>
<path d="M245.137 123.818C245.137 123.818 245.137 124.082 245.137 124.611C245.137 125.141 245.137 125.934 245.269 126.86C245.269 127.786 245.269 128.977 245.401 130.3C245.401 131.623 245.534 133.21 246.063 134.797C246.593 136.385 247.519 137.972 248.975 139.427C250.431 140.75 252.284 141.941 254.402 142.47C255.461 142.734 256.652 142.867 257.844 142.734C259.035 142.734 260.226 142.47 261.285 141.941C263.535 141.147 265.653 139.427 266.977 137.311C268.3 135.194 268.962 132.813 268.83 130.564C268.83 128.183 268.83 125.934 268.83 123.685L269.094 123.95C262.212 123.95 256.255 123.818 251.887 123.818C249.769 123.818 248.181 123.818 246.857 123.685C246.328 123.685 245.931 123.685 245.534 123.685C245.269 123.95 245.137 123.818 245.137 123.818C245.137 123.818 245.666 123.818 246.857 123.685C248.049 123.685 249.769 123.685 251.755 123.553C256.123 123.553 262.079 123.421 269.094 123.421H269.359V123.685C269.359 125.802 269.359 128.183 269.359 130.564C269.492 132.945 268.83 135.591 267.374 137.708C265.918 139.956 263.668 141.676 261.285 142.602C260.094 142.999 258.903 143.263 257.579 143.396C256.388 143.528 255.196 143.396 254.005 142.999C251.755 142.47 249.769 141.279 248.313 139.824C246.857 138.369 245.931 136.649 245.269 134.93C244.74 133.21 244.607 131.623 244.74 130.3C244.74 128.977 244.74 127.786 244.872 126.728C244.872 125.802 244.872 125.141 245.004 124.479C245.137 124.082 245.137 123.818 245.137 123.818Z" fill="#263238"/>
<path d="M212.708 123.157C212.708 123.157 212.708 123.421 212.708 123.95C212.708 124.479 212.708 125.273 212.84 126.199C212.84 127.125 212.84 128.316 212.972 129.639C212.972 130.961 213.105 132.549 213.634 134.136C214.164 135.724 215.09 137.311 216.546 138.766C218.002 140.089 219.855 141.28 221.973 141.809C223.032 142.073 224.223 142.206 225.414 142.073C226.606 142.073 227.797 141.809 228.856 141.28C231.106 140.486 233.224 138.766 234.547 136.65C235.871 134.533 236.533 132.152 236.401 129.903C236.401 127.522 236.401 125.273 236.401 123.024L236.665 123.289C229.782 123.289 223.826 123.157 219.458 123.157C217.34 123.157 215.752 123.157 214.428 123.024C213.899 123.024 213.502 123.024 213.105 123.024C212.84 123.157 212.708 123.157 212.708 123.157C212.708 123.157 213.237 123.157 214.428 123.024C215.62 123.024 217.34 123.024 219.326 122.892C223.694 122.892 229.65 122.76 236.665 122.76H236.93V123.024C236.93 125.141 236.93 127.522 236.93 129.903C237.062 132.284 236.401 134.93 234.945 137.046C233.489 139.295 231.238 141.015 228.856 141.941C227.665 142.338 226.473 142.602 225.15 142.735C223.958 142.867 222.767 142.735 221.576 142.338C219.326 141.809 217.34 140.618 215.884 139.163C214.428 137.708 213.502 135.988 212.84 134.268C212.31 132.549 212.178 130.961 212.31 129.639C212.31 128.316 212.31 127.125 212.443 126.067C212.443 125.141 212.443 124.479 212.575 123.818C212.708 123.421 212.708 123.157 212.708 123.157Z" fill="#263238"/>
<path d="M245.401 124.876C245.401 125.009 243.416 125.273 240.768 125.273C238.254 125.273 236.136 125.141 236.136 124.876C236.136 124.744 238.121 124.479 240.768 124.479C243.416 124.479 245.401 124.612 245.401 124.876Z" fill="#263238"/>
<path d="M187.426 125.009C187.426 124.877 193.118 124.612 200.133 124.612C207.148 124.612 212.84 124.745 212.84 124.877C212.84 125.009 207.148 125.274 200.133 125.274C192.986 125.406 187.426 125.141 187.426 125.009Z" fill="#263238"/>
<path d="M441.696 141.411L402.252 127.257L363.204 141.147C358.175 143.528 353.807 144.851 353.807 149.481V172.63C353.807 188.637 358.042 204.511 366.646 218.533C373.926 230.306 385.177 242.476 402.516 250.281C418.4 245.122 430.313 231.364 437.593 219.459C446.196 205.437 450.432 189.563 450.432 173.556V152.788C450.696 146.306 447.123 142.999 441.696 141.411Z" fill="#4D5AF2"/>
<g opacity="0.3">
<path opacity="0.3" d="M402.649 237.052C388.883 230.967 380.015 221.178 374.191 211.785C367.308 200.674 363.999 188.107 363.999 175.407V159.269C363.999 155.565 366.249 152.125 370.617 150.141L402.252 138.368V127.521L363.204 141.41C359.101 143.262 353.807 145.114 353.807 149.744V172.894C353.807 188.9 358.042 204.774 366.646 218.796C373.926 230.57 385.177 242.74 402.516 250.545V237.052H402.649Z" fill="black"/>
</g>
<g opacity="0.4">
<path opacity="0.4" d="M402.649 250.413C405.428 249.487 407.943 248.429 410.326 247.106C416.811 243.534 422.503 238.64 426.739 234.275C431.504 229.38 435.078 223.956 438.122 218.93C446.726 204.908 450.961 189.033 450.564 172.498V153.449C450.564 143.925 445.667 143.263 441.563 141.411L402.119 127.257V138.104L434.019 150.142C438.387 152.259 440.637 155.566 440.637 159.27V175.408C440.637 188.107 437.328 200.674 430.445 211.786C424.621 221.178 416.15 230.703 402.384 236.92V250.413H402.649Z" fill="black"/>
</g>
<path opacity="0.5" d="M412.708 174.35V171.175C412.708 165.487 408.075 160.989 402.516 160.989C396.825 160.989 392.324 165.619 392.324 171.175V174.35C389.545 174.747 387.427 177.128 387.427 180.038V198.426C387.427 201.6 389.942 204.114 393.118 204.114H412.179C415.355 204.114 417.87 201.6 417.87 198.426V180.038C418.003 176.996 415.62 174.615 412.708 174.35ZM405.296 193.796H400.266L401.06 190.224C400.134 189.695 399.604 188.769 399.604 187.578C399.604 185.859 400.928 184.536 402.649 184.536C404.369 184.536 405.693 185.859 405.693 187.578C405.693 188.637 405.163 189.563 404.369 190.092C404.766 191.547 405.296 193.796 405.296 193.796ZM410.59 174.35H394.442V171.307C394.442 166.942 398.016 163.238 402.516 163.238C406.884 163.238 410.59 166.81 410.59 171.307V174.35Z" fill="white"/>
<path d="M370.484 174.085C370.352 174.085 370.087 172.894 369.955 170.91C369.69 168.926 369.558 166.148 369.69 163.105C369.69 161.518 369.822 160.063 369.955 158.74C370.087 157.417 370.352 156.227 370.881 155.301C371.411 154.375 372.073 153.846 372.602 153.581C373.132 153.316 373.529 153.316 373.529 153.316C373.661 153.449 372.205 153.713 371.411 155.433C371.014 156.359 370.881 157.417 370.749 158.74C370.617 160.063 370.617 161.518 370.484 162.973C370.352 166.016 370.484 168.794 370.617 170.778C370.484 172.894 370.617 174.085 370.484 174.085Z" fill="white"/>
<path d="M371.014 184.139C370.881 184.139 370.617 183.213 370.617 182.023C370.617 180.832 370.749 179.906 370.881 179.906C371.014 179.906 371.279 180.832 371.279 182.023C371.411 183.213 371.279 184.139 371.014 184.139Z" fill="white"/>
<path d="M329.452 279.383L285.508 387.988H206.354V392.882H442.358L490.538 279.383H329.452Z" fill="#263238"/>
<path d="M396.693 343.541C395.105 348.965 390.472 352.404 386.369 351.213C382.265 350.023 380.148 344.599 381.736 339.176C383.324 333.752 387.957 330.313 392.06 331.503C396.163 332.561 398.281 337.985 396.693 343.541Z" fill="#FAFAFA"/>
</svg>
